  0
SECTION
  2
HEADER
  9
$ACADVER
  1
AC1014
  9
$HANDSEED
  5
FFFF
  9
$MEASUREMENT
 70
     1
  0
ENDSEC
  0
SECTION
  2
TABLES
  0
TABLE
  2
VPORT
  5
8
330
0
100
AcDbSymbolTable
 70
     4
  0
VPORT
  5
2E
330
8
100
AcDbSymbolTableRecord
100
AcDbViewportTableRecord
  2
*ACTIVE
 70
     0
 10
0.0
 20
0.0
 11
1.0
 21
1.0
 12
210.0
 22
148.5
 13
0.0
 23
0.0
 14
10.0
 24
10.0
 15
10.0
 25
10.0
 16
0.0
 26
0.0
 36
1.0
 17
0.0
 27
0.0
 37
0.0
 40
341.0
 41
1.24
 42
50.0
 43
0.0
 44
0.0
 50
0.0
 51
0.0
 71
     0
 72
   100
 73
     1
 74
     3
 75
     0
 76
     0
 77
     0
 78
     0
  0
ENDTAB
  0
TABLE
  2
LTYPE
  5
5
330
0
100
AcDbSymbolTable
 70
     1
  0
LTYPE
  5
14
330
5
100
AcDbSymbolTableRecord
100
AcDbLinetypeTableRecord
  2
BYBLOCK
 70
     0
  3

 72
    65
 73
     0
 40
0.0
  0
LTYPE
  5
15
330
5
100
AcDbSymbolTableRecord
100
AcDbLinetypeTableRecord
  2
BYLAYER
 70
     0
  3

 72
    65
 73
     0
 40
0.0
  0
LTYPE
  5
16
330
5
100
AcDbSymbolTableRecord
100
AcDbLinetypeTableRecord
  2
CONTINUOUS
 70
     0
  3
Solid line
 72
    65
 73
     0
 40
0.0
  0
ENDTAB
  0
TABLE
  2
LAYER
  5
2
100
AcDbSymbolTable
 70
1
  0
LAYER
  5
50
100
AcDbSymbolTableRecord
100
AcDbLayerTableRecord
  2
0
 70
0
  6
CONTINUOUS
  0
ENDTAB
  0
TABLE
  2
STYLE
  5
3
330
0
100
AcDbSymbolTable
 70
     1
  0
STYLE
  5
11
330
3
100
AcDbSymbolTableRecord
100
AcDbTextStyleTableRecord
  2
STANDARD
 70
     0
 40
0.0
 41
1.0
 50
0.0
 71
     0
 42
2.5
  3
txt
  4

  0
ENDTAB
  0
TABLE
  2
VIEW
  5
6
330
0
100
AcDbSymbolTable
 70
     0
  0
ENDTAB
  0
TABLE
  2
UCS
  5
7
330
0
100
AcDbSymbolTable
 70
     0
  0
ENDTAB
  0
TABLE
  2
APPID
  5
9
330
0
100
AcDbSymbolTable
 70
     2
  0
APPID
  5
12
330
9
100
AcDbSymbolTableRecord
100
AcDbRegAppTableRecord
  2
ACAD
 70
     0
  0
ENDTAB
  0
TABLE
  2
DIMSTYLE
  5
A
330
0
100
AcDbSymbolTable
 70
     1
  0
DIMSTYLE
105
27
330
A
100
AcDbSymbolTableRecord
100
AcDbDimStyleTableRecord
  2
ISO-25
 70
     0
  3

  4

  5

  6

  7

 40
1.0
 41
2.5
 42
0.625
 43
3.75
 44
1.25
 45
0.0
 46
0.0
 47
0.0
 48
0.0
140
2.5
141
2.5
142
0.0
143
0.03937007874016
144
1.0
145
0.0
146
1.0
147
0.625
 71
     0
 72
     0
 73
     0
 74
     0
 75
     0
 76
     0
 77
     1
 78
     8
170
     0
171
     3
172
     1
173
     0
174
     0
175
     0
176
     0
177
     0
178
     0
270
     2
271
     2
272
     2
273
     2
274
     3
340
11
275
     0
280
     0
281
     0
282
     0
283
     0
284
     8
285
     0
286
     0
287
     3
288
     0
  0
ENDTAB
  0
TABLE
  2
BLOCK_RECORD
  5
1
330
0
100
AcDbSymbolTable
 70
     1
  0
BLOCK_RECORD
  5
1F
330
1
100
AcDbSymbolTableRecord
100
AcDbBlockTableRecord
  2
*MODEL_SPACE
  0
BLOCK_RECORD
  5
1B
330
1
100
AcDbSymbolTableRecord
100
AcDbBlockTableRecord
  2
*PAPER_SPACE
  0
ENDTAB
  0
ENDSEC
  0
SECTION
  2
BLOCKS
  0
BLOCK
  5
20
330
1F
100
AcDbEntity
  8
0
100
AcDbBlockBegin
  2
*MODEL_SPACE
 70
     0
 10
0.0
 20
0.0
 30
0.0
  3
*MODEL_SPACE
  1

  0
ENDBLK
  5
21
330
1F
100
AcDbEntity
  8
0
100
AcDbBlockEnd
  0
BLOCK
  5
1C
330
1B
100
AcDbEntity
 67
     1
  8
0
100
AcDbBlockBegin
  2
*PAPER_SPACE
  1

  0
ENDBLK
  5
1D
330
1B
100
AcDbEntity
 67
     1
  8
0
100
AcDbBlockEnd
  0
ENDSEC
  0
SECTION
  2
ENTITIES
  0
SPLINE
  5
100
100
AcDbEntity
  8
0
 62
7
100
AcDbSpline
 70
8
 71
3
 72
8
 73
4
 74
0
 40
0
 40
0
 40
0
 40
0
 40
1
 40
1
 40
1
 40
1
 10
-294.330043
 20
-3.430935
 30
0.0
 10
-295.381643
 20
-3.430935
 30
0.0
 10
-296.329695
 20
-4.064404
 30
0.0
 10
-296.732125
 20
-5.035955
 30
0.0
  0
SPLINE
  5
101
100
AcDbEntity
  8
0
 62
7
100
AcDbSpline
 70
8
 71
3
 72
8
 73
4
 74
0
 40
0
 40
0
 40
0
 40
0
 40
1
 40
1
 40
1
 40
1
 10
-296.732125
 20
-5.035955
 30
0.0
 10
-297.134555
 20
-6.007507
 30
0.0
 10
-296.912110
 20
-7.125811
 30
0.0
 10
-296.168517
 20
-7.869404
 30
0.0
  0
SPLINE
  5
102
100
AcDbEntity
  8
0
 62
7
100
AcDbSpline
 70
8
 71
3
 72
8
 73
4
 74
0
 40
0
 40
0
 40
0
 40
0
 40
1
 40
1
 40
1
 40
1
 10
-296.168517
 20
-7.869404
 30
0.0
 10
-295.424924
 20
-8.612998
 30
0.0
 10
-294.306620
 20
-8.835442
 30
0.0
 10
-293.335068
 20
-8.433012
 30
0.0
  0
SPLINE
  5
103
100
AcDbEntity
  8
0
 62
7
100
AcDbSpline
 70
8
 71
3
 72
8
 73
4
 74
0
 40
0
 40
0
 40
0
 40
0
 40
1
 40
1
 40
1
 40
1
 10
-293.335068
 20
-8.433012
 30
0.0
 10
-292.363517
 20
-8.030582
 30
0.0
 10
-291.730048
 20
-7.082530
 30
0.0
 10
-291.730048
 20
-6.030930
 30
0.0
  0
SPLINE
  5
104
100
AcDbEntity
  8
0
 62
7
100
AcDbSpline
 70
8
 71
3
 72
8
 73
4
 74
0
 40
0
 40
0
 40
0
 40
0
 40
1
 40
1
 40
1
 40
1
 10
-291.730048
 20
-6.030930
 30
0.0
 10
-291.730048
 20
-5.341369
 30
0.0
 10
-292.003975
 20
-4.680050
 30
0.0
 10
-292.491569
 20
-4.192456
 30
0.0
  0
SPLINE
  5
105
100
AcDbEntity
  8
0
 62
7
100
AcDbSpline
 70
8
 71
3
 72
8
 73
4
 74
0
 40
0
 40
0
 40
0
 40
0
 40
1
 40
1
 40
1
 40
1
 10
-292.491569
 20
-4.192456
 30
0.0
 10
-292.979163
 20
-3.704863
 30
0.0
 10
-293.640482
 20
-3.430935
 30
0.0
 10
-294.330043
 20
-3.430935
 30
0.0
  0
LWPOLYLINE
  5
106
100
AcDbEntity
  8
0
 62
7
100
AcDbPolyline
 90
2
 70
0
 10
-303.855120
 20
-75.086545
 30
0.0
 10
-197.294500
 20
-120.925925
 30
0.0
  0
LWPOLYLINE
  5
107
100
AcDbEntity
  8
0
 62
7
100
AcDbPolyline
 90
1
 70
1
 10
-294.330043
 20
-3.430935
 30
0.0
  0
LWPOLYLINE
  5
108
100
AcDbEntity
  8
0
 62
7
100
AcDbPolyline
 90
2
 70
0
 10
-171.102020
 20
-105.447165
 30
0.0
 10
-193.128900
 20
-120.925925
 30
0.0
  0
LWPOLYLINE
  5
109
100
AcDbEntity
  8
0
 62
7
100
AcDbPolyline
 90
2
 70
0
 10
-158.005780
 20
-105.447165
 30
0.0
 10
-171.102020
 20
-105.447165
 30
0.0
  0
LWPOLYLINE
  5
10a
100
AcDbEntity
  8
0
 62
7
100
AcDbPolyline
 90
2
 70
0
 10
-305.643280
 20
-72.704025
 30
0.0
 10
-297.307000
 20
-11.982785
 30
0.0
  0
LWPOLYLINE
  5
10b
100
AcDbEntity
  8
0
 62
7
100
AcDbPolyline
 90
2
 70
0
 10
-194.858640
 20
-127.976965
 30
0.0
 10
-315.168280
 20
-82.229025
 30
0.0
  0
LWPOLYLINE
  5
10c
100
AcDbEntity
  8
0
 62
7
100
AcDbPolyline
 90
2
 70
0
 10
-297.307000
 20
-11.982785
 30
0.0
 10
-294.927020
 20
-10.197165
 30
0.0
  0
LWPOLYLINE
  5
10d
100
AcDbEntity
  8
0
 62
7
100
AcDbPolyline
 90
2
 70
0
 10
-210.393280
 20
-13.174045
 30
0.0
 10
-174.030640
 20
-23.890305
 30
0.0
  0
LWPOLYLINE
  5
10e
100
AcDbEntity
  8
0
 62
7
100
AcDbPolyline
 90
2
 70
0
 10
-230.037640
 20
-10.197165
 30
0.0
 10
-210.393280
 20
-13.174045
 30
0.0
  0
LWPOLYLINE
  5
10f
100
AcDbEntity
  8
0
 62
7
100
AcDbPolyline
 90
2
 70
0
 10
-158.005780
 20
-105.447165
 30
0.0
 10
-135.978900
 20
-120.925925
 30
0.0
  0
LWPOLYLINE
  5
110
100
AcDbEntity
  8
0
 62
7
100
AcDbPolyline
 90
2
 70
0
 10
-155.028900
 20
-23.890305
 30
0.0
 10
-155.028900
 20
-10.791525
 30
0.0
  0
LWPOLYLINE
  5
111
100
AcDbEntity
  8
0
 62
7
100
AcDbPolyline
 90
2
 70
0
 10
-303.855120
 20
-75.086545
 30
0.0
 10
-305.643280
 20
-72.704025
 30
0.0
  0
LWPOLYLINE
  5
112
100
AcDbEntity
  8
0
 62
7
100
AcDbPolyline
 90
2
 70
0
 10
-197.294500
 20
-120.925925
 30
0.0
 10
-193.128900
 20
-120.925925
 30
0.0
  0
SPLINE
  5
113
100
AcDbEntity
  8
0
 62
7
100
AcDbSpline
 70
8
 71
3
 72
8
 73
4
 74
0
 40
0
 40
0
 40
0
 40
0
 40
1
 40
1
 40
1
 40
1
 10
-194.857624
 20
-127.979505
 30
0.0
 10
-194.686786
 20
-128.050272
 30
0.0
 10
-194.501813
 20
-128.080275
 30
0.0
 10
-194.317366
 20
-128.067135
 30
0.0
  0
LWPOLYLINE
  5
114
100
AcDbEntity
  8
0
 62
7
100
AcDbPolyline
 90
2
 70
0
 10
-230.037640
 20
-10.197165
 30
0.0
 10
-294.927020
 20
-10.197165
 30
0.0
  0
SPLINE
  5
115
100
AcDbEntity
  8
0
 62
7
100
AcDbSpline
 70
8
 71
3
 72
8
 73
4
 74
0
 40
0
 40
0
 40
0
 40
0
 40
1
 40
1
 40
1
 40
1
 10
-164.551865
 20
-115.349815
 30
0.0
 10
-165.987803
 20
-115.349815
 30
0.0
 10
-167.151860
 20
-116.513872
 30
0.0
 10
-167.151860
 20
-117.949810
 30
0.0
  0
SPLINE
  5
116
100
AcDbEntity
  8
0
 62
7
100
AcDbSpline
 70
8
 71
3
 72
8
 73
4
 74
0
 40
0
 40
0
 40
0
 40
0
 40
1
 40
1
 40
1
 40
1
 10
-167.151860
 20
-117.949810
 30
0.0
 10
-167.151860
 20
-119.385747
 30
0.0
 10
-165.987803
 20
-120.549805
 30
0.0
 10
-164.551865
 20
-120.549805
 30
0.0
  0
SPLINE
  5
117
100
AcDbEntity
  8
0
 62
7
100
AcDbSpline
 70
8
 71
3
 72
8
 73
4
 74
0
 40
0
 40
0
 40
0
 40
0
 40
1
 40
1
 40
1
 40
1
 10
-164.551865
 20
-120.549805
 30
0.0
 10
-163.115928
 20
-120.549805
 30
0.0
 10
-161.951871
 20
-119.385747
 30
0.0
 10
-161.951871
 20
-117.949810
 30
0.0
  0
SPLINE
  5
118
100
AcDbEntity
  8
0
 62
7
100
AcDbSpline
 70
8
 71
3
 72
8
 73
4
 74
0
 40
0
 40
0
 40
0
 40
0
 40
1
 40
1
 40
1
 40
1
 10
-161.951871
 20
-117.949810
 30
0.0
 10
-161.951871
 20
-117.260248
 30
0.0
 10
-162.225798
 20
-116.598929
 30
0.0
 10
-162.713392
 20
-116.111336
 30
0.0
  0
SPLINE
  5
119
100
AcDbEntity
  8
0
 62
7
100
AcDbSpline
 70
8
 71
3
 72
8
 73
4
 74
0
 40
0
 40
0
 40
0
 40
0
 40
1
 40
1
 40
1
 40
1
 10
-162.713392
 20
-116.111336
 30
0.0
 10
-163.200985
 20
-115.623742
 30
0.0
 10
-163.862304
 20
-115.349815
 30
0.0
 10
-164.551865
 20
-115.349815
 30
0.0
  0
LWPOLYLINE
  5
11a
100
AcDbEntity
  8
0
 62
7
100
AcDbPolyline
 90
2
 70
0
 10
-131.810760
 20
-120.925925
 30
0.0
 10
-135.978900
 20
-120.925925
 30
0.0
  0
LWPOLYLINE
  5
11b
100
AcDbEntity
  8
0
 62
7
100
AcDbPolyline
 90
1
 70
1
 10
-164.551865
 20
-115.349815
 30
0.0
  0
LWPOLYLINE
  5
11c
100
AcDbEntity
  8
0
 62
7
100
AcDbPolyline
 90
2
 70
0
 10
-25.201880
 20
-75.086545
 30
0.0
 10
-23.416260
 20
-72.704025
 30
0.0
  0
LWPOLYLINE
  5
11d
100
AcDbEntity
  8
0
 62
7
100
AcDbPolyline
 90
2
 70
0
 10
-144.907000
 20
-10.791525
 30
0.0
 10
-30.012640
 20
1.806875
 30
0.0
  0
LWPOLYLINE
  5
11e
100
AcDbEntity
  8
0
 62
7
100
AcDbPolyline
 90
2
 70
0
 10
-99.021900
 20
-10.197165
 30
0.0
 10
-118.666260
 20
-13.174045
 30
0.0
  0
LWPOLYLINE
  5
11f
100
AcDbEntity
  8
0
 62
7
100
AcDbPolyline
 90
2
 70
0
 10
-31.750000
 20
-11.982785
 30
0.0
 10
-34.132520
 20
-10.197165
 30
0.0
  0
LWPOLYLINE
  5
120
100
AcDbEntity
  8
0
 62
7
100
AcDbPolyline
 90
2
 70
0
 10
-155.028900
 20
-10.791525
 30
0.0
 10
-144.907000
 20
-10.791525
 30
0.0
  0
SPLINE
  5
121
100
AcDbEntity
  8
0
 62
7
100
AcDbSpline
 70
8
 71
3
 72
8
 73
4
 74
0
 40
0
 40
0
 40
0
 40
0
 40
1
 40
1
 40
1
 40
1
 10
-308.022244
 20
-74.273186
 30
0.0
 10
-309.073844
 20
-74.273186
 30
0.0
 10
-310.021896
 20
-74.906655
 30
0.0
 10
-310.424326
 20
-75.878206
 30
0.0
  0
SPLINE
  5
122
100
AcDbEntity
  8
0
 62
7
100
AcDbSpline
 70
8
 71
3
 72
8
 73
4
 74
0
 40
0
 40
0
 40
0
 40
0
 40
1
 40
1
 40
1
 40
1
 10
-310.424326
 20
-75.878206
 30
0.0
 10
-310.826756
 20
-76.849758
 30
0.0
 10
-310.604312
 20
-77.968062
 30
0.0
 10
-309.860718
 20
-78.711655
 30
0.0
  0
SPLINE
  5
123
100
AcDbEntity
  8
0
 62
7
100
AcDbSpline
 70
8
 71
3
 72
8
 73
4
 74
0
 40
0
 40
0
 40
0
 40
0
 40
1
 40
1
 40
1
 40
1
 10
-309.860718
 20
-78.711655
 30
0.0
 10
-309.117125
 20
-79.455249
 30
0.0
 10
-307.998821
 20
-79.677693
 30
0.0
 10
-307.027269
 20
-79.275263
 30
0.0
  0
SPLINE
  5
124
100
AcDbEntity
  8
0
 62
7
100
AcDbSpline
 70
8
 71
3
 72
8
 73
4
 74
0
 40
0
 40
0
 40
0
 40
0
 40
1
 40
1
 40
1
 40
1
 10
-307.027269
 20
-79.275263
 30
0.0
 10
-306.055718
 20
-78.872833
 30
0.0
 10
-305.422249
 20
-77.924781
 30
0.0
 10
-305.422249
 20
-76.873181
 30
0.0
  0
SPLINE
  5
125
100
AcDbEntity
  8
0
 62
7
100
AcDbSpline
 70
8
 71
3
 72
8
 73
4
 74
0
 40
0
 40
0
 40
0
 40
0
 40
1
 40
1
 40
1
 40
1
 10
-305.422249
 20
-76.873181
 30
0.0
 10
-305.422249
 20
-75.437244
 30
0.0
 10
-306.586307
 20
-74.273186
 30
0.0
 10
-308.022244
 20
-74.273186
 30
0.0
  0
LWPOLYLINE
  5
126
100
AcDbEntity
  8
0
 62
7
100
AcDbPolyline
 90
2
 70
0
 10
-99.021900
 20
-10.197165
 30
0.0
 10
-34.132520
 20
-10.197165
 30
0.0
  0
SPLINE
  5
127
100
AcDbEntity
  8
0
 62
7
100
AcDbSpline
 70
8
 71
3
 72
8
 73
4
 74
0
 40
0
 40
0
 40
0
 40
0
 40
1
 40
1
 40
1
 40
1
 10
-28.224480
 20
0.517500
 30
0.0
 10
-28.480683
 20
1.286111
 30
0.0
 10
-29.199912
 20
1.804596
 30
0.0
 10
-30.010100
 20
1.804734
 30
0.0
  0
SPLINE
  5
128
100
AcDbEntity
  8
0
 62
7
100
AcDbSpline
 70
8
 71
3
 72
8
 73
4
 74
0
 40
0
 40
0
 40
0
 40
0
 40
1
 40
1
 40
1
 40
1
 10
-299.092569
 20
1.804733
 30
0.0
 10
-299.902869
 20
1.804727
 30
0.0
 10
-300.622256
 20
1.286218
 30
0.0
 10
-300.878494
 20
0.517500
 30
0.0
  0
LWPOLYLINE
  5
129
100
AcDbEntity
  8
0
 62
7
100
AcDbPolyline
 90
1
 70
1
 10
-308.022244
 20
-74.273186
 30
0.0
  0
SPLINE
  5
12a
100
AcDbEntity
  8
0
 62
7
100
AcDbSpline
 70
8
 71
3
 72
8
 73
4
 74
0
 40
0
 40
0
 40
0
 40
0
 40
1
 40
1
 40
1
 40
1
 10
-21.082000
 20
-74.273186
 30
0.0
 10
-22.133600
 20
-74.273186
 30
0.0
 10
-23.081652
 20
-74.906655
 30
0.0
 10
-23.484082
 20
-75.878206
 30
0.0
  0
SPLINE
  5
12b
100
AcDbEntity
  8
0
 62
7
100
AcDbSpline
 70
8
 71
3
 72
8
 73
4
 74
0
 40
0
 40
0
 40
0
 40
0
 40
1
 40
1
 40
1
 40
1
 10
-23.484082
 20
-75.878206
 30
0.0
 10
-23.886512
 20
-76.849758
 30
0.0
 10
-23.664067
 20
-77.968062
 30
0.0
 10
-22.920474
 20
-78.711655
 30
0.0
  0
SPLINE
  5
12c
100
AcDbEntity
  8
0
 62
7
100
AcDbSpline
 70
8
 71
3
 72
8
 73
4
 74
0
 40
0
 40
0
 40
0
 40
0
 40
1
 40
1
 40
1
 40
1
 10
-22.920474
 20
-78.711655
 30
0.0
 10
-22.176881
 20
-79.455249
 30
0.0
 10
-21.058577
 20
-79.677693
 30
0.0
 10
-20.087025
 20
-79.275263
 30
0.0
  0
SPLINE
  5
12d
100
AcDbEntity
  8
0
 62
7
100
AcDbSpline
 70
8
 71
3
 72
8
 73
4
 74
0
 40
0
 40
0
 40
0
 40
0
 40
1
 40
1
 40
1
 40
1
 10
-20.087025
 20
-79.275263
 30
0.0
 10
-19.115474
 20
-78.872833
 30
0.0
 10
-18.482005
 20
-77.924781
 30
0.0
 10
-18.482005
 20
-76.873181
 30
0.0
  0
SPLINE
  5
12e
100
AcDbEntity
  8
0
 62
7
100
AcDbSpline
 70
8
 71
3
 72
8
 73
4
 74
0
 40
0
 40
0
 40
0
 40
0
 40
1
 40
1
 40
1
 40
1
 10
-18.482005
 20
-76.873181
 30
0.0
 10
-18.482005
 20
-76.183620
 30
0.0
 10
-18.755932
 20
-75.522301
 30
0.0
 10
-19.243526
 20
-75.034707
 30
0.0
  0
SPLINE
  5
12f
100
AcDbEntity
  8
0
 62
7
100
AcDbSpline
 70
8
 71
3
 72
8
 73
4
 74
0
 40
0
 40
0
 40
0
 40
0
 40
1
 40
1
 40
1
 40
1
 10
-19.243526
 20
-75.034707
 30
0.0
 10
-19.731120
 20
-74.547114
 30
0.0
 10
-20.392439
 20
-74.273186
 30
0.0
 10
-21.082000
 20
-74.273186
 30
0.0
  0
LWPOLYLINE
  5
130
100
AcDbEntity
  8
0
 62
7
100
AcDbPolyline
 90
2
 70
0
 10
-300.880780
 20
0.519095
 30
0.0
 10
-316.270640
 20
-80.580565
 30
0.0
  0
SPLINE
  5
131
100
AcDbEntity
  8
0
 62
7
100
AcDbSpline
 70
8
 71
3
 72
8
 73
4
 74
0
 40
0
 40
0
 40
0
 40
0
 40
1
 40
1
 40
1
 40
1
 10
-146.692361
 20
-14.741885
 30
0.0
 10
-147.743961
 20
-14.741885
 30
0.0
 10
-148.692013
 20
-15.375354
 30
0.0
 10
-149.094443
 20
-16.346905
 30
0.0
  0
SPLINE
  5
132
100
AcDbEntity
  8
0
 62
7
100
AcDbSpline
 70
8
 71
3
 72
8
 73
4
 74
0
 40
0
 40
0
 40
0
 40
0
 40
1
 40
1
 40
1
 40
1
 10
-149.094443
 20
-16.346905
 30
0.0
 10
-149.496873
 20
-17.318457
 30
0.0
 10
-149.274428
 20
-18.436761
 30
0.0
 10
-148.530835
 20
-19.180354
 30
0.0
  0
SPLINE
  5
133
100
AcDbEntity
  8
0
 62
7
100
AcDbSpline
 70
8
 71
3
 72
8
 73
4
 74
0
 40
0
 40
0
 40
0
 40
0
 40
1
 40
1
 40
1
 40
1
 10
-148.530835
 20
-19.180354
 30
0.0
 10
-147.787242
 20
-19.923947
 30
0.0
 10
-146.668937
 20
-20.146392
 30
0.0
 10
-145.697386
 20
-19.743962
 30
0.0
  0
SPLINE
  5
134
100
AcDbEntity
  8
0
 62
7
100
AcDbSpline
 70
8
 71
3
 72
8
 73
4
 74
0
 40
0
 40
0
 40
0
 40
0
 40
1
 40
1
 40
1
 40
1
 10
-145.697386
 20
-19.743962
 30
0.0
 10
-144.725835
 20
-19.341532
 30
0.0
 10
-144.092366
 20
-18.393480
 30
0.0
 10
-144.092366
 20
-17.341880
 30
0.0
  0
SPLINE
  5
135
100
AcDbEntity
  8
0
 62
7
100
AcDbSpline
 70
8
 71
3
 72
8
 73
4
 74
0
 40
0
 40
0
 40
0
 40
0
 40
1
 40
1
 40
1
 40
1
 10
-144.092366
 20
-17.341880
 30
0.0
 10
-144.092366
 20
-16.652319
 30
0.0
 10
-144.366293
 20
-15.991000
 30
0.0
 10
-144.853887
 20
-15.503406
 30
0.0
  0
SPLINE
  5
136
100
AcDbEntity
  8
0
 62
7
100
AcDbSpline
 70
8
 71
3
 72
8
 73
4
 74
0
 40
0
 40
0
 40
0
 40
0
 40
1
 40
1
 40
1
 40
1
 10
-144.853887
 20
-15.503406
 30
0.0
 10
-145.341481
 20
-15.015813
 30
0.0
 10
-146.002799
 20
-14.741885
 30
0.0
 10
-146.692361
 20
-14.741885
 30
0.0
  0
LWPOLYLINE
  5
137
100
AcDbEntity
  8
0
 62
7
100
AcDbPolyline
 90
1
 70
1
 10
-21.082000
 20
-74.273186
 30
0.0
  0
LWPOLYLINE
  5
138
100
AcDbEntity
  8
0
 62
7
100
AcDbPolyline
 90
1
 70
1
 10
-146.692361
 20
-14.741885
 30
0.0
  0
SPLINE
  5
139
100
AcDbEntity
  8
0
 62
7
100
AcDbSpline
 70
8
 71
3
 72
8
 73
4
 74
0
 40
0
 40
0
 40
0
 40
0
 40
1
 40
1
 40
1
 40
1
 10
-34.772600
 20
-3.430935
 30
0.0
 10
-35.824200
 20
-3.430935
 30
0.0
 10
-36.772252
 20
-4.064404
 30
0.0
 10
-37.174682
 20
-5.035955
 30
0.0
  0
SPLINE
  5
13a
100
AcDbEntity
  8
0
 62
7
100
AcDbSpline
 70
8
 71
3
 72
8
 73
4
 74
0
 40
0
 40
0
 40
0
 40
0
 40
1
 40
1
 40
1
 40
1
 10
-37.174682
 20
-5.035955
 30
0.0
 10
-37.577112
 20
-6.007507
 30
0.0
 10
-37.354667
 20
-7.125811
 30
0.0
 10
-36.611074
 20
-7.869404
 30
0.0
  0
SPLINE
  5
13b
100
AcDbEntity
  8
0
 62
7
100
AcDbSpline
 70
8
 71
3
 72
8
 73
4
 74
0
 40
0
 40
0
 40
0
 40
0
 40
1
 40
1
 40
1
 40
1
 10
-36.611074
 20
-7.869404
 30
0.0
 10
-35.867481
 20
-8.612998
 30
0.0
 10
-34.749177
 20
-8.835442
 30
0.0
 10
-33.777625
 20
-8.433012
 30
0.0
  0
SPLINE
  5
13c
100
AcDbEntity
  8
0
 62
7
100
AcDbSpline
 70
8
 71
3
 72
8
 73
4
 74
0
 40
0
 40
0
 40
0
 40
0
 40
1
 40
1
 40
1
 40
1
 10
-33.777625
 20
-8.433012
 30
0.0
 10
-32.806074
 20
-8.030582
 30
0.0
 10
-32.172605
 20
-7.082530
 30
0.0
 10
-32.172605
 20
-6.030930
 30
0.0
  0
SPLINE
  5
13d
100
AcDbEntity
  8
0
 62
7
100
AcDbSpline
 70
8
 71
3
 72
8
 73
4
 74
0
 40
0
 40
0
 40
0
 40
0
 40
1
 40
1
 40
1
 40
1
 10
-32.172605
 20
-6.030930
 30
0.0
 10
-32.172605
 20
-5.341369
 30
0.0
 10
-32.446532
 20
-4.680050
 30
0.0
 10
-32.934126
 20
-4.192456
 30
0.0
  0
SPLINE
  5
13e
100
AcDbEntity
  8
0
 62
7
100
AcDbSpline
 70
8
 71
3
 72
8
 73
4
 74
0
 40
0
 40
0
 40
0
 40
0
 40
1
 40
1
 40
1
 40
1
 10
-32.934126
 20
-4.192456
 30
0.0
 10
-33.421720
 20
-3.704863
 30
0.0
 10
-34.083039
 20
-3.430935
 30
0.0
 10
-34.772600
 20
-3.430935
 30
0.0
  0
LWPOLYLINE
  5
13f
100
AcDbEntity
  8
0
 62
7
100
AcDbPolyline
 90
2
 70
0
 10
-174.030640
 20
-10.791525
 30
0.0
 10
-184.198260
 20
-10.791525
 30
0.0
  0
LWPOLYLINE
  5
140
100
AcDbEntity
  8
0
 62
7
100
AcDbPolyline
 90
1
 70
1
 10
-34.772600
 20
-3.430935
 30
0.0
  0
SPLINE
  5
141
100
AcDbEntity
  8
0
 62
7
100
AcDbSpline
 70
8
 71
3
 72
8
 73
4
 74
0
 40
0
 40
0
 40
0
 40
0
 40
1
 40
1
 40
1
 40
1
 10
-182.363615
 20
-14.741885
 30
0.0
 10
-183.415215
 20
-14.741885
 30
0.0
 10
-184.363268
 20
-15.375354
 30
0.0
 10
-184.765697
 20
-16.346905
 30
0.0
  0
SPLINE
  5
142
100
AcDbEntity
  8
0
 62
7
100
AcDbSpline
 70
8
 71
3
 72
8
 73
4
 74
0
 40
0
 40
0
 40
0
 40
0
 40
1
 40
1
 40
1
 40
1
 10
-184.765697
 20
-16.346905
 30
0.0
 10
-185.168127
 20
-17.318457
 30
0.0
 10
-184.945683
 20
-18.436761
 30
0.0
 10
-184.202089
 20
-19.180354
 30
0.0
  0
SPLINE
  5
143
100
AcDbEntity
  8
0
 62
7
100
AcDbSpline
 70
8
 71
3
 72
8
 73
4
 74
0
 40
0
 40
0
 40
0
 40
0
 40
1
 40
1
 40
1
 40
1
 10
-184.202089
 20
-19.180354
 30
0.0
 10
-183.458496
 20
-19.923947
 30
0.0
 10
-182.340192
 20
-20.146392
 30
0.0
 10
-181.368641
 20
-19.743962
 30
0.0
  0
SPLINE
  5
144
100
AcDbEntity
  8
0
 62
7
100
AcDbSpline
 70
8
 71
3
 72
8
 73
4
 74
0
 40
0
 40
0
 40
0
 40
0
 40
1
 40
1
 40
1
 40
1
 10
-181.368641
 20
-19.743962
 30
0.0
 10
-180.397089
 20
-19.341532
 30
0.0
 10
-179.763621
 20
-18.393480
 30
0.0
 10
-179.763621
 20
-17.341880
 30
0.0
  0
SPLINE
  5
145
100
AcDbEntity
  8
0
 62
7
100
AcDbSpline
 70
8
 71
3
 72
8
 73
4
 74
0
 40
0
 40
0
 40
0
 40
0
 40
1
 40
1
 40
1
 40
1
 10
-179.763621
 20
-17.341880
 30
0.0
 10
-179.763621
 20
-16.652319
 30
0.0
 10
-180.037548
 20
-15.991000
 30
0.0
 10
-180.525142
 20
-15.503406
 30
0.0
  0
SPLINE
  5
146
100
AcDbEntity
  8
0
 62
7
100
AcDbSpline
 70
8
 71
3
 72
8
 73
4
 74
0
 40
0
 40
0
 40
0
 40
0
 40
1
 40
1
 40
1
 40
1
 10
-180.525142
 20
-15.503406
 30
0.0
 10
-181.012735
 20
-15.015813
 30
0.0
 10
-181.674054
 20
-14.741885
 30
0.0
 10
-182.363615
 20
-14.741885
 30
0.0
  0
LWPOLYLINE
  5
147
100
AcDbEntity
  8
0
 62
7
100
AcDbPolyline
 90
2
 70
0
 10
-194.317620
 20
-128.065865
 30
0.0
 10
-134.787640
 20
-128.065865
 30
0.0
  0
LWPOLYLINE
  5
148
100
AcDbEntity
  8
0
 62
7
100
AcDbPolyline
 90
1
 70
1
 10
-182.363615
 20
-14.741885
 30
0.0
  0
LWPOLYLINE
  5
149
100
AcDbEntity
  8
0
 62
7
100
AcDbPolyline
 90
2
 70
0
 10
-23.416260
 20
-72.704025
 30
0.0
 10
-31.750000
 20
-11.982785
 30
0.0
  0
SPLINE
  5
14a
100
AcDbEntity
  8
0
 62
7
100
AcDbSpline
 70
8
 71
3
 72
8
 73
4
 74
0
 40
0
 40
0
 40
0
 40
0
 40
1
 40
1
 40
1
 40
1
 10
-134.786116
 20
-128.067135
 30
0.0
 10
-134.601753
 20
-128.080235
 30
0.0
 10
-134.416872
 20
-128.050233
 30
0.0
 10
-134.246112
 20
-127.979505
 30
0.0
  0
LWPOLYLINE
  5
14b
100
AcDbEntity
  8
0
 62
7
100
AcDbPolyline
 90
2
 70
0
 10
-184.198260
 20
-10.791525
 30
0.0
 10
-299.092620
 20
1.806875
 30
0.0
  0
LWPOLYLINE
  5
14c
100
AcDbEntity
  8
0
 62
7
100
AcDbPolyline
 90
2
 70
0
 10
-28.227020
 20
0.519095
 30
0.0
 10
-12.837160
 20
-80.580565
 30
0.0
  0
LWPOLYLINE
  5
14d
100
AcDbEntity
  8
0
 62
7
100
AcDbPolyline
 90
2
 70
0
 10
-118.666260
 20
-13.174045
 30
0.0
 10
-155.028900
 20
-23.890305
 30
0.0
  0
LWPOLYLINE
  5
14e
100
AcDbEntity
  8
0
 62
7
100
AcDbPolyline
 90
2
 70
0
 10
-174.030640
 20
-10.791525
 30
0.0
 10
-174.030640
 20
-23.890305
 30
0.0
  0
SPLINE
  5
14f
100
AcDbEntity
  8
0
 62
7
100
AcDbSpline
 70
8
 71
3
 72
8
 73
4
 74
0
 40
0
 40
0
 40
0
 40
0
 40
1
 40
1
 40
1
 40
1
 10
-13.936980
 20
-82.231057
 30
0.0
 10
-13.269674
 20
-81.954589
 30
0.0
 10
-12.834601
 20
-81.303384
 30
0.0
 10
-12.834620
 20
-80.581073
 30
0.0
  0
LWPOLYLINE
  5
150
100
AcDbEntity
  8
0
 62
7
100
AcDbPolyline
 90
2
 70
0
 10
-25.201880
 20
-75.086545
 30
0.0
 10
-131.762500
 20
-120.925925
 30
0.0
  0
SPLINE
  5
151
100
AcDbEntity
  8
0
 62
7
100
AcDbSpline
 70
8
 71
3
 72
8
 73
4
 74
0
 40
0
 40
0
 40
0
 40
0
 40
1
 40
1
 40
1
 40
1
 10
-316.268499
 20
-80.581073
 30
0.0
 10
-316.268496
 20
-81.303415
 30
0.0
 10
-315.833366
 20
-81.954629
 30
0.0
 10
-315.166009
 20
-82.231057
 30
0.0
  0
LWPOLYLINE
  5
152
100
AcDbEntity
  8
0
 62
7
100
AcDbPolyline
 90
2
 70
0
 10
-134.246620
 20
-127.976965
 30
0.0
 10
-13.939520
 20
-82.229025
 30
0.0
  0
ENDSEC
  0
SECTION
  2
OBJECTS
  0
DICTIONARY
  5
C
330
0
100
AcDbDictionary
  3
ACAD_GROUP
350
D
  3
ACAD_MLINESTYLE
350
17
  0
DICTIONARY
  5
D
330
C
100
AcDbDictionary
  0
DICTIONARY
  5
1A
330
C
100
AcDbDictionary
  0
DICTIONARY
  5
17
330
C
100
AcDbDictionary
  3
STANDARD
350
18
  0
DICTIONARY
  5
19
330
C
100
AcDbDictionary
  0
ENDSEC
  0
EOF
