  0
SECTION
  2
HEADER
  9
$ACADVER
  1
AC1014
  9
$HANDSEED
  5
FFFF
  9
$MEASUREMENT
 70
     1
  0
ENDSEC
  0
SECTION
  2
TABLES
  0
TABLE
  2
VPORT
  5
8
330
0
100
AcDbSymbolTable
 70
     4
  0
VPORT
  5
2E
330
8
100
AcDbSymbolTableRecord
100
AcDbViewportTableRecord
  2
*ACTIVE
 70
     0
 10
0.0
 20
0.0
 11
1.0
 21
1.0
 12
210.0
 22
148.5
 13
0.0
 23
0.0
 14
10.0
 24
10.0
 15
10.0
 25
10.0
 16
0.0
 26
0.0
 36
1.0
 17
0.0
 27
0.0
 37
0.0
 40
341.0
 41
1.24
 42
50.0
 43
0.0
 44
0.0
 50
0.0
 51
0.0
 71
     0
 72
   100
 73
     1
 74
     3
 75
     0
 76
     0
 77
     0
 78
     0
  0
ENDTAB
  0
TABLE
  2
LTYPE
  5
5
330
0
100
AcDbSymbolTable
 70
     1
  0
LTYPE
  5
14
330
5
100
AcDbSymbolTableRecord
100
AcDbLinetypeTableRecord
  2
BYBLOCK
 70
     0
  3

 72
    65
 73
     0
 40
0.0
  0
LTYPE
  5
15
330
5
100
AcDbSymbolTableRecord
100
AcDbLinetypeTableRecord
  2
BYLAYER
 70
     0
  3

 72
    65
 73
     0
 40
0.0
  0
LTYPE
  5
16
330
5
100
AcDbSymbolTableRecord
100
AcDbLinetypeTableRecord
  2
CONTINUOUS
 70
     0
  3
Solid line
 72
    65
 73
     0
 40
0.0
  0
ENDTAB
  0
TABLE
  2
LAYER
  5
2
100
AcDbSymbolTable
 70
1
  0
LAYER
  5
50
100
AcDbSymbolTableRecord
100
AcDbLayerTableRecord
  2
0
 70
0
  6
CONTINUOUS
  0
ENDTAB
  0
TABLE
  2
STYLE
  5
3
330
0
100
AcDbSymbolTable
 70
     1
  0
STYLE
  5
11
330
3
100
AcDbSymbolTableRecord
100
AcDbTextStyleTableRecord
  2
STANDARD
 70
     0
 40
0.0
 41
1.0
 50
0.0
 71
     0
 42
2.5
  3
txt
  4

  0
ENDTAB
  0
TABLE
  2
VIEW
  5
6
330
0
100
AcDbSymbolTable
 70
     0
  0
ENDTAB
  0
TABLE
  2
UCS
  5
7
330
0
100
AcDbSymbolTable
 70
     0
  0
ENDTAB
  0
TABLE
  2
APPID
  5
9
330
0
100
AcDbSymbolTable
 70
     2
  0
APPID
  5
12
330
9
100
AcDbSymbolTableRecord
100
AcDbRegAppTableRecord
  2
ACAD
 70
     0
  0
ENDTAB
  0
TABLE
  2
DIMSTYLE
  5
A
330
0
100
AcDbSymbolTable
 70
     1
  0
DIMSTYLE
105
27
330
A
100
AcDbSymbolTableRecord
100
AcDbDimStyleTableRecord
  2
ISO-25
 70
     0
  3

  4

  5

  6

  7

 40
1.0
 41
2.5
 42
0.625
 43
3.75
 44
1.25
 45
0.0
 46
0.0
 47
0.0
 48
0.0
140
2.5
141
2.5
142
0.0
143
0.03937007874016
144
1.0
145
0.0
146
1.0
147
0.625
 71
     0
 72
     0
 73
     0
 74
     0
 75
     0
 76
     0
 77
     1
 78
     8
170
     0
171
     3
172
     1
173
     0
174
     0
175
     0
176
     0
177
     0
178
     0
270
     2
271
     2
272
     2
273
     2
274
     3
340
11
275
     0
280
     0
281
     0
282
     0
283
     0
284
     8
285
     0
286
     0
287
     3
288
     0
  0
ENDTAB
  0
TABLE
  2
BLOCK_RECORD
  5
1
330
0
100
AcDbSymbolTable
 70
     1
  0
BLOCK_RECORD
  5
1F
330
1
100
AcDbSymbolTableRecord
100
AcDbBlockTableRecord
  2
*MODEL_SPACE
  0
BLOCK_RECORD
  5
1B
330
1
100
AcDbSymbolTableRecord
100
AcDbBlockTableRecord
  2
*PAPER_SPACE
  0
ENDTAB
  0
ENDSEC
  0
SECTION
  2
BLOCKS
  0
BLOCK
  5
20
330
1F
100
AcDbEntity
  8
0
100
AcDbBlockBegin
  2
*MODEL_SPACE
 70
     0
 10
0.0
 20
0.0
 30
0.0
  3
*MODEL_SPACE
  1

  0
ENDBLK
  5
21
330
1F
100
AcDbEntity
  8
0
100
AcDbBlockEnd
  0
BLOCK
  5
1C
330
1B
100
AcDbEntity
 67
     1
  8
0
100
AcDbBlockBegin
  2
*PAPER_SPACE
  1

  0
ENDBLK
  5
1D
330
1B
100
AcDbEntity
 67
     1
  8
0
100
AcDbBlockEnd
  0
ENDSEC
  0
SECTION
  2
ENTITIES
  0
LWPOLYLINE
  5
100
100
AcDbEntity
  8
0
 62
7
100
AcDbPolyline
 90
2
 70
0
 10
193.062860
 20
-102.631138
 30
0.0
 10
211.223860
 20
-98.186138
 30
0.0
  0
LWPOLYLINE
  5
101
100
AcDbEntity
  8
0
 62
7
100
AcDbPolyline
 90
2
 70
0
 10
193.062860
 20
-102.631138
 30
0.0
 10
181.803040
 20
-118.061638
 30
0.0
  0
LWPOLYLINE
  5
102
100
AcDbEntity
  8
0
 62
7
100
AcDbPolyline
 90
2
 70
0
 10
110.639860
 20
-102.504138
 30
0.0
 10
92.478860
 20
-98.059138
 30
0.0
  0
LWPOLYLINE
  5
103
100
AcDbEntity
  8
0
 62
7
100
AcDbPolyline
 90
2
 70
0
 10
181.803040
 20
-118.061638
 30
0.0
 10
181.432200
 20
-118.061638
 30
0.0
  0
LWPOLYLINE
  5
104
100
AcDbEntity
  8
0
 62
7
100
AcDbPolyline
 90
2
 70
0
 10
121.899680
 20
-117.934638
 30
0.0
 10
122.270520
 20
-117.934638
 30
0.0
  0
LWPOLYLINE
  5
105
100
AcDbEntity
  8
0
 62
7
100
AcDbPolyline
 90
2
 70
0
 10
110.639860
 20
-102.504138
 30
0.0
 10
121.899680
 20
-117.934638
 30
0.0
  0
LWPOLYLINE
  5
106
100
AcDbEntity
  8
0
 62
7
100
AcDbPolyline
 90
2
 70
0
 10
14.617700
 20
-71.203718
 30
0.0
 10
92.478860
 20
-98.059138
 30
0.0
  0
LWPOLYLINE
  5
107
100
AcDbEntity
  8
0
 62
7
100
AcDbPolyline
 90
2
 70
0
 10
161.312860
 20
-28.341218
 30
0.0
 10
161.312860
 20
-11.374018
 30
0.0
  0
LWPOLYLINE
  5
108
100
AcDbEntity
  8
0
 62
7
100
AcDbPolyline
 90
2
 70
0
 10
161.312860
 20
-28.341218
 30
0.0
 10
198.142860
 20
-17.624958
 30
0.0
  0
SPLINE
  5
109
100
AcDbEntity
  8
0
 62
7
100
AcDbSpline
 70
8
 71
3
 72
8
 73
4
 74
0
 40
0
 40
0
 40
0
 40
0
 40
1
 40
1
 40
1
 40
1
 10
21.963456
 20
-4.013429
 30
0.0
 10
20.911856
 20
-4.013429
 30
0.0
 10
19.963804
 20
-4.646897
 30
0.0
 10
19.561374
 20
-5.618448
 30
0.0
  0
SPLINE
  5
10a
100
AcDbEntity
  8
0
 62
7
100
AcDbSpline
 70
8
 71
3
 72
8
 73
4
 74
0
 40
0
 40
0
 40
0
 40
0
 40
1
 40
1
 40
1
 40
1
 10
19.561374
 20
-5.618448
 30
0.0
 10
19.158944
 20
-6.590000
 30
0.0
 10
19.381389
 20
-7.708304
 30
0.0
 10
20.124982
 20
-8.451897
 30
0.0
  0
SPLINE
  5
10b
100
AcDbEntity
  8
0
 62
7
100
AcDbSpline
 70
8
 71
3
 72
8
 73
4
 74
0
 40
0
 40
0
 40
0
 40
0
 40
1
 40
1
 40
1
 40
1
 10
20.124982
 20
-8.451897
 30
0.0
 10
20.868576
 20
-9.195491
 30
0.0
 10
21.986880
 20
-9.417935
 30
0.0
 10
22.958431
 20
-9.015505
 30
0.0
  0
SPLINE
  5
10c
100
AcDbEntity
  8
0
 62
7
100
AcDbSpline
 70
8
 71
3
 72
8
 73
4
 74
0
 40
0
 40
0
 40
0
 40
0
 40
1
 40
1
 40
1
 40
1
 10
22.958431
 20
-9.015505
 30
0.0
 10
23.929983
 20
-8.613076
 30
0.0
 10
24.563451
 20
-7.665023
 30
0.0
 10
24.563451
 20
-6.613423
 30
0.0
  0
SPLINE
  5
10d
100
AcDbEntity
  8
0
 62
7
100
AcDbSpline
 70
8
 71
3
 72
8
 73
4
 74
0
 40
0
 40
0
 40
0
 40
0
 40
1
 40
1
 40
1
 40
1
 10
24.563451
 20
-6.613423
 30
0.0
 10
24.563451
 20
-5.923862
 30
0.0
 10
24.289524
 20
-5.262543
 30
0.0
 10
23.801930
 20
-4.774949
 30
0.0
  0
SPLINE
  5
10e
100
AcDbEntity
  8
0
 62
7
100
AcDbSpline
 70
8
 71
3
 72
8
 73
4
 74
0
 40
0
 40
0
 40
0
 40
0
 40
1
 40
1
 40
1
 40
1
 10
23.801930
 20
-4.774949
 30
0.0
 10
23.314337
 20
-4.287356
 30
0.0
 10
22.653018
 20
-4.013429
 30
0.0
 10
21.963456
 20
-4.013429
 30
0.0
  0
LWPOLYLINE
  5
10f
100
AcDbEntity
  8
0
 62
7
100
AcDbPolyline
 90
2
 70
0
 10
217.192860
 20
-14.648078
 30
0.0
 10
280.126440
 20
-14.350898
 30
0.0
  0
LWPOLYLINE
  5
110
100
AcDbEntity
  8
0
 62
7
100
AcDbPolyline
 90
1
 70
1
 10
21.963456
 20
-4.013429
 30
0.0
  0
LWPOLYLINE
  5
111
100
AcDbEntity
  8
0
 62
7
100
AcDbPolyline
 90
2
 70
0
 10
171.386500
 20
-11.374018
 30
0.0
 10
286.280860
 20
1.224382
 30
0.0
  0
LWPOLYLINE
  5
112
100
AcDbEntity
  8
0
 62
7
100
AcDbPolyline
 90
2
 70
0
 10
86.382860
 20
-14.648078
 30
0.0
 10
105.432860
 20
-17.624958
 30
0.0
  0
SPLINE
  5
113
100
AcDbEntity
  8
0
 62
7
100
AcDbSpline
 70
8
 71
3
 72
8
 73
4
 74
0
 40
0
 40
0
 40
0
 40
0
 40
1
 40
1
 40
1
 40
1
 10
133.929882
 20
-15.324379
 30
0.0
 10
132.878282
 20
-15.324379
 30
0.0
 10
131.930230
 20
-15.957847
 30
0.0
 10
131.527800
 20
-16.929399
 30
0.0
  0
SPLINE
  5
114
100
AcDbEntity
  8
0
 62
7
100
AcDbSpline
 70
8
 71
3
 72
8
 73
4
 74
0
 40
0
 40
0
 40
0
 40
0
 40
1
 40
1
 40
1
 40
1
 10
131.527800
 20
-16.929399
 30
0.0
 10
131.125370
 20
-17.900950
 30
0.0
 10
131.347815
 20
-19.019254
 30
0.0
 10
132.091408
 20
-19.762848
 30
0.0
  0
SPLINE
  5
115
100
AcDbEntity
  8
0
 62
7
100
AcDbSpline
 70
8
 71
3
 72
8
 73
4
 74
0
 40
0
 40
0
 40
0
 40
0
 40
1
 40
1
 40
1
 40
1
 10
132.091408
 20
-19.762848
 30
0.0
 10
132.835001
 20
-20.506441
 30
0.0
 10
133.953305
 20
-20.728885
 30
0.0
 10
134.924857
 20
-20.326456
 30
0.0
  0
SPLINE
  5
116
100
AcDbEntity
  8
0
 62
7
100
AcDbSpline
 70
8
 71
3
 72
8
 73
4
 74
0
 40
0
 40
0
 40
0
 40
0
 40
1
 40
1
 40
1
 40
1
 10
134.924857
 20
-20.326456
 30
0.0
 10
135.896408
 20
-19.924026
 30
0.0
 10
136.529877
 20
-18.975973
 30
0.0
 10
136.529877
 20
-17.924374
 30
0.0
  0
SPLINE
  5
117
100
AcDbEntity
  8
0
 62
7
100
AcDbSpline
 70
8
 71
3
 72
8
 73
4
 74
0
 40
0
 40
0
 40
0
 40
0
 40
1
 40
1
 40
1
 40
1
 10
136.529877
 20
-17.924374
 30
0.0
 10
136.529877
 20
-16.488436
 30
0.0
 10
135.365819
 20
-15.324379
 30
0.0
 10
133.929882
 20
-15.324379
 30
0.0
  0
LWPOLYLINE
  5
118
100
AcDbEntity
  8
0
 62
7
100
AcDbPolyline
 90
2
 70
0
 10
122.270520
 20
-117.934638
 30
0.0
 10
145.310860
 20
-101.564338
 30
0.0
  0
SPLINE
  5
119
100
AcDbEntity
  8
0
 62
7
100
AcDbSpline
 70
8
 71
3
 72
8
 73
4
 74
0
 40
0
 40
0
 40
0
 40
0
 40
1
 40
1
 40
1
 40
1
 10
302.356520
 20
-82.813550
 30
0.0
 10
303.023826
 20
-82.537082
 30
0.0
 10
303.458899
 20
-81.885877
 30
0.0
 10
303.458880
 20
-81.163566
 30
0.0
  0
LWPOLYLINE
  5
11a
100
AcDbEntity
  8
0
 62
7
100
AcDbPolyline
 90
1
 70
1
 10
133.929882
 20
-15.324379
 30
0.0
  0
LWPOLYLINE
  5
11b
100
AcDbEntity
  8
0
 62
7
100
AcDbPolyline
 90
2
 70
0
 10
121.975880
 20
-128.648358
 30
0.0
 10
181.505860
 20
-128.648358
 30
0.0
  0
SPLINE
  5
11c
100
AcDbEntity
  8
0
 62
7
100
AcDbSpline
 70
8
 71
3
 72
8
 73
4
 74
0
 40
0
 40
0
 40
0
 40
0
 40
1
 40
1
 40
1
 40
1
 10
169.601134
 20
-15.324379
 30
0.0
 10
168.549534
 20
-15.324379
 30
0.0
 10
167.601482
 20
-15.957847
 30
0.0
 10
167.199052
 20
-16.929399
 30
0.0
  0
SPLINE
  5
11d
100
AcDbEntity
  8
0
 62
7
100
AcDbSpline
 70
8
 71
3
 72
8
 73
4
 74
0
 40
0
 40
0
 40
0
 40
0
 40
1
 40
1
 40
1
 40
1
 10
167.199052
 20
-16.929399
 30
0.0
 10
166.796622
 20
-17.900950
 30
0.0
 10
167.019067
 20
-19.019254
 30
0.0
 10
167.762660
 20
-19.762848
 30
0.0
  0
SPLINE
  5
11e
100
AcDbEntity
  8
0
 62
7
100
AcDbSpline
 70
8
 71
3
 72
8
 73
4
 74
0
 40
0
 40
0
 40
0
 40
0
 40
1
 40
1
 40
1
 40
1
 10
167.762660
 20
-19.762848
 30
0.0
 10
168.506253
 20
-20.506441
 30
0.0
 10
169.624557
 20
-20.728885
 30
0.0
 10
170.596109
 20
-20.326456
 30
0.0
  0
SPLINE
  5
11f
100
AcDbEntity
  8
0
 62
7
100
AcDbSpline
 70
8
 71
3
 72
8
 73
4
 74
0
 40
0
 40
0
 40
0
 40
0
 40
1
 40
1
 40
1
 40
1
 10
170.596109
 20
-20.326456
 30
0.0
 10
171.567660
 20
-19.924026
 30
0.0
 10
172.201129
 20
-18.975973
 30
0.0
 10
172.201129
 20
-17.924374
 30
0.0
  0
SPLINE
  5
120
100
AcDbEntity
  8
0
 62
7
100
AcDbSpline
 70
8
 71
3
 72
8
 73
4
 74
0
 40
0
 40
0
 40
0
 40
0
 40
1
 40
1
 40
1
 40
1
 10
172.201129
 20
-17.924374
 30
0.0
 10
172.201129
 20
-17.234812
 30
0.0
 10
171.927202
 20
-16.573493
 30
0.0
 10
171.439608
 20
-16.085900
 30
0.0
  0
SPLINE
  5
121
100
AcDbEntity
  8
0
 62
7
100
AcDbSpline
 70
8
 71
3
 72
8
 73
4
 74
0
 40
0
 40
0
 40
0
 40
0
 40
1
 40
1
 40
1
 40
1
 10
171.439608
 20
-16.085900
 30
0.0
 10
170.952014
 20
-15.598306
 30
0.0
 10
170.290695
 20
-15.324379
 30
0.0
 10
169.601134
 20
-15.324379
 30
0.0
  0
LWPOLYLINE
  5
122
100
AcDbEntity
  8
0
 62
7
100
AcDbPolyline
 90
2
 70
0
 10
145.310860
 20
-101.564338
 30
0.0
 10
158.287720
 20
-101.564338
 30
0.0
  0
LWPOLYLINE
  5
123
100
AcDbEntity
  8
0
 62
7
100
AcDbPolyline
 90
1
 70
1
 10
169.601134
 20
-15.324379
 30
0.0
  0
LWPOLYLINE
  5
124
100
AcDbEntity
  8
0
 62
7
100
AcDbPolyline
 90
2
 70
0
 10
142.262860
 20
-28.341218
 30
0.0
 10
105.432860
 20
-17.624958
 30
0.0
  0
LWPOLYLINE
  5
125
100
AcDbEntity
  8
0
 62
7
100
AcDbPolyline
 90
2
 70
0
 10
142.262860
 20
-11.374018
 30
0.0
 10
132.095240
 20
-11.374018
 30
0.0
  0
SPLINE
  5
126
100
AcDbEntity
  8
0
 62
7
100
AcDbSpline
 70
8
 71
3
 72
8
 73
4
 74
0
 40
0
 40
0
 40
0
 40
0
 40
1
 40
1
 40
1
 40
1
 10
181.507384
 20
-128.649628
 30
0.0
 10
181.691747
 20
-128.662728
 30
0.0
 10
181.876628
 20
-128.632726
 30
0.0
 10
182.047388
 20
-128.561998
 30
0.0
  0
SPLINE
  5
127
100
AcDbEntity
  8
0
 62
7
100
AcDbSpline
 70
8
 71
3
 72
8
 73
4
 74
0
 40
0
 40
0
 40
0
 40
0
 40
1
 40
1
 40
1
 40
1
 10
281.520900
 20
-4.013429
 30
0.0
 10
280.469300
 20
-4.013429
 30
0.0
 10
279.521248
 20
-4.646897
 30
0.0
 10
279.118818
 20
-5.618448
 30
0.0
  0
SPLINE
  5
128
100
AcDbEntity
  8
0
 62
7
100
AcDbSpline
 70
8
 71
3
 72
8
 73
4
 74
0
 40
0
 40
0
 40
0
 40
0
 40
1
 40
1
 40
1
 40
1
 10
279.118818
 20
-5.618448
 30
0.0
 10
278.716388
 20
-6.590000
 30
0.0
 10
278.938833
 20
-7.708304
 30
0.0
 10
279.682426
 20
-8.451897
 30
0.0
  0
SPLINE
  5
129
100
AcDbEntity
  8
0
 62
7
100
AcDbSpline
 70
8
 71
3
 72
8
 73
4
 74
0
 40
0
 40
0
 40
0
 40
0
 40
1
 40
1
 40
1
 40
1
 10
279.682426
 20
-8.451897
 30
0.0
 10
280.426019
 20
-9.195491
 30
0.0
 10
281.544323
 20
-9.417935
 30
0.0
 10
282.515875
 20
-9.015505
 30
0.0
  0
SPLINE
  5
12a
100
AcDbEntity
  8
0
 62
7
100
AcDbSpline
 70
8
 71
3
 72
8
 73
4
 74
0
 40
0
 40
0
 40
0
 40
0
 40
1
 40
1
 40
1
 40
1
 10
282.515875
 20
-9.015505
 30
0.0
 10
283.487426
 20
-8.613076
 30
0.0
 10
284.120895
 20
-7.665023
 30
0.0
 10
284.120895
 20
-6.613423
 30
0.0
  0
SPLINE
  5
12b
100
AcDbEntity
  8
0
 62
7
100
AcDbSpline
 70
8
 71
3
 72
8
 73
4
 74
0
 40
0
 40
0
 40
0
 40
0
 40
1
 40
1
 40
1
 40
1
 10
284.120895
 20
-6.613423
 30
0.0
 10
284.120895
 20
-5.923862
 30
0.0
 10
283.846968
 20
-5.262543
 30
0.0
 10
283.359374
 20
-4.774949
 30
0.0
  0
SPLINE
  5
12c
100
AcDbEntity
  8
0
 62
7
100
AcDbSpline
 70
8
 71
3
 72
8
 73
4
 74
0
 40
0
 40
0
 40
0
 40
0
 40
1
 40
1
 40
1
 40
1
 10
283.359374
 20
-4.774949
 30
0.0
 10
282.871780
 20
-4.287356
 30
0.0
 10
282.210461
 20
-4.013429
 30
0.0
 10
281.520900
 20
-4.013429
 30
0.0
  0
LWPOLYLINE
  5
12d
100
AcDbEntity
  8
0
 62
7
100
AcDbPolyline
 90
2
 70
0
 10
121.434860
 20
-128.559458
 30
0.0
 10
1.125220
 20
-82.811518
 30
0.0
  0
LWPOLYLINE
  5
12e
100
AcDbEntity
  8
0
 62
7
100
AcDbPolyline
 90
1
 70
1
 10
281.520900
 20
-4.013429
 30
0.0
  0
LWPOLYLINE
  5
12f
100
AcDbEntity
  8
0
 62
7
100
AcDbPolyline
 90
2
 70
0
 10
198.142860
 20
-17.624958
 30
0.0
 10
217.192860
 20
-14.648078
 30
0.0
  0
SPLINE
  5
130
100
AcDbEntity
  8
0
 62
7
100
AcDbSpline
 70
8
 71
3
 72
8
 73
4
 74
0
 40
0
 40
0
 40
0
 40
0
 40
1
 40
1
 40
1
 40
1
 10
288.069020
 20
-0.064994
 30
0.0
 10
287.812817
 20
0.703618
 30
0.0
 10
287.093588
 20
1.222103
 30
0.0
 10
286.283400
 20
1.222241
 30
0.0
  0
SPLINE
  5
131
100
AcDbEntity
  8
0
 62
7
100
AcDbSpline
 70
8
 71
3
 72
8
 73
4
 74
0
 40
0
 40
0
 40
0
 40
0
 40
1
 40
1
 40
1
 40
1
 10
8.271256
 20
-74.855680
 30
0.0
 10
7.219656
 20
-74.855680
 30
0.0
 10
6.271604
 20
-75.489148
 30
0.0
 10
5.869174
 20
-76.460699
 30
0.0
  0
SPLINE
  5
132
100
AcDbEntity
  8
0
 62
7
100
AcDbSpline
 70
8
 71
3
 72
8
 73
4
 74
0
 40
0
 40
0
 40
0
 40
0
 40
1
 40
1
 40
1
 40
1
 10
5.869174
 20
-76.460699
 30
0.0
 10
5.466744
 20
-77.432251
 30
0.0
 10
5.689189
 20
-78.550555
 30
0.0
 10
6.432782
 20
-79.294148
 30
0.0
  0
SPLINE
  5
133
100
AcDbEntity
  8
0
 62
7
100
AcDbSpline
 70
8
 71
3
 72
8
 73
4
 74
0
 40
0
 40
0
 40
0
 40
0
 40
1
 40
1
 40
1
 40
1
 10
6.432782
 20
-79.294148
 30
0.0
 10
7.176375
 20
-80.037742
 30
0.0
 10
8.294679
 20
-80.260186
 30
0.0
 10
9.266231
 20
-79.857756
 30
0.0
  0
SPLINE
  5
134
100
AcDbEntity
  8
0
 62
7
100
AcDbSpline
 70
8
 71
3
 72
8
 73
4
 74
0
 40
0
 40
0
 40
0
 40
0
 40
1
 40
1
 40
1
 40
1
 10
9.266231
 20
-79.857756
 30
0.0
 10
10.237782
 20
-79.455327
 30
0.0
 10
10.871251
 20
-78.507274
 30
0.0
 10
10.871251
 20
-77.455674
 30
0.0
  0
SPLINE
  5
135
100
AcDbEntity
  8
0
 62
7
100
AcDbSpline
 70
8
 71
3
 72
8
 73
4
 74
0
 40
0
 40
0
 40
0
 40
0
 40
1
 40
1
 40
1
 40
1
 10
10.871251
 20
-77.455674
 30
0.0
 10
10.871251
 20
-76.766113
 30
0.0
 10
10.597324
 20
-76.104794
 30
0.0
 10
10.109730
 20
-75.617200
 30
0.0
  0
SPLINE
  5
136
100
AcDbEntity
  8
0
 62
7
100
AcDbSpline
 70
8
 71
3
 72
8
 73
4
 74
0
 40
0
 40
0
 40
0
 40
0
 40
1
 40
1
 40
1
 40
1
 10
10.109730
 20
-75.617200
 30
0.0
 10
9.622136
 20
-75.129607
 30
0.0
 10
8.960817
 20
-74.855680
 30
0.0
 10
8.271256
 20
-74.855680
 30
0.0
  0
LWPOLYLINE
  5
137
100
AcDbEntity
  8
0
 62
7
100
AcDbPolyline
 90
2
 70
0
 10
288.066480
 20
-0.063398
 30
0.0
 10
303.456340
 20
-81.163058
 30
0.0
  0
LWPOLYLINE
  5
138
100
AcDbEntity
  8
0
 62
7
100
AcDbPolyline
 90
1
 70
1
 10
8.271256
 20
-74.855680
 30
0.0
  0
LWPOLYLINE
  5
139
100
AcDbEntity
  8
0
 62
7
100
AcDbPolyline
 90
2
 70
0
 10
142.262860
 20
-28.341218
 30
0.0
 10
142.262860
 20
-11.374018
 30
0.0
  0
SPLINE
  5
13a
100
AcDbEntity
  8
0
 62
7
100
AcDbSpline
 70
8
 71
3
 72
8
 73
4
 74
0
 40
0
 40
0
 40
0
 40
0
 40
1
 40
1
 40
1
 40
1
 10
121.435876
 20
-128.561998
 30
0.0
 10
121.606714
 20
-128.632766
 30
0.0
 10
121.791687
 20
-128.662768
 30
0.0
 10
121.976134
 20
-128.649628
 30
0.0
  0
SPLINE
  5
13b
100
AcDbEntity
  8
0
 62
7
100
AcDbSpline
 70
8
 71
3
 72
8
 73
4
 74
0
 40
0
 40
0
 40
0
 40
0
 40
1
 40
1
 40
1
 40
1
 10
17.200931
 20
1.222240
 30
0.0
 10
16.390631
 20
1.222234
 30
0.0
 10
15.671244
 20
0.703725
 30
0.0
 10
15.415006
 20
-0.064994
 30
0.0
  0
SPLINE
  5
13c
100
AcDbEntity
  8
0
 62
7
100
AcDbSpline
 70
8
 71
3
 72
8
 73
4
 74
0
 40
0
 40
0
 40
0
 40
0
 40
1
 40
1
 40
1
 40
1
 10
0.025001
 20
-81.163566
 30
0.0
 10
0.025004
 20
-81.885908
 30
0.0
 10
0.460134
 20
-82.537122
 30
0.0
 10
1.127491
 20
-82.813550
 30
0.0
  0
LWPOLYLINE
  5
13d
100
AcDbEntity
  8
0
 62
7
100
AcDbPolyline
 90
2
 70
0
 10
15.412720
 20
-0.063398
 30
0.0
 10
0.022860
 20
-81.163058
 30
0.0
  0
LWPOLYLINE
  5
13e
100
AcDbEntity
  8
0
 62
7
100
AcDbPolyline
 90
2
 70
0
 10
158.287720
 20
-101.564338
 30
0.0
 10
181.432200
 20
-118.061638
 30
0.0
  0
SPLINE
  5
13f
100
AcDbEntity
  8
0
 62
7
100
AcDbSpline
 70
8
 71
3
 72
8
 73
4
 74
0
 40
0
 40
0
 40
0
 40
0
 40
1
 40
1
 40
1
 40
1
 10
151.741632
 20
-115.932306
 30
0.0
 10
150.690032
 20
-115.932306
 30
0.0
 10
149.741980
 20
-116.565774
 30
0.0
 10
149.339550
 20
-117.537325
 30
0.0
  0
SPLINE
  5
140
100
AcDbEntity
  8
0
 62
7
100
AcDbSpline
 70
8
 71
3
 72
8
 73
4
 74
0
 40
0
 40
0
 40
0
 40
0
 40
1
 40
1
 40
1
 40
1
 10
149.339550
 20
-117.537325
 30
0.0
 10
148.937120
 20
-118.508877
 30
0.0
 10
149.159565
 20
-119.627181
 30
0.0
 10
149.903158
 20
-120.370774
 30
0.0
  0
SPLINE
  5
141
100
AcDbEntity
  8
0
 62
7
100
AcDbSpline
 70
8
 71
3
 72
8
 73
4
 74
0
 40
0
 40
0
 40
0
 40
0
 40
1
 40
1
 40
1
 40
1
 10
149.903158
 20
-120.370774
 30
0.0
 10
150.646751
 20
-121.114368
 30
0.0
 10
151.765055
 20
-121.336812
 30
0.0
 10
152.736607
 20
-120.934382
 30
0.0
  0
SPLINE
  5
142
100
AcDbEntity
  8
0
 62
7
100
AcDbSpline
 70
8
 71
3
 72
8
 73
4
 74
0
 40
0
 40
0
 40
0
 40
0
 40
1
 40
1
 40
1
 40
1
 10
152.736607
 20
-120.934382
 30
0.0
 10
153.708158
 20
-120.531953
 30
0.0
 10
154.341627
 20
-119.583900
 30
0.0
 10
154.341627
 20
-118.532300
 30
0.0
  0
SPLINE
  5
143
100
AcDbEntity
  8
0
 62
7
100
AcDbSpline
 70
8
 71
3
 72
8
 73
4
 74
0
 40
0
 40
0
 40
0
 40
0
 40
1
 40
1
 40
1
 40
1
 10
154.341627
 20
-118.532300
 30
0.0
 10
154.341627
 20
-117.096363
 30
0.0
 10
153.177569
 20
-115.932306
 30
0.0
 10
151.741632
 20
-115.932306
 30
0.0
  0
LWPOLYLINE
  5
144
100
AcDbEntity
  8
0
 62
7
100
AcDbPolyline
 90
2
 70
0
 10
182.046880
 20
-128.559458
 30
0.0
 10
302.353980
 20
-82.811518
 30
0.0
  0
LWPOLYLINE
  5
145
100
AcDbEntity
  8
0
 62
7
100
AcDbPolyline
 90
1
 70
1
 10
151.741632
 20
-115.932306
 30
0.0
  0
LWPOLYLINE
  5
146
100
AcDbEntity
  8
0
 62
7
100
AcDbPolyline
 90
3
 70
0
 10
280.126440
 20
-14.350898
 30
0.0
 10
288.958020
 20
-71.203718
 30
0.0
 10
211.223860
 20
-98.186138
 30
0.0
  0
LWPOLYLINE
  5
147
100
AcDbEntity
  8
0
 62
7
100
AcDbPolyline
 90
2
 70
0
 10
132.095240
 20
-11.374018
 30
0.0
 10
17.200880
 20
1.224382
 30
0.0
  0
LWPOLYLINE
  5
148
100
AcDbEntity
  8
0
 62
7
100
AcDbPolyline
 90
2
 70
0
 10
171.386500
 20
-11.374018
 30
0.0
 10
161.312860
 20
-11.374018
 30
0.0
  0
SPLINE
  5
149
100
AcDbEntity
  8
0
 62
7
100
AcDbSpline
 70
8
 71
3
 72
8
 73
4
 74
0
 40
0
 40
0
 40
0
 40
0
 40
1
 40
1
 40
1
 40
1
 10
295.211500
 20
-74.855680
 30
0.0
 10
294.159900
 20
-74.855680
 30
0.0
 10
293.211848
 20
-75.489148
 30
0.0
 10
292.809418
 20
-76.460699
 30
0.0
  0
SPLINE
  5
14a
100
AcDbEntity
  8
0
 62
7
100
AcDbSpline
 70
8
 71
3
 72
8
 73
4
 74
0
 40
0
 40
0
 40
0
 40
0
 40
1
 40
1
 40
1
 40
1
 10
292.809418
 20
-76.460699
 30
0.0
 10
292.406988
 20
-77.432251
 30
0.0
 10
292.629433
 20
-78.550555
 30
0.0
 10
293.373026
 20
-79.294148
 30
0.0
  0
SPLINE
  5
14b
100
AcDbEntity
  8
0
 62
7
100
AcDbSpline
 70
8
 71
3
 72
8
 73
4
 74
0
 40
0
 40
0
 40
0
 40
0
 40
1
 40
1
 40
1
 40
1
 10
293.373026
 20
-79.294148
 30
0.0
 10
294.116619
 20
-80.037742
 30
0.0
 10
295.234923
 20
-80.260186
 30
0.0
 10
296.206475
 20
-79.857756
 30
0.0
  0
SPLINE
  5
14c
100
AcDbEntity
  8
0
 62
7
100
AcDbSpline
 70
8
 71
3
 72
8
 73
4
 74
0
 40
0
 40
0
 40
0
 40
0
 40
1
 40
1
 40
1
 40
1
 10
296.206475
 20
-79.857756
 30
0.0
 10
297.178026
 20
-79.455327
 30
0.0
 10
297.811495
 20
-78.507274
 30
0.0
 10
297.811495
 20
-77.455674
 30
0.0
  0
SPLINE
  5
14d
100
AcDbEntity
  8
0
 62
7
100
AcDbSpline
 70
8
 71
3
 72
8
 73
4
 74
0
 40
0
 40
0
 40
0
 40
0
 40
1
 40
1
 40
1
 40
1
 10
297.811495
 20
-77.455674
 30
0.0
 10
297.811495
 20
-76.766113
 30
0.0
 10
297.537568
 20
-76.104794
 30
0.0
 10
297.049974
 20
-75.617200
 30
0.0
  0
SPLINE
  5
14e
100
AcDbEntity
  8
0
 62
7
100
AcDbSpline
 70
8
 71
3
 72
8
 73
4
 74
0
 40
0
 40
0
 40
0
 40
0
 40
1
 40
1
 40
1
 40
1
 10
297.049974
 20
-75.617200
 30
0.0
 10
296.562380
 20
-75.129607
 30
0.0
 10
295.901061
 20
-74.855680
 30
0.0
 10
295.211500
 20
-74.855680
 30
0.0
  0
LWPOLYLINE
  5
14f
100
AcDbEntity
  8
0
 62
7
100
AcDbPolyline
 90
3
 70
0
 10
86.382860
 20
-14.648078
 30
0.0
 10
23.449280
 20
-14.350898
 30
0.0
 10
14.617700
 20
-71.203718
 30
0.0
  0
LWPOLYLINE
  5
150
100
AcDbEntity
  8
0
 62
7
100
AcDbPolyline
 90
1
 70
1
 10
295.211500
 20
-74.855680
 30
0.0
  0
ENDSEC
  0
SECTION
  2
OBJECTS
  0
DICTIONARY
  5
C
330
0
100
AcDbDictionary
  3
ACAD_GROUP
350
D
  3
ACAD_MLINESTYLE
350
17
  0
DICTIONARY
  5
D
330
C
100
AcDbDictionary
  0
DICTIONARY
  5
1A
330
C
100
AcDbDictionary
  0
DICTIONARY
  5
17
330
C
100
AcDbDictionary
  3
STANDARD
350
18
  0
DICTIONARY
  5
19
330
C
100
AcDbDictionary
  0
ENDSEC
  0
EOF
