  0
SECTION
  2
HEADER
  9
$ACADVER
  1
AC1014
  9
$HANDSEED
  5
FFFF
  9
$MEASUREMENT
 70
     1
  0
ENDSEC
  0
SECTION
  2
TABLES
  0
TABLE
  2
VPORT
  5
8
330
0
100
AcDbSymbolTable
 70
     4
  0
VPORT
  5
2E
330
8
100
AcDbSymbolTableRecord
100
AcDbViewportTableRecord
  2
*ACTIVE
 70
     0
 10
0.0
 20
0.0
 11
1.0
 21
1.0
 12
210.0
 22
148.5
 13
0.0
 23
0.0
 14
10.0
 24
10.0
 15
10.0
 25
10.0
 16
0.0
 26
0.0
 36
1.0
 17
0.0
 27
0.0
 37
0.0
 40
341.0
 41
1.24
 42
50.0
 43
0.0
 44
0.0
 50
0.0
 51
0.0
 71
     0
 72
   100
 73
     1
 74
     3
 75
     0
 76
     0
 77
     0
 78
     0
  0
ENDTAB
  0
TABLE
  2
LTYPE
  5
5
330
0
100
AcDbSymbolTable
 70
     1
  0
LTYPE
  5
14
330
5
100
AcDbSymbolTableRecord
100
AcDbLinetypeTableRecord
  2
BYBLOCK
 70
     0
  3

 72
    65
 73
     0
 40
0.0
  0
LTYPE
  5
15
330
5
100
AcDbSymbolTableRecord
100
AcDbLinetypeTableRecord
  2
BYLAYER
 70
     0
  3

 72
    65
 73
     0
 40
0.0
  0
LTYPE
  5
16
330
5
100
AcDbSymbolTableRecord
100
AcDbLinetypeTableRecord
  2
CONTINUOUS
 70
     0
  3
Solid line
 72
    65
 73
     0
 40
0.0
  0
ENDTAB
  0
TABLE
  2
LAYER
  5
2
100
AcDbSymbolTable
 70
1
  0
LAYER
  5
50
100
AcDbSymbolTableRecord
100
AcDbLayerTableRecord
  2
0
 70
0
  6
CONTINUOUS
  0
ENDTAB
  0
TABLE
  2
STYLE
  5
3
330
0
100
AcDbSymbolTable
 70
     1
  0
STYLE
  5
11
330
3
100
AcDbSymbolTableRecord
100
AcDbTextStyleTableRecord
  2
STANDARD
 70
     0
 40
0.0
 41
1.0
 50
0.0
 71
     0
 42
2.5
  3
txt
  4

  0
ENDTAB
  0
TABLE
  2
VIEW
  5
6
330
0
100
AcDbSymbolTable
 70
     0
  0
ENDTAB
  0
TABLE
  2
UCS
  5
7
330
0
100
AcDbSymbolTable
 70
     0
  0
ENDTAB
  0
TABLE
  2
APPID
  5
9
330
0
100
AcDbSymbolTable
 70
     2
  0
APPID
  5
12
330
9
100
AcDbSymbolTableRecord
100
AcDbRegAppTableRecord
  2
ACAD
 70
     0
  0
ENDTAB
  0
TABLE
  2
DIMSTYLE
  5
A
330
0
100
AcDbSymbolTable
 70
     1
  0
DIMSTYLE
105
27
330
A
100
AcDbSymbolTableRecord
100
AcDbDimStyleTableRecord
  2
ISO-25
 70
     0
  3

  4

  5

  6

  7

 40
1.0
 41
2.5
 42
0.625
 43
3.75
 44
1.25
 45
0.0
 46
0.0
 47
0.0
 48
0.0
140
2.5
141
2.5
142
0.0
143
0.03937007874016
144
1.0
145
0.0
146
1.0
147
0.625
 71
     0
 72
     0
 73
     0
 74
     0
 75
     0
 76
     0
 77
     1
 78
     8
170
     0
171
     3
172
     1
173
     0
174
     0
175
     0
176
     0
177
     0
178
     0
270
     2
271
     2
272
     2
273
     2
274
     3
340
11
275
     0
280
     0
281
     0
282
     0
283
     0
284
     8
285
     0
286
     0
287
     3
288
     0
  0
ENDTAB
  0
TABLE
  2
BLOCK_RECORD
  5
1
330
0
100
AcDbSymbolTable
 70
     1
  0
BLOCK_RECORD
  5
1F
330
1
100
AcDbSymbolTableRecord
100
AcDbBlockTableRecord
  2
*MODEL_SPACE
  0
BLOCK_RECORD
  5
1B
330
1
100
AcDbSymbolTableRecord
100
AcDbBlockTableRecord
  2
*PAPER_SPACE
  0
ENDTAB
  0
ENDSEC
  0
SECTION
  2
BLOCKS
  0
BLOCK
  5
20
330
1F
100
AcDbEntity
  8
0
100
AcDbBlockBegin
  2
*MODEL_SPACE
 70
     0
 10
0.0
 20
0.0
 30
0.0
  3
*MODEL_SPACE
  1

  0
ENDBLK
  5
21
330
1F
100
AcDbEntity
  8
0
100
AcDbBlockEnd
  0
BLOCK
  5
1C
330
1B
100
AcDbEntity
 67
     1
  8
0
100
AcDbBlockBegin
  2
*PAPER_SPACE
  1

  0
ENDBLK
  5
1D
330
1B
100
AcDbEntity
 67
     1
  8
0
100
AcDbBlockEnd
  0
ENDSEC
  0
SECTION
  2
ENTITIES
  0
LWPOLYLINE
  5
100
100
AcDbEntity
  8
0
 62
7
100
AcDbPolyline
 90
2
 70
0
 10
-182.846980
 20
-14.333883
 30
0.0
 10
-201.663300
 20
-17.315843
 30
0.0
  0
LWPOLYLINE
  5
101
100
AcDbEntity
  8
0
 62
7
100
AcDbPolyline
 90
2
 70
0
 10
-182.846980
 20
-14.333883
 30
0.0
 10
-182.102760
 20
-19.037963
 30
0.0
  0
LWPOLYLINE
  5
102
100
AcDbEntity
  8
0
 62
7
100
AcDbPolyline
 90
2
 70
0
 10
-201.663300
 20
-17.315843
 30
0.0
 10
-200.919080
 20
-22.019923
 30
0.0
  0
LWPOLYLINE
  5
103
100
AcDbEntity
  8
0
 62
7
100
AcDbPolyline
 90
3
 70
0
 10
-189.743080
 20
-92.576043
 30
0.0
 10
-170.926760
 20
-89.596623
 30
0.0
 10
-173.161960
 20
-75.484383
 30
0.0
  0
LWPOLYLINE
  5
104
100
AcDbEntity
  8
0
 62
7
100
AcDbPolyline
 90
2
 70
0
 10
-153.601420
 20
-77.209043
 30
0.0
 10
-134.787640
 20
-74.229623
 30
0.0
  0
LWPOLYLINE
  5
105
100
AcDbEntity
  8
0
 62
7
100
AcDbPolyline
 90
2
 70
0
 10
-153.601420
 20
-77.209043
 30
0.0
 10
-154.348180
 20
-72.504963
 30
0.0
  0
LWPOLYLINE
  5
106
100
AcDbEntity
  8
0
 62
7
100
AcDbPolyline
 90
2
 70
0
 10
-260.725920
 20
-46.812863
 30
0.0
 10
-263.705340
 20
-65.626643
 30
0.0
  0
LWPOLYLINE
  5
107
100
AcDbEntity
  8
0
 62
7
100
AcDbPolyline
 90
3
 70
0
 10
-232.590340
 20
-65.608863
 30
0.0
 10
-229.608380
 20
-84.425183
 30
0.0
 10
-210.794600
 20
-81.445763
 30
0.0
  0
LWPOLYLINE
  5
108
100
AcDbEntity
  8
0
 62
7
100
AcDbPolyline
 90
2
 70
0
 10
-385.028440
 20
-70.521223
 30
0.0
 10
-382.049020
 20
-51.704903
 30
0.0
  0
LWPOLYLINE
  5
109
100
AcDbEntity
  8
0
 62
7
100
AcDbPolyline
 90
2
 70
0
 10
-385.028440
 20
-70.521223
 30
0.0
 10
-361.508040
 20
-74.247403
 30
0.0
  0
LWPOLYLINE
  5
10a
100
AcDbEntity
  8
0
 62
7
100
AcDbPolyline
 90
2
 70
0
 10
-352.569780
 20
-17.800983
 30
0.0
 10
-333.753460
 20
-20.780403
 30
0.0
  0
LWPOLYLINE
  5
10b
100
AcDbEntity
  8
0
 62
7
100
AcDbPolyline
 90
2
 70
0
 10
-238.549180
 20
-27.978763
 30
0.0
 10
-235.569760
 20
-46.795083
 30
0.0
  0
LWPOLYLINE
  5
10c
100
AcDbEntity
  8
0
 62
7
100
AcDbPolyline
 90
2
 70
0
 10
-219.732860
 20
-24.999343
 30
0.0
 10
-238.549180
 20
-27.978763
 30
0.0
  0
LWPOLYLINE
  5
10d
100
AcDbEntity
  8
0
 62
7
100
AcDbPolyline
 90
3
 70
0
 10
-207.812640
 20
-100.262083
 30
0.0
 10
-188.998860
 20
-97.280123
 30
0.0
 10
-189.743080
 20
-92.576043
 30
0.0
  0
LWPOLYLINE
  5
10e
100
AcDbEntity
  8
0
 62
7
100
AcDbPolyline
 90
2
 70
0
 10
-207.812640
 20
-100.262083
 30
0.0
 10
-210.794600
 20
-81.445763
 30
0.0
  0
LWPOLYLINE
  5
10f
100
AcDbEntity
  8
0
 62
7
100
AcDbPolyline
 90
2
 70
0
 10
-200.919080
 20
-22.019923
 30
0.0
 10
-219.732860
 20
-24.999343
 30
0.0
  0
LWPOLYLINE
  5
110
100
AcDbEntity
  8
0
 62
7
100
AcDbPolyline
 90
2
 70
0
 10
-143.725900
 20
-17.783203
 30
0.0
 10
-162.542220
 20
-20.762623
 30
0.0
  0
LWPOLYLINE
  5
111
100
AcDbEntity
  8
0
 62
7
100
AcDbPolyline
 90
3
 70
0
 10
-117.228620
 20
-32.873343
 30
0.0
 10
-120.208040
 20
-14.057023
 30
0.0
 10
-143.725900
 20
-17.783203
 30
0.0
  0
LWPOLYLINE
  5
112
100
AcDbEntity
  8
0
 62
7
100
AcDbPolyline
 90
2
 70
0
 10
-114.246660
 20
-51.687123
 30
0.0
 10
-117.228620
 20
-32.873343
 30
0.0
  0
LWPOLYLINE
  5
113
100
AcDbEntity
  8
0
 62
7
100
AcDbPolyline
 90
2
 70
0
 10
-235.569760
 20
-46.795083
 30
0.0
 10
-232.590340
 20
-65.608863
 30
0.0
  0
LWPOLYLINE
  5
114
100
AcDbEntity
  8
0
 62
7
100
AcDbPolyline
 90
2
 70
0
 10
-173.161960
 20
-75.484383
 30
0.0
 10
-154.348180
 20
-72.504963
 30
0.0
  0
LWPOLYLINE
  5
115
100
AcDbEntity
  8
0
 62
7
100
AcDbPolyline
 90
2
 70
0
 10
-111.267240
 20
-70.503443
 30
0.0
 10
-114.246660
 20
-51.687123
 30
0.0
  0
LWPOLYLINE
  5
116
100
AcDbEntity
  8
0
 62
7
100
AcDbPolyline
 90
2
 70
0
 10
-111.267240
 20
-70.503443
 30
0.0
 10
-134.787640
 20
-74.229623
 30
0.0
  0
LWPOLYLINE
  5
117
100
AcDbEntity
  8
0
 62
7
100
AcDbPolyline
 90
2
 70
0
 10
-163.286440
 20
-16.058543
 30
0.0
 10
-182.102760
 20
-19.037963
 30
0.0
  0
LWPOLYLINE
  5
118
100
AcDbEntity
  8
0
 62
7
100
AcDbPolyline
 90
2
 70
0
 10
-163.286440
 20
-16.058543
 30
0.0
 10
-162.542220
 20
-20.762623
 30
0.0
  0
LWPOLYLINE
  5
119
100
AcDbEntity
  8
0
 62
7
100
AcDbPolyline
 90
3
 70
0
 10
-379.067060
 20
-32.891123
 30
0.0
 10
-376.087640
 20
-14.074803
 30
0.0
 10
-352.569780
 20
-17.800983
 30
0.0
  0
LWPOLYLINE
  5
11a
100
AcDbEntity
  8
0
 62
7
100
AcDbPolyline
 90
2
 70
0
 10
-382.049020
 20
-51.704903
 30
0.0
 10
-379.067060
 20
-32.891123
 30
0.0
  0
LWPOLYLINE
  5
11b
100
AcDbEntity
  8
0
 62
7
100
AcDbPolyline
 90
2
 70
0
 10
-342.694260
 20
-77.226823
 30
0.0
 10
-361.508040
 20
-74.247403
 30
0.0
  0
LWPOLYLINE
  5
11c
100
AcDbEntity
  8
0
 62
7
100
AcDbPolyline
 90
2
 70
0
 10
-342.694260
 20
-77.226823
 30
0.0
 10
-341.947500
 20
-72.522743
 30
0.0
  0
LWPOLYLINE
  5
11d
100
AcDbEntity
  8
0
 62
7
100
AcDbPolyline
 90
2
 70
0
 10
-323.133720
 20
-75.502163
 30
0.0
 10
-341.947500
 20
-72.522743
 30
0.0
  0
LWPOLYLINE
  5
11e
100
AcDbEntity
  8
0
 62
7
100
AcDbPolyline
 90
2
 70
0
 10
-313.446160
 20
-14.351663
 30
0.0
 10
-294.632380
 20
-17.331083
 30
0.0
  0
LWPOLYLINE
  5
11f
100
AcDbEntity
  8
0
 62
7
100
AcDbPolyline
 90
2
 70
0
 10
-313.448700
 20
-14.351663
 30
0.0
 10
-314.192920
 20
-19.055743
 30
0.0
  0
LWPOLYLINE
  5
120
100
AcDbEntity
  8
0
 62
7
100
AcDbPolyline
 90
2
 70
0
 10
-294.632380
 20
-17.331083
 30
0.0
 10
-295.376600
 20
-22.035163
 30
0.0
  0
LWPOLYLINE
  5
121
100
AcDbEntity
  8
0
 62
7
100
AcDbPolyline
 90
2
 70
0
 10
-257.746500
 20
-27.996543
 30
0.0
 10
-260.725920
 20
-46.812863
 30
0.0
  0
LWPOLYLINE
  5
122
100
AcDbEntity
  8
0
 62
7
100
AcDbPolyline
 90
2
 70
0
 10
-276.560280
 20
-25.017123
 30
0.0
 10
-257.746500
 20
-27.996543
 30
0.0
  0
LWPOLYLINE
  5
123
100
AcDbEntity
  8
0
 62
7
100
AcDbPolyline
 90
2
 70
0
 10
-295.376600
 20
-22.035163
 30
0.0
 10
-276.560280
 20
-25.017123
 30
0.0
  0
LWPOLYLINE
  5
124
100
AcDbEntity
  8
0
 62
7
100
AcDbPolyline
 90
2
 70
0
 10
-333.009240
 20
-16.076323
 30
0.0
 10
-314.192920
 20
-19.055743
 30
0.0
  0
LWPOLYLINE
  5
125
100
AcDbEntity
  8
0
 62
7
100
AcDbPolyline
 90
2
 70
0
 10
-333.009240
 20
-16.076323
 30
0.0
 10
-333.753460
 20
-20.780403
 30
0.0
  0
LWPOLYLINE
  5
126
100
AcDbEntity
  8
0
 62
7
100
AcDbPolyline
 90
3
 70
0
 10
-288.483040
 20
-100.277323
 30
0.0
 10
-307.296820
 20
-97.297903
 30
0.0
 10
-306.552600
 20
-92.593823
 30
0.0
  0
LWPOLYLINE
  5
127
100
AcDbEntity
  8
0
 62
7
100
AcDbPolyline
 90
2
 70
0
 10
-288.483040
 20
-100.277323
 30
0.0
 10
-285.501080
 20
-81.463543
 30
0.0
  0
LWPOLYLINE
  5
128
100
AcDbEntity
  8
0
 62
7
100
AcDbPolyline
 90
3
 70
0
 10
-306.552600
 20
-92.593823
 30
0.0
 10
-325.368920
 20
-89.614403
 30
0.0
 10
-323.133720
 20
-75.502163
 30
0.0
  0
LWPOLYLINE
  5
129
100
AcDbEntity
  8
0
 62
7
100
AcDbPolyline
 90
3
 70
0
 10
-263.705340
 20
-65.626643
 30
0.0
 10
-266.687300
 20
-84.442963
 30
0.0
 10
-285.501080
 20
-81.463543
 30
0.0
  0
LWPOLYLINE
  5
12a
100
AcDbEntity
  8
0
 62
7
100
AcDbPolyline
 90
3
 70
0
 10
-254.741680
 20
-100.325583
 30
0.0
 10
-277.860760
 20
-117.120063
 30
0.0
 10
-289.057080
 20
-101.709883
 30
0.0
  0
LWPOLYLINE
  5
12b
100
AcDbEntity
  8
0
 62
7
100
AcDbPolyline
 90
3
 70
0
 10
-254.741680
 20
-100.325583
 30
0.0
 10
-265.940540
 20
-84.912863
 30
0.0
 10
-289.057080
 20
-101.709883
 30
0.0
  0
SPLINE
  5
12c
100
AcDbEntity
  8
0
 62
7
100
AcDbSpline
 70
8
 71
3
 72
8
 73
4
 74
0
 40
0
 40
0
 40
0
 40
0
 40
1
 40
1
 40
1
 40
1
 10
-248.194065
 20
-115.226953
 30
0.0
 10
-249.630003
 20
-115.226953
 30
0.0
 10
-250.794060
 20
-116.391010
 30
0.0
 10
-250.794060
 20
-117.826947
 30
0.0
  0
SPLINE
  5
12d
100
AcDbEntity
  8
0
 62
7
100
AcDbSpline
 70
8
 71
3
 72
8
 73
4
 74
0
 40
0
 40
0
 40
0
 40
0
 40
1
 40
1
 40
1
 40
1
 10
-250.794060
 20
-117.826947
 30
0.0
 10
-250.794060
 20
-119.262885
 30
0.0
 10
-249.630003
 20
-120.426942
 30
0.0
 10
-248.194065
 20
-120.426942
 30
0.0
  0
SPLINE
  5
12e
100
AcDbEntity
  8
0
 62
7
100
AcDbSpline
 70
8
 71
3
 72
8
 73
4
 74
0
 40
0
 40
0
 40
0
 40
0
 40
1
 40
1
 40
1
 40
1
 10
-248.194065
 20
-120.426942
 30
0.0
 10
-246.758128
 20
-120.426942
 30
0.0
 10
-245.594071
 20
-119.262885
 30
0.0
 10
-245.594071
 20
-117.826947
 30
0.0
  0
SPLINE
  5
12f
100
AcDbEntity
  8
0
 62
7
100
AcDbSpline
 70
8
 71
3
 72
8
 73
4
 74
0
 40
0
 40
0
 40
0
 40
0
 40
1
 40
1
 40
1
 40
1
 10
-245.594071
 20
-117.826947
 30
0.0
 10
-245.594071
 20
-117.137386
 30
0.0
 10
-245.867998
 20
-116.476067
 30
0.0
 10
-246.355592
 20
-115.988474
 30
0.0
  0
SPLINE
  5
130
100
AcDbEntity
  8
0
 62
7
100
AcDbSpline
 70
8
 71
3
 72
8
 73
4
 74
0
 40
0
 40
0
 40
0
 40
0
 40
1
 40
1
 40
1
 40
1
 10
-246.355592
 20
-115.988474
 30
0.0
 10
-246.843185
 20
-115.500880
 30
0.0
 10
-247.504504
 20
-115.226953
 30
0.0
 10
-248.194065
 20
-115.226953
 30
0.0
  0
LWPOLYLINE
  5
131
100
AcDbEntity
  8
0
 62
7
100
AcDbPolyline
 90
4
 70
1
 10
-207.114140
 20
-101.730203
 30
0.0
 10
-230.233220
 20
-84.933183
 30
0.0
 10
-241.429540
 20
-100.345903
 30
0.0
 10
-218.310460
 20
-117.142923
 30
0.0
  0
SPLINE
  5
132
100
AcDbEntity
  8
0
 62
7
100
AcDbSpline
 70
8
 71
3
 72
8
 73
4
 74
0
 40
0
 40
0
 40
0
 40
0
 40
1
 40
1
 40
1
 40
1
 10
-377.972243
 20
-3.308073
 30
0.0
 10
-379.023843
 20
-3.308073
 30
0.0
 10
-379.971895
 20
-3.941542
 30
0.0
 10
-380.374325
 20
-4.913093
 30
0.0
  0
SPLINE
  5
133
100
AcDbEntity
  8
0
 62
7
100
AcDbSpline
 70
8
 71
3
 72
8
 73
4
 74
0
 40
0
 40
0
 40
0
 40
0
 40
1
 40
1
 40
1
 40
1
 10
-380.374325
 20
-4.913093
 30
0.0
 10
-380.776755
 20
-5.884644
 30
0.0
 10
-380.554310
 20
-7.002949
 30
0.0
 10
-379.810717
 20
-7.746542
 30
0.0
  0
SPLINE
  5
134
100
AcDbEntity
  8
0
 62
7
100
AcDbSpline
 70
8
 71
3
 72
8
 73
4
 74
0
 40
0
 40
0
 40
0
 40
0
 40
1
 40
1
 40
1
 40
1
 10
-379.810717
 20
-7.746542
 30
0.0
 10
-379.067124
 20
-8.490135
 30
0.0
 10
-377.948820
 20
-8.712580
 30
0.0
 10
-376.977268
 20
-8.310150
 30
0.0
  0
SPLINE
  5
135
100
AcDbEntity
  8
0
 62
7
100
AcDbSpline
 70
8
 71
3
 72
8
 73
4
 74
0
 40
0
 40
0
 40
0
 40
0
 40
1
 40
1
 40
1
 40
1
 10
-376.977268
 20
-8.310150
 30
0.0
 10
-376.005717
 20
-7.907720
 30
0.0
 10
-375.372248
 20
-6.959668
 30
0.0
 10
-375.372248
 20
-5.908068
 30
0.0
  0
SPLINE
  5
136
100
AcDbEntity
  8
0
 62
7
100
AcDbSpline
 70
8
 71
3
 72
8
 73
4
 74
0
 40
0
 40
0
 40
0
 40
0
 40
1
 40
1
 40
1
 40
1
 10
-375.372248
 20
-5.908068
 30
0.0
 10
-375.372248
 20
-5.218506
 30
0.0
 10
-375.646175
 20
-4.557188
 30
0.0
 10
-376.133769
 20
-4.069594
 30
0.0
  0
SPLINE
  5
137
100
AcDbEntity
  8
0
 62
7
100
AcDbSpline
 70
8
 71
3
 72
8
 73
4
 74
0
 40
0
 40
0
 40
0
 40
0
 40
1
 40
1
 40
1
 40
1
 10
-376.133769
 20
-4.069594
 30
0.0
 10
-376.621363
 20
-3.582000
 30
0.0
 10
-377.282682
 20
-3.308073
 30
0.0
 10
-377.972243
 20
-3.308073
 30
0.0
  0
LWPOLYLINE
  5
138
100
AcDbEntity
  8
0
 62
7
100
AcDbPolyline
 90
1
 70
1
 10
-248.194065
 20
-115.226953
 30
0.0
  0
SPLINE
  5
139
100
AcDbEntity
  8
0
 62
7
100
AcDbSpline
 70
8
 71
3
 72
8
 73
4
 74
0
 40
0
 40
0
 40
0
 40
0
 40
1
 40
1
 40
1
 40
1
 10
-278.499824
 20
-127.856643
 30
0.0
 10
-278.328986
 20
-127.927410
 30
0.0
 10
-278.144013
 20
-127.957413
 30
0.0
 10
-277.959566
 20
-127.944273
 30
0.0
  0
LWPOLYLINE
  5
13a
100
AcDbEntity
  8
0
 62
7
100
AcDbPolyline
 90
1
 70
1
 10
-377.972243
 20
-3.308073
 30
0.0
  0
SPLINE
  5
13b
100
AcDbEntity
  8
0
 62
7
100
AcDbSpline
 70
8
 71
3
 72
8
 73
4
 74
0
 40
0
 40
0
 40
0
 40
0
 40
1
 40
1
 40
1
 40
1
 10
-399.910699
 20
-80.458211
 30
0.0
 10
-399.910696
 20
-81.180553
 30
0.0
 10
-399.475566
 20
-81.831767
 30
0.0
 10
-398.808209
 20
-82.108195
 30
0.0
  0
SPLINE
  5
13c
100
AcDbEntity
  8
0
 62
7
100
AcDbSpline
 70
8
 71
3
 72
8
 73
4
 74
0
 40
0
 40
0
 40
0
 40
0
 40
1
 40
1
 40
1
 40
1
 10
-391.664444
 20
-74.150324
 30
0.0
 10
-392.716044
 20
-74.150324
 30
0.0
 10
-393.664096
 20
-74.783793
 30
0.0
 10
-394.066526
 20
-75.755344
 30
0.0
  0
SPLINE
  5
13d
100
AcDbEntity
  8
0
 62
7
100
AcDbSpline
 70
8
 71
3
 72
8
 73
4
 74
0
 40
0
 40
0
 40
0
 40
0
 40
1
 40
1
 40
1
 40
1
 10
-394.066526
 20
-75.755344
 30
0.0
 10
-394.468956
 20
-76.726895
 30
0.0
 10
-394.246512
 20
-77.845200
 30
0.0
 10
-393.502918
 20
-78.588793
 30
0.0
  0
SPLINE
  5
13e
100
AcDbEntity
  8
0
 62
7
100
AcDbSpline
 70
8
 71
3
 72
8
 73
4
 74
0
 40
0
 40
0
 40
0
 40
0
 40
1
 40
1
 40
1
 40
1
 10
-393.502918
 20
-78.588793
 30
0.0
 10
-392.759325
 20
-79.332386
 30
0.0
 10
-391.641021
 20
-79.554831
 30
0.0
 10
-390.669469
 20
-79.152401
 30
0.0
  0
SPLINE
  5
13f
100
AcDbEntity
  8
0
 62
7
100
AcDbSpline
 70
8
 71
3
 72
8
 73
4
 74
0
 40
0
 40
0
 40
0
 40
0
 40
1
 40
1
 40
1
 40
1
 10
-390.669469
 20
-79.152401
 30
0.0
 10
-389.697918
 20
-78.749971
 30
0.0
 10
-389.064449
 20
-77.801919
 30
0.0
 10
-389.064449
 20
-76.750319
 30
0.0
  0
SPLINE
  5
140
100
AcDbEntity
  8
0
 62
7
100
AcDbSpline
 70
8
 71
3
 72
8
 73
4
 74
0
 40
0
 40
0
 40
0
 40
0
 40
1
 40
1
 40
1
 40
1
 10
-389.064449
 20
-76.750319
 30
0.0
 10
-389.064449
 20
-75.314381
 30
0.0
 10
-390.228507
 20
-74.150324
 30
0.0
 10
-391.664444
 20
-74.150324
 30
0.0
  0
LWPOLYLINE
  5
141
100
AcDbEntity
  8
0
 62
7
100
AcDbPolyline
 90
2
 70
0
 10
-278.500840
 20
-127.854103
 30
0.0
 10
-398.810480
 20
-82.106163
 30
0.0
  0
SPLINE
  5
142
100
AcDbEntity
  8
0
 62
7
100
AcDbSpline
 70
8
 71
3
 72
8
 73
4
 74
0
 40
0
 40
0
 40
0
 40
0
 40
1
 40
1
 40
1
 40
1
 10
-382.734769
 20
1.927595
 30
0.0
 10
-383.545069
 20
1.927589
 30
0.0
 10
-384.264456
 20
1.409080
 30
0.0
 10
-384.520694
 20
0.640362
 30
0.0
  0
SPLINE
  5
143
100
AcDbEntity
  8
0
 62
7
100
AcDbSpline
 70
8
 71
3
 72
8
 73
4
 74
0
 40
0
 40
0
 40
0
 40
0
 40
1
 40
1
 40
1
 40
1
 10
-230.334561
 20
-14.619023
 30
0.0
 10
-231.386161
 20
-14.619023
 30
0.0
 10
-232.334213
 20
-15.252491
 30
0.0
 10
-232.736643
 20
-16.224043
 30
0.0
  0
SPLINE
  5
144
100
AcDbEntity
  8
0
 62
7
100
AcDbSpline
 70
8
 71
3
 72
8
 73
4
 74
0
 40
0
 40
0
 40
0
 40
0
 40
1
 40
1
 40
1
 40
1
 10
-232.736643
 20
-16.224043
 30
0.0
 10
-233.139073
 20
-17.195594
 30
0.0
 10
-232.916628
 20
-18.313899
 30
0.0
 10
-232.173035
 20
-19.057492
 30
0.0
  0
SPLINE
  5
145
100
AcDbEntity
  8
0
 62
7
100
AcDbSpline
 70
8
 71
3
 72
8
 73
4
 74
0
 40
0
 40
0
 40
0
 40
0
 40
1
 40
1
 40
1
 40
1
 10
-232.173035
 20
-19.057492
 30
0.0
 10
-231.429442
 20
-19.801085
 30
0.0
 10
-230.311137
 20
-20.023530
 30
0.0
 10
-229.339586
 20
-19.621100
 30
0.0
  0
SPLINE
  5
146
100
AcDbEntity
  8
0
 62
7
100
AcDbSpline
 70
8
 71
3
 72
8
 73
4
 74
0
 40
0
 40
0
 40
0
 40
0
 40
1
 40
1
 40
1
 40
1
 10
-229.339586
 20
-19.621100
 30
0.0
 10
-228.368035
 20
-19.218670
 30
0.0
 10
-227.734566
 20
-18.270618
 30
0.0
 10
-227.734566
 20
-17.219018
 30
0.0
  0
SPLINE
  5
147
100
AcDbEntity
  8
0
 62
7
100
AcDbSpline
 70
8
 71
3
 72
8
 73
4
 74
0
 40
0
 40
0
 40
0
 40
0
 40
1
 40
1
 40
1
 40
1
 10
-227.734566
 20
-17.219018
 30
0.0
 10
-227.734566
 20
-16.529456
 30
0.0
 10
-228.008493
 20
-15.868138
 30
0.0
 10
-228.496087
 20
-15.380544
 30
0.0
  0
SPLINE
  5
148
100
AcDbEntity
  8
0
 62
7
100
AcDbSpline
 70
8
 71
3
 72
8
 73
4
 74
0
 40
0
 40
0
 40
0
 40
0
 40
1
 40
1
 40
1
 40
1
 10
-228.496087
 20
-15.380544
 30
0.0
 10
-228.983681
 20
-14.892950
 30
0.0
 10
-229.644999
 20
-14.619023
 30
0.0
 10
-230.334561
 20
-14.619023
 30
0.0
  0
LWPOLYLINE
  5
149
100
AcDbEntity
  8
0
 62
7
100
AcDbPolyline
 90
1
 70
1
 10
-391.664444
 20
-74.150324
 30
0.0
  0
LWPOLYLINE
  5
14a
100
AcDbEntity
  8
0
 62
7
100
AcDbPolyline
 90
1
 70
1
 10
-230.334561
 20
-14.619023
 30
0.0
  0
LWPOLYLINE
  5
14b
100
AcDbEntity
  8
0
 62
7
100
AcDbPolyline
 90
2
 70
0
 10
-384.522980
 20
0.641957
 30
0.0
 10
-399.912840
 20
-80.457703
 30
0.0
  0
LWPOLYLINE
  5
14c
100
AcDbEntity
  8
0
 62
7
100
AcDbPolyline
 90
3
 70
0
 10
-228.549200
 20
-10.668663
 30
0.0
 10
-267.840460
 20
-10.668663
 30
0.0
 10
-382.734820
 20
1.929737
 30
0.0
  0
SPLINE
  5
14d
100
AcDbEntity
  8
0
 62
7
100
AcDbSpline
 70
8
 71
3
 72
8
 73
4
 74
0
 40
0
 40
0
 40
0
 40
0
 40
1
 40
1
 40
1
 40
1
 10
-266.005815
 20
-14.619023
 30
0.0
 10
-267.057415
 20
-14.619023
 30
0.0
 10
-268.005468
 20
-15.252491
 30
0.0
 10
-268.407897
 20
-16.224043
 30
0.0
  0
SPLINE
  5
14e
100
AcDbEntity
  8
0
 62
7
100
AcDbSpline
 70
8
 71
3
 72
8
 73
4
 74
0
 40
0
 40
0
 40
0
 40
0
 40
1
 40
1
 40
1
 40
1
 10
-268.407897
 20
-16.224043
 30
0.0
 10
-268.810327
 20
-17.195594
 30
0.0
 10
-268.587883
 20
-18.313899
 30
0.0
 10
-267.844289
 20
-19.057492
 30
0.0
  0
SPLINE
  5
14f
100
AcDbEntity
  8
0
 62
7
100
AcDbSpline
 70
8
 71
3
 72
8
 73
4
 74
0
 40
0
 40
0
 40
0
 40
0
 40
1
 40
1
 40
1
 40
1
 10
-267.844289
 20
-19.057492
 30
0.0
 10
-267.100696
 20
-19.801085
 30
0.0
 10
-265.982392
 20
-20.023530
 30
0.0
 10
-265.010841
 20
-19.621100
 30
0.0
  0
SPLINE
  5
150
100
AcDbEntity
  8
0
 62
7
100
AcDbSpline
 70
8
 71
3
 72
8
 73
4
 74
0
 40
0
 40
0
 40
0
 40
0
 40
1
 40
1
 40
1
 40
1
 10
-265.010841
 20
-19.621100
 30
0.0
 10
-264.039289
 20
-19.218670
 30
0.0
 10
-263.405821
 20
-18.270618
 30
0.0
 10
-263.405821
 20
-17.219018
 30
0.0
  0
SPLINE
  5
151
100
AcDbEntity
  8
0
 62
7
100
AcDbSpline
 70
8
 71
3
 72
8
 73
4
 74
0
 40
0
 40
0
 40
0
 40
0
 40
1
 40
1
 40
1
 40
1
 10
-263.405821
 20
-17.219018
 30
0.0
 10
-263.405821
 20
-16.529456
 30
0.0
 10
-263.679748
 20
-15.868138
 30
0.0
 10
-264.167342
 20
-15.380544
 30
0.0
  0
SPLINE
  5
152
100
AcDbEntity
  8
0
 62
7
100
AcDbSpline
 70
8
 71
3
 72
8
 73
4
 74
0
 40
0
 40
0
 40
0
 40
0
 40
1
 40
1
 40
1
 40
1
 10
-264.167342
 20
-15.380544
 30
0.0
 10
-264.654935
 20
-14.892950
 30
0.0
 10
-265.316254
 20
-14.619023
 30
0.0
 10
-266.005815
 20
-14.619023
 30
0.0
  0
LWPOLYLINE
  5
153
100
AcDbEntity
  8
0
 62
7
100
AcDbPolyline
 90
2
 70
0
 10
-277.959820
 20
-127.943003
 30
0.0
 10
-218.429840
 20
-127.943003
 30
0.0
  0
LWPOLYLINE
  5
154
100
AcDbEntity
  8
0
 62
7
100
AcDbPolyline
 90
1
 70
1
 10
-266.005815
 20
-14.619023
 30
0.0
  0
LWPOLYLINE
  5
155
100
AcDbEntity
  8
0
 62
7
100
AcDbPolyline
 90
2
 70
0
 10
-111.869220
 20
0.641957
 30
0.0
 10
-96.479360
 20
-80.457703
 30
0.0
  0
SPLINE
  5
156
100
AcDbEntity
  8
0
 62
7
100
AcDbSpline
 70
8
 71
3
 72
8
 73
4
 74
0
 40
0
 40
0
 40
0
 40
0
 40
1
 40
1
 40
1
 40
1
 10
-97.579180
 20
-82.108195
 30
0.0
 10
-96.911874
 20
-81.831727
 30
0.0
 10
-96.476801
 20
-81.180521
 30
0.0
 10
-96.476820
 20
-80.458211
 30
0.0
  0
SPLINE
  5
157
100
AcDbEntity
  8
0
 62
7
100
AcDbSpline
 70
8
 71
3
 72
8
 73
4
 74
0
 40
0
 40
0
 40
0
 40
0
 40
1
 40
1
 40
1
 40
1
 10
-104.724200
 20
-74.150324
 30
0.0
 10
-105.775800
 20
-74.150324
 30
0.0
 10
-106.723852
 20
-74.783793
 30
0.0
 10
-107.126282
 20
-75.755344
 30
0.0
  0
SPLINE
  5
158
100
AcDbEntity
  8
0
 62
7
100
AcDbSpline
 70
8
 71
3
 72
8
 73
4
 74
0
 40
0
 40
0
 40
0
 40
0
 40
1
 40
1
 40
1
 40
1
 10
-107.126282
 20
-75.755344
 30
0.0
 10
-107.528712
 20
-76.726895
 30
0.0
 10
-107.306267
 20
-77.845200
 30
0.0
 10
-106.562674
 20
-78.588793
 30
0.0
  0
SPLINE
  5
159
100
AcDbEntity
  8
0
 62
7
100
AcDbSpline
 70
8
 71
3
 72
8
 73
4
 74
0
 40
0
 40
0
 40
0
 40
0
 40
1
 40
1
 40
1
 40
1
 10
-106.562674
 20
-78.588793
 30
0.0
 10
-105.819081
 20
-79.332386
 30
0.0
 10
-104.700777
 20
-79.554831
 30
0.0
 10
-103.729225
 20
-79.152401
 30
0.0
  0
SPLINE
  5
15a
100
AcDbEntity
  8
0
 62
7
100
AcDbSpline
 70
8
 71
3
 72
8
 73
4
 74
0
 40
0
 40
0
 40
0
 40
0
 40
1
 40
1
 40
1
 40
1
 10
-103.729225
 20
-79.152401
 30
0.0
 10
-102.757674
 20
-78.749971
 30
0.0
 10
-102.124205
 20
-77.801919
 30
0.0
 10
-102.124205
 20
-76.750319
 30
0.0
  0
SPLINE
  5
15b
100
AcDbEntity
  8
0
 62
7
100
AcDbSpline
 70
8
 71
3
 72
8
 73
4
 74
0
 40
0
 40
0
 40
0
 40
0
 40
1
 40
1
 40
1
 40
1
 10
-102.124205
 20
-76.750319
 30
0.0
 10
-102.124205
 20
-76.060757
 30
0.0
 10
-102.398132
 20
-75.399439
 30
0.0
 10
-102.885726
 20
-74.911845
 30
0.0
  0
SPLINE
  5
15c
100
AcDbEntity
  8
0
 62
7
100
AcDbSpline
 70
8
 71
3
 72
8
 73
4
 74
0
 40
0
 40
0
 40
0
 40
0
 40
1
 40
1
 40
1
 40
1
 10
-102.885726
 20
-74.911845
 30
0.0
 10
-103.373320
 20
-74.424251
 30
0.0
 10
-104.034639
 20
-74.150324
 30
0.0
 10
-104.724200
 20
-74.150324
 30
0.0
  0
LWPOLYLINE
  5
15d
100
AcDbEntity
  8
0
 62
7
100
AcDbPolyline
 90
2
 70
0
 10
-228.549200
 20
-10.668663
 30
0.0
 10
-113.654840
 20
1.929737
 30
0.0
  0
SPLINE
  5
15e
100
AcDbEntity
  8
0
 62
7
100
AcDbSpline
 70
8
 71
3
 72
8
 73
4
 74
0
 40
0
 40
0
 40
0
 40
0
 40
1
 40
1
 40
1
 40
1
 10
-118.414800
 20
-3.308073
 30
0.0
 10
-119.466400
 20
-3.308073
 30
0.0
 10
-120.414452
 20
-3.941542
 30
0.0
 10
-120.816882
 20
-4.913093
 30
0.0
  0
SPLINE
  5
15f
100
AcDbEntity
  8
0
 62
7
100
AcDbSpline
 70
8
 71
3
 72
8
 73
4
 74
0
 40
0
 40
0
 40
0
 40
0
 40
1
 40
1
 40
1
 40
1
 10
-120.816882
 20
-4.913093
 30
0.0
 10
-121.219312
 20
-5.884644
 30
0.0
 10
-120.996867
 20
-7.002949
 30
0.0
 10
-120.253274
 20
-7.746542
 30
0.0
  0
SPLINE
  5
160
100
AcDbEntity
  8
0
 62
7
100
AcDbSpline
 70
8
 71
3
 72
8
 73
4
 74
0
 40
0
 40
0
 40
0
 40
0
 40
1
 40
1
 40
1
 40
1
 10
-120.253274
 20
-7.746542
 30
0.0
 10
-119.509681
 20
-8.490135
 30
0.0
 10
-118.391377
 20
-8.712580
 30
0.0
 10
-117.419825
 20
-8.310150
 30
0.0
  0
SPLINE
  5
161
100
AcDbEntity
  8
0
 62
7
100
AcDbSpline
 70
8
 71
3
 72
8
 73
4
 74
0
 40
0
 40
0
 40
0
 40
0
 40
1
 40
1
 40
1
 40
1
 10
-117.419825
 20
-8.310150
 30
0.0
 10
-116.448274
 20
-7.907720
 30
0.0
 10
-115.814805
 20
-6.959668
 30
0.0
 10
-115.814805
 20
-5.908068
 30
0.0
  0
SPLINE
  5
162
100
AcDbEntity
  8
0
 62
7
100
AcDbSpline
 70
8
 71
3
 72
8
 73
4
 74
0
 40
0
 40
0
 40
0
 40
0
 40
1
 40
1
 40
1
 40
1
 10
-115.814805
 20
-5.908068
 30
0.0
 10
-115.814805
 20
-5.218506
 30
0.0
 10
-116.088732
 20
-4.557188
 30
0.0
 10
-116.576326
 20
-4.069594
 30
0.0
  0
SPLINE
  5
163
100
AcDbEntity
  8
0
 62
7
100
AcDbSpline
 70
8
 71
3
 72
8
 73
4
 74
0
 40
0
 40
0
 40
0
 40
0
 40
1
 40
1
 40
1
 40
1
 10
-116.576326
 20
-4.069594
 30
0.0
 10
-117.063920
 20
-3.582000
 30
0.0
 10
-117.725239
 20
-3.308073
 30
0.0
 10
-118.414800
 20
-3.308073
 30
0.0
  0
LWPOLYLINE
  5
164
100
AcDbEntity
  8
0
 62
7
100
AcDbPolyline
 90
1
 70
1
 10
-104.724200
 20
-74.150324
 30
0.0
  0
SPLINE
  5
165
100
AcDbEntity
  8
0
 62
7
100
AcDbSpline
 70
8
 71
3
 72
8
 73
4
 74
0
 40
0
 40
0
 40
0
 40
0
 40
1
 40
1
 40
1
 40
1
 10
-111.866680
 20
0.640362
 30
0.0
 10
-112.122883
 20
1.408974
 30
0.0
 10
-112.842112
 20
1.927458
 30
0.0
 10
-113.652300
 20
1.927596
 30
0.0
  0
SPLINE
  5
166
100
AcDbEntity
  8
0
 62
7
100
AcDbSpline
 70
8
 71
3
 72
8
 73
4
 74
0
 40
0
 40
0
 40
0
 40
0
 40
1
 40
1
 40
1
 40
1
 10
-218.428316
 20
-127.944273
 30
0.0
 10
-218.243953
 20
-127.957373
 30
0.0
 10
-218.059072
 20
-127.927371
 30
0.0
 10
-217.888312
 20
-127.856643
 30
0.0
  0
LWPOLYLINE
  5
167
100
AcDbEntity
  8
0
 62
7
100
AcDbPolyline
 90
1
 70
1
 10
-118.414800
 20
-3.308073
 30
0.0
  0
SPLINE
  5
168
100
AcDbEntity
  8
0
 62
7
100
AcDbSpline
 70
8
 71
3
 72
8
 73
4
 74
0
 40
0
 40
0
 40
0
 40
0
 40
1
 40
1
 40
1
 40
1
 10
-248.194065
 20
-71.550329
 30
0.0
 10
-250.297265
 20
-71.550329
 30
0.0
 10
-252.193370
 20
-72.817266
 30
0.0
 10
-252.998229
 20
-74.760369
 30
0.0
  0
SPLINE
  5
169
100
AcDbEntity
  8
0
 62
7
100
AcDbSpline
 70
8
 71
3
 72
8
 73
4
 74
0
 40
0
 40
0
 40
0
 40
0
 40
1
 40
1
 40
1
 40
1
 10
-252.998229
 20
-74.760369
 30
0.0
 10
-253.803089
 20
-76.703472
 30
0.0
 10
-253.358200
 20
-78.940080
 30
0.0
 10
-251.871013
 20
-80.427267
 30
0.0
  0
SPLINE
  5
16a
100
AcDbEntity
  8
0
 62
7
100
AcDbSpline
 70
8
 71
3
 72
8
 73
4
 74
0
 40
0
 40
0
 40
0
 40
0
 40
1
 40
1
 40
1
 40
1
 10
-251.871013
 20
-80.427267
 30
0.0
 10
-250.383827
 20
-81.914453
 30
0.0
 10
-248.147219
 20
-82.359342
 30
0.0
 10
-246.204116
 20
-81.554483
 30
0.0
  0
SPLINE
  5
16b
100
AcDbEntity
  8
0
 62
7
100
AcDbSpline
 70
8
 71
3
 72
8
 73
4
 74
0
 40
0
 40
0
 40
0
 40
0
 40
1
 40
1
 40
1
 40
1
 10
-246.204116
 20
-81.554483
 30
0.0
 10
-244.261013
 20
-80.749623
 30
0.0
 10
-242.994076
 20
-78.853518
 30
0.0
 10
-242.994076
 20
-76.750319
 30
0.0
  0
SPLINE
  5
16c
100
AcDbEntity
  8
0
 62
7
100
AcDbSpline
 70
8
 71
3
 72
8
 73
4
 74
0
 40
0
 40
0
 40
0
 40
0
 40
1
 40
1
 40
1
 40
1
 10
-242.994076
 20
-76.750319
 30
0.0
 10
-242.994076
 20
-73.878444
 30
0.0
 10
-245.322191
 20
-71.550329
 30
0.0
 10
-248.194065
 20
-71.550329
 30
0.0
  0
LWPOLYLINE
  5
16d
100
AcDbEntity
  8
0
 62
7
100
AcDbPolyline
 90
2
 70
0
 10
-217.888820
 20
-127.854103
 30
0.0
 10
-97.581720
 20
-82.106163
 30
0.0
  0
LWPOLYLINE
  5
16e
100
AcDbEntity
  8
0
 62
7
100
AcDbPolyline
 90
1
 70
1
 10
-248.194065
 20
-71.550329
 30
0.0
  0
ENDSEC
  0
SECTION
  2
OBJECTS
  0
DICTIONARY
  5
C
330
0
100
AcDbDictionary
  3
ACAD_GROUP
350
D
  3
ACAD_MLINESTYLE
350
17
  0
DICTIONARY
  5
D
330
C
100
AcDbDictionary
  0
DICTIONARY
  5
1A
330
C
100
AcDbDictionary
  0
DICTIONARY
  5
17
330
C
100
AcDbDictionary
  3
STANDARD
350
18
  0
DICTIONARY
  5
19
330
C
100
AcDbDictionary
  0
ENDSEC
  0
EOF
