<?xml version="1.0" standalone="no"?>
 <!DOCTYPE svg PUBLIC "-//W3C//DTD SVG 1.1//EN" 
 "http://www.w3.org/Graphics/SVG/1.1/DTD/svg11.dtd"> 
<svg
  xmlns:svg="http://www.w3.org/2000/svg"
  xmlns="http://www.w3.org/2000/svg"
  xmlns:xlink="http://www.w3.org/1999/xlink"
  version="1.1"
  width="30.347920cm" height="12.992100cm" viewBox="0 0 119480 51150">
<title>SVG Picture created as Sleepy Fox new case design SAS-brd.svg date 2021/05/21 14:14:30 </title>
  <desc>Picture generated by PCBNEW </desc>
<g style="fill:#000000; fill-opacity:1;stroke:#000000; stroke-opacity:1;
stroke-linecap:round; stroke-linejoin:round;"
 transform="translate(0 0) scale(1 1)">
</g>
<g style="fill:#000000; fill-opacity:0.0; 
stroke:#000000; stroke-width:-0.000393701; stroke-opacity:1; 
stroke-linecap:round; stroke-linejoin:round;">
<g >
</g>
<g >
</g>
<g >
</g>
<g >
</g>
<g >
</g>
</g>
<g style="fill:#000000; fill-opacity:0.0; 
stroke:#000000; stroke-width:-0.000393701; stroke-opacity:1; 
stroke-linecap:round; stroke-linejoin:round;">
</g>
<g style="fill:#000000; fill-opacity:0.0; 
stroke:#000000; stroke-width:19.685; stroke-opacity:1; 
stroke-linecap:round; stroke-linejoin:round;">
<path d="M4897 30282
L46850 48329
" />
<circle cx="8647.03" cy="3094.75" r="1023.62" /> 
<path d="M57162 42235
L48490 48329
" />
<path d="M62318 42235
L57162 42235
" />
<path d="M4193 29344
L7475 5438
" />
<path d="M47809 51105
L443 33094
" />
<path d="M7475 5438
L8412 4735
" />
<path d="M41693 5907
L56009 10126
" />
<path d="M33959 4735
L41693 5907
" />
<path d="M62318 42235
L70990 48329
" />
<path d="M63490 10126
L63490 4969
" />
<path d="M4897 30282
L4193 29344
" />
<path d="M46850 48329
L48490 48329
" />
<path d="M33959 4735
L8412 4735
" />
<path d="M47809.4 51106 A468.75 468.75 0.0 0 0 48022.1 51140.5" />
<path d="M72631 48329
L70990 48329
" />
<circle cx="59740.8" cy="47157.3" r="1023.62" /> 
<path d="M114603 30282
L115306 29344
" />
<path d="M67475 4969
L112709 9
" />
<path d="M85540 4735
L77806 5907
" />
<path d="M112025 5438
L111087 4735
" />
<path d="M63490 4969
L67475 4969
" />
<path d="M85540 4735
L111087 4735
" />
<circle cx="3256.4" cy="30985.4" r="1023.62" /> 
<path d="M113413 516.628 A741.16 741.16 0.0 0 0 112710 9.84291" />
<path d="M6772.02 9.84331 A741.159 741.159 0.0 0 0 6068.9 516.628" />
<path d="M6068 516
L9 32445
" />
<circle cx="116225" cy="30985.4" r="1023.62" /> 
<circle cx="66772.1" cy="7547.88" r="1023.62" /> 
<path d="M56009 4969
L52006 4969
" />
<circle cx="110835" cy="3094.75" r="1023.62" /> 
<path d="M48022 51140
L71459 51140
" />
<circle cx="52728.3" cy="7547.88" r="1023.62" /> 
<path d="M115306 29344
L112025 5438
" />
<path d="M52006 4969
L6772 9
" />
<path d="M71459.6 51140.5 A468.75 468.75 0.0 0 0 71672.2 51106" />
<path d="M113412 516
L119471 32445
" />
<path d="M77806 5907
L63490 10126
" />
<path d="M56009 4969
L56009 10126
" />
<path d="M114603 30282
L72650 48329
" />
<path d="M119038 33094.8 A703.125 703.125 0.0 0 0 119472 32445.2" />
<path d="M71672 51105
L119037 33094
" />
<path d="M9.84291 32445.2 A703.125 703.125 0.0 0 0 443.894 33094.8" />
<g >
</g>
<g >
</g>
<g >
</g>
<g >
</g>
<g >
</g>
</g> 
</svg>
