<?xml version="1.0" standalone="no"?>
 <!DOCTYPE svg PUBLIC "-//W3C//DTD SVG 1.1//EN" 
 "http://www.w3.org/Graphics/SVG/1.1/DTD/svg11.dtd"> 
<svg
  xmlns:svg="http://www.w3.org/2000/svg"
  xmlns="http://www.w3.org/2000/svg"
  xmlns:xlink="http://www.w3.org/1999/xlink"
  version="1.1"
  width="28.227020cm" height="11.076940cm" viewBox="0 0 111130 43610">
<title>SVG Picture created as Sleepy Fox new case design SAS-brd.svg date 2021/05/21 14:13:05 </title>
  <desc>Picture generated by PCBNEW </desc>
<g style="fill:#000000; fill-opacity:1;stroke:#000000; stroke-opacity:1;
stroke-linecap:round; stroke-linejoin:round;"
 transform="translate(0 0) scale(1 1)">
</g>
<g style="fill:#000000; fill-opacity:0.0; 
stroke:#000000; stroke-width:-0.000393701; stroke-opacity:1; 
stroke-linecap:round; stroke-linejoin:round;">
</g>
<g style="fill:#000000; fill-opacity:0.0; 
stroke:#000000; stroke-width:47.2441; stroke-opacity:1; 
stroke-linecap:round; stroke-linejoin:round;">
<path d="M6095 8312
L6957 2868
" />
<path d="M11539 9175
L6095 8312
" />
<path d="M12401 3731
L11539 9175
" />
<path d="M6957 2868
L12401 3731
" />
<path d="M63700 28144
L62838 22700
" />
<path d="M69144 27282
L63700 28144
" />
<path d="M68282 21838
L69144 27282
" />
<path d="M62838 22700
L68282 21838
" />
<path d="M44353 12473
L45215 7030
" />
<path d="M49797 13336
L44353 12473
" />
<path d="M50659 7892
L49797 13336
" />
<path d="M45215 7030
L50659 7892
" />
<path d="M99611 9168
L98749 3724
" />
<path d="M105055 8306
L99611 9168
" />
<path d="M104193 2862
L105055 8306
" />
<path d="M98749 3724
L104193 2862
" />
<path d="M77049 16538
L76187 11094
" />
<path d="M82493 15676
L77049 16538
" />
<path d="M81630 10232
L82493 15676
" />
<path d="M76187 11094
L81630 10232
" />
<path d="M92451 17895
L91589 12451
" />
<path d="M97895 17033
L92451 17895
" />
<path d="M97032 11589
L97895 17033
" />
<path d="M91589 12451
L97032 11589
" />
<path d="M85923 24624
L85061 19180
" />
<path d="M91367 23762
L85923 24624
" />
<path d="M90505 18318
L91367 23762
" />
<path d="M85061 19180
L90505 18318
" />
<path d="M83576 9809
L82714 4365
" />
<path d="M89020 8947
L83576 9809
" />
<path d="M88158 3503
L89020 8947
" />
<path d="M82714 4365
L88158 3503
" />
<path d="M22130 8954
L22992 3510
" />
<path d="M27573 9816
L22130 8954
" />
<path d="M28436 4372
L27573 9816
" />
<path d="M22992 3510
L28436 4372
" />
<path d="M69934 19563
L69072 14119
" />
<path d="M75378 18701
L69934 19563
" />
<path d="M74516 13257
L75378 18701
" />
<path d="M69072 14119
L74516 13257
" />
<path d="M101958 23983
L101095 18539
" />
<path d="M107402 23121
L101958 23983
" />
<path d="M106539 17677
L107402 23121
" />
<path d="M101095 18539
L106539 17677
" />
<path d="M27484 23090
L28346 17646
" />
<path d="M32928 23953
L27484 23090
" />
<path d="M33790 18509
L32928 23953
" />
<path d="M28346 17646
L33790 18509
" />
<path d="M34598 26116
L35461 20672
" />
<path d="M40042 26978
L34598 26116
" />
<path d="M40905 21534
L40042 26978
" />
<path d="M35461 20672
L40905 21534
" />
<path d="M71108 26971
L70245 21527
" />
<path d="M76552 26109
L71108 26971
" />
<path d="M75689 20665
L76552 26109
" />
<path d="M70245 21527
L75689 20665
" />
<path d="M79395 31353
L78533 25909
" />
<path d="M84839 30491
L79395 31353
" />
<path d="M83977 25047
L84839 30491
" />
<path d="M78533 25909
L83977 25047
" />
<path d="M75875 9130
L75013 3686
" />
<path d="M81319 8268
L75875 9130
" />
<path d="M80457 2824
L81319 8268
" />
<path d="M75013 3686
L80457 2824
" />
<path d="M36945 11300
L37807 5856
" />
<path d="M42389 12162
L36945 11300
" />
<path d="M43251 6718
L42389 12162
" />
<path d="M37807 5856
L43251 6718
" />
<path d="M42006 27289
L42868 21845
" />
<path d="M47450 28151
L42006 27289
" />
<path d="M48312 22707
L47450 28151
" />
<path d="M42868 21845
L48312 22707
" />
<path d="M91278 10488
L90415 5044
" />
<path d="M96721 9625
L91278 10488
" />
<path d="M95859 4181
L96721 9625
" />
<path d="M90415 5044
L95859 4181
" />
<path d="M14429 9632
L15291 4188
" />
<path d="M19872 10495
L14429 9632
" />
<path d="M20735 5051
L19872 10495
" />
<path d="M15291 4188
L20735 5051
" />
<path d="M100784 16575
L99922 11131
" />
<path d="M106228 15713
L100784 16575
" />
<path d="M105366 10269
L106228 15713
" />
<path d="M99922 11131
L105366 10269
" />
<path d="M33425 33523
L34287 28079
" />
<path d="M38869 34386
L33425 33523
" />
<path d="M39731 28942
L38869 34386
" />
<path d="M34287 28079
L39731 28942
" />
<path d="M12082 24448
L12944 19004
" />
<path d="M17526 25310
L12082 24448
" />
<path d="M18388 19866
L17526 25310
" />
<path d="M12944 19004
L18388 19866
" />
<path d="M68761 12156
L67899 6712
" />
<path d="M74205 11293
L68761 12156
" />
<path d="M73343 5849
L74205 11293
" />
<path d="M67899 6712
L73343 5849
" />
<path d="M13255 17040
L14118 11596
" />
<path d="M18699 17902
L13255 17040
" />
<path d="M19561 12458
L18699 17902
" />
<path d="M14118 11596
L19561 12458
" />
<path d="M52801 23331
L58312 23331
" />
<path d="M52801 29015
L52801 23331
" />
<path d="M58312 29015
L52801 29015
" />
<path d="M58312 23331
L58312 29015
" />
<path d="M78222 23946
L77360 18502
" />
<path d="M83666 23084
L78222 23946
" />
<path d="M82804 17640
L83666 23084
" />
<path d="M77360 18502
L82804 17640
" />
<path d="M93624 25303
L92762 19859
" />
<path d="M99068 24441
L93624 25303
" />
<path d="M98206 18997
L99068 24441
" />
<path d="M92762 19859
L98206 18997
" />
<path d="M43179 19881
L44042 14437
" />
<path d="M48623 20743
L43179 19881
" />
<path d="M49486 15299
L48623 20743
" />
<path d="M44042 14437
L49486 15299
" />
<path d="M20956 16361
L21819 10917
" />
<path d="M26400 17224
L20956 16361
" />
<path d="M27262 11780
L26400 17224
" />
<path d="M21819 10917
L27262 11780
" />
<path d="M4922 15720
L5784 10276
" />
<path d="M10366 16582
L4922 15720
" />
<path d="M11228 11138
L10366 16582
" />
<path d="M5784 10276
L11228 11138
" />
<path d="M61353 13329
L60491 7885
" />
<path d="M66797 12467
L61353 13329
" />
<path d="M65935 7023
L66797 12467
" />
<path d="M60491 7885
L65935 7023
" />
<path d="M29831 8275
L30693 2831
" />
<path d="M35275 9137
L29831 8275
" />
<path d="M36137 3693
L35275 9137
" />
<path d="M30693 2831
L36137 3693
" />
<path d="M72281 34379
L71419 28935
" />
<path d="M77725 33516
L72281 34379
" />
<path d="M76863 28072
L77725 33516
" />
<path d="M71419 28935
L76863 28072
" />
<path d="M35772 18708
L36634 13264
" />
<path d="M41216 19570
L35772 18708
" />
<path d="M42078 14126
L41216 19570
" />
<path d="M36634 13264
L42078 14126
" />
<path d="M84750 17217
L83888 11773
" />
<path d="M90194 16354
L84750 17217
" />
<path d="M89331 10911
L90194 16354
" />
<path d="M83888 11773
L89331 10911
" />
<path d="M28657 15683
L29520 10239
" />
<path d="M34101 16545
L28657 15683
" />
<path d="M34963 11101
L34101 16545
" />
<path d="M29520 10239
L34963 11101
" />
<path d="M42374 35204
L46834 31964
" />
<path d="M45614 39663
L42374 35204
" />
<path d="M50073 36423
L45614 39663
" />
<path d="M46834 31964
L50073 36423
" />
<path d="M64365 31972
L68824 35212
" />
<path d="M61126 36432
L64365 31972
" />
<path d="M65585 39671
L61126 36432
" />
<path d="M68824 35212
L65585 39671
" />
<path d="M26311 30498
L27173 25054
" />
<path d="M31755 31360
L26311 30498
" />
<path d="M32617 25916
L31755 31360
" />
<path d="M27173 25054
L32617 25916
" />
<path d="M62527 20736
L61664 15293
" />
<path d="M67971 19874
L62527 20736
" />
<path d="M67108 14430
L67971 19874
" />
<path d="M61664 15293
L67108 14430
" />
<path d="M3748 23128
L4611 17684
" />
<path d="M9192 23990
L3748 23128
" />
<path d="M10055 18546
L9192 23990
" />
<path d="M4611 17684
L10055 18546
" />
<path d="M19783 23769
L20645 18325
" />
<path d="M25227 24631
L19783 23769
" />
<path d="M26089 19187
L25227 24631
" />
<path d="M20645 18325
L26089 19187
" />
<g >
</g>
<g >
</g>
<g >
</g>
<g >
</g>
<g >
</g>
<g >
</g>
<g >
</g>
<g >
</g>
<g >
</g>
<g >
</g>
<g >
</g>
<g >
</g>
<g >
</g>
<g >
</g>
<g >
</g>
<g >
</g>
<g >
</g>
<g >
</g>
<g >
</g>
<g >
</g>
<g >
</g>
<g >
</g>
<g >
</g>
<g >
</g>
<g >
</g>
<g >
</g>
<g >
</g>
<g >
</g>
<g >
</g>
<g >
</g>
<g >
</g>
<g >
</g>
<g >
</g>
<g >
</g>
<g >
</g>
<g >
</g>
<g >
</g>
<g >
</g>
<g >
</g>
<g >
</g>
<g >
</g>
<g >
</g>
<g >
</g>
<g >
</g>
<g >
</g>
<g >
</g>
<g >
</g>
<g >
</g>
</g>
<g style="fill:#000000; fill-opacity:0.0; 
stroke:#000000; stroke-width:47.2441; stroke-opacity:1; 
stroke-linecap:round; stroke-linejoin:round;">
</g>
<g style="fill:#000000; fill-opacity:0.0; 
stroke:#000000; stroke-width:19.685; stroke-opacity:1; 
stroke-linecap:round; stroke-linejoin:round;">
<path d="M110419 25556
L68447 43603
" />
<path d="M51825 5400
L51825 20400
" />
<path d="M107841 712
L106903 9
" />
<path d="M111122 24619
L107841 712
" />
<path d="M81356 9
L106903 9
" />
<path d="M81356 9
L73622 1181
" />
<path d="M73622 1181
L59306 5400
" />
<path d="M110419 25556
L111122 24619
" />
<path d="M29775 9
L4228 9
" />
<path d="M59306 20400
L59306 5400
" />
<path d="M58134 37509
L66806 43603
" />
<path d="M3291 712
L4228 9
" />
<path d="M9 24619
L3291 712
" />
<path d="M58134 37509
L52978 37509
" />
<path d="M42666 43603
L44306 43603
" />
<path d="M712 25556
L9 24619
" />
<path d="M29775 9
L37509 1181
" />
<path d="M51825 20400
L59306 20400
" />
<path d="M712 25556
L42666 43603
" />
<path d="M37509 1181
L51825 5400
" />
<path d="M52978 37509
L44306 43603
" />
<path d="M68447 43603
L66806 43603
" />
<g >
</g>
<g >
</g>
<g >
</g>
<g >
</g>
<g >
</g>
<g >
</g>
<g >
</g>
<g >
</g>
<g >
</g>
<g >
</g>
<g >
</g>
<g >
</g>
<g >
</g>
<g >
</g>
<g >
</g>
<g >
</g>
<g >
</g>
<g >
</g>
<g >
</g>
<g >
</g>
<g >
</g>
<g >
</g>
<g >
</g>
<g >
</g>
<g >
</g>
<g >
</g>
<g >
</g>
<g >
</g>
<g >
</g>
<g >
</g>
<g >
</g>
<g >
</g>
<g >
</g>
<g >
</g>
<g >
</g>
<g >
</g>
<g >
</g>
<g >
</g>
<g >
</g>
<g >
</g>
<g >
</g>
<g >
</g>
<g >
</g>
<g >
</g>
<g >
</g>
<g >
</g>
<g >
</g>
<g >
</g>
</g> 
</svg>
