<?xml version="1.0" standalone="no"?>
 <!DOCTYPE svg PUBLIC "-//W3C//DTD SVG 1.1//EN" 
 "http://www.w3.org/Graphics/SVG/1.1/DTD/svg11.dtd"> 
<svg
  xmlns:svg="http://www.w3.org/2000/svg"
  xmlns="http://www.w3.org/2000/svg"
  xmlns:xlink="http://www.w3.org/1999/xlink"
  version="1.1"
  width="30.347920cm" height="12.992100cm" viewBox="0 0 119480 51150">
<title>SVG Picture created as Sleepy Fox new case design SAS-brd.svg date 2021/05/21 14:17:49 </title>
  <desc>Picture generated by PCBNEW </desc>
<g style="fill:#000000; fill-opacity:1;stroke:#000000; stroke-opacity:1;
stroke-linecap:round; stroke-linejoin:round;"
 transform="translate(0 0) scale(1 1)">
</g>
<g style="fill:#000000; fill-opacity:0.0; 
stroke:#000000; stroke-width:-0.000393701; stroke-opacity:1; 
stroke-linecap:round; stroke-linejoin:round;">
</g>
<g style="fill:#000000; fill-opacity:0.0; 
stroke:#000000; stroke-width:59.0551; stroke-opacity:1; 
stroke-linecap:round; stroke-linejoin:round;">
<path d="M85468 6412
L78060 7586
" />
</g>
<g style="fill:#000000; fill-opacity:0.0; 
stroke:#000000; stroke-width:47.2441; stroke-opacity:1; 
stroke-linecap:round; stroke-linejoin:round;">
<path d="M85468 6412
L85761 8264
" />
<path d="M78060 7586
L78353 9438
" />
</g>
<g style="fill:#000000; fill-opacity:0.0; 
stroke:#000000; stroke-width:59.0551; stroke-opacity:1; 
stroke-linecap:round; stroke-linejoin:round;">
<path d="M82753 37216
L90161 36043
" />
</g>
<g style="fill:#000000; fill-opacity:0.0; 
stroke:#000000; stroke-width:47.2441; stroke-opacity:1; 
stroke-linecap:round; stroke-linejoin:round;">
<path d="M90161 36043
L89281 30487
" />
</g>
<g style="fill:#000000; fill-opacity:0.0; 
stroke:#000000; stroke-width:59.0551; stroke-opacity:1; 
stroke-linecap:round; stroke-linejoin:round;">
<path d="M96982 31166
L104389 29993
" />
</g>
<g style="fill:#000000; fill-opacity:0.0; 
stroke:#000000; stroke-width:47.2441; stroke-opacity:1; 
stroke-linecap:round; stroke-linejoin:round;">
<path d="M96982 31166
L96688 29314
" />
</g>
<g style="fill:#000000; fill-opacity:0.0; 
stroke:#000000; stroke-width:59.0551; stroke-opacity:1; 
stroke-linecap:round; stroke-linejoin:round;">
<path d="M54807 19199
L53634 26606
" />
<path d="M65884 26599
L67058 34007
" />
</g>
<g style="fill:#000000; fill-opacity:0.0; 
stroke:#000000; stroke-width:47.2441; stroke-opacity:1; 
stroke-linecap:round; stroke-linejoin:round;">
<path d="M67058 34007
L74465 32834
" />
</g>
<g style="fill:#000000; fill-opacity:0.0; 
stroke:#000000; stroke-width:59.0551; stroke-opacity:1; 
stroke-linecap:round; stroke-linejoin:round;">
<path d="M5869 28533
L7042 21125
" />
<path d="M5869 28533
L15129 30000
" />
<path d="M18648 7777
L26056 8950
" />
<path d="M63538 11784
L64711 19192
" />
<path d="M70946 10611
L63538 11784
" />
<path d="M75639 40242
L83046 39068
" />
</g>
<g style="fill:#000000; fill-opacity:0.0; 
stroke:#000000; stroke-width:47.2441; stroke-opacity:1; 
stroke-linecap:round; stroke-linejoin:round;">
<path d="M83046 39068
L82753 37216
" />
<path d="M75639 40242
L74465 32834
" />
</g>
<g style="fill:#000000; fill-opacity:0.0; 
stroke:#000000; stroke-width:59.0551; stroke-opacity:1; 
stroke-linecap:round; stroke-linejoin:round;">
<path d="M78353 9438
L70946 10611
" />
<path d="M100870 7770
L93462 8943
" />
<path d="M111302 13711
L110129 6303
" />
<path d="M110129 6303
L100870 7770
" />
<path d="M112476 21118
L111302 13711
" />
<path d="M64711 19192
L65884 26599
" />
<path d="M89281 30487
L96688 29314
" />
<path d="M113649 28526
L112476 21118
" />
<path d="M113649 28526
L104389 29993
" />
<path d="M93169 7091
L85761 8264
" />
</g>
<g style="fill:#000000; fill-opacity:0.0; 
stroke:#000000; stroke-width:47.2441; stroke-opacity:1; 
stroke-linecap:round; stroke-linejoin:round;">
<path d="M93169 7091
L93462 8943
" />
</g>
<g style="fill:#000000; fill-opacity:0.0; 
stroke:#000000; stroke-width:59.0551; stroke-opacity:1; 
stroke-linecap:round; stroke-linejoin:round;">
<path d="M8216 13718
L9389 6310
" />
<path d="M9389 6310
L18648 7777
" />
<path d="M7042 21125
L8216 13718
" />
<path d="M22536 31173
L15129 30000
" />
</g>
<g style="fill:#000000; fill-opacity:0.0; 
stroke:#000000; stroke-width:47.2441; stroke-opacity:1; 
stroke-linecap:round; stroke-linejoin:round;">
<path d="M22536 31173
L22830 29321
" />
</g>
<g style="fill:#000000; fill-opacity:0.0; 
stroke:#000000; stroke-width:59.0551; stroke-opacity:1; 
stroke-linecap:round; stroke-linejoin:round;">
<path d="M30237 30494
L22830 29321
" />
<path d="M34051 6419
L41458 7592
" />
</g>
<g style="fill:#000000; fill-opacity:0.0; 
stroke:#000000; stroke-width:47.2441; stroke-opacity:1; 
stroke-linecap:round; stroke-linejoin:round;">
<path d="M34050 6419
L33757 8271
" />
<path d="M41458 7592
L41165 9444
" />
</g>
<g style="fill:#000000; fill-opacity:0.0; 
stroke:#000000; stroke-width:59.0551; stroke-opacity:1; 
stroke-linecap:round; stroke-linejoin:round;">
<path d="M55980 11791
L54807 19199
" />
<path d="M48573 10618
L55980 11791
" />
<path d="M41165 9444
L48573 10618
" />
<path d="M26349 7098
L33757 8271
" />
</g>
<g style="fill:#000000; fill-opacity:0.0; 
stroke:#000000; stroke-width:47.2441; stroke-opacity:1; 
stroke-linecap:round; stroke-linejoin:round;">
<path d="M26349 7098
L26056 8950
" />
</g>
<g style="fill:#000000; fill-opacity:0.0; 
stroke:#000000; stroke-width:59.0551; stroke-opacity:1; 
stroke-linecap:round; stroke-linejoin:round;">
<path d="M43879 40248
L36472 39075
" />
</g>
<g style="fill:#000000; fill-opacity:0.0; 
stroke:#000000; stroke-width:47.2441; stroke-opacity:1; 
stroke-linecap:round; stroke-linejoin:round;">
<path d="M36472 39075
L36765 37223
" />
<path d="M43879 40248
L45053 32841
" />
</g>
<g style="fill:#000000; fill-opacity:0.0; 
stroke:#000000; stroke-width:59.0551; stroke-opacity:1; 
stroke-linecap:round; stroke-linejoin:round;">
<path d="M36765 37223
L29357 36050
" />
</g>
<g style="fill:#000000; fill-opacity:0.0; 
stroke:#000000; stroke-width:47.2441; stroke-opacity:1; 
stroke-linecap:round; stroke-linejoin:round;">
<path d="M29357 36050
L30237 30494
" />
</g>
<g style="fill:#000000; fill-opacity:0.0; 
stroke:#000000; stroke-width:59.0551; stroke-opacity:1; 
stroke-linecap:round; stroke-linejoin:round;">
<path d="M53634 26606
L52460 34014
" />
</g>
<g style="fill:#000000; fill-opacity:0.0; 
stroke:#000000; stroke-width:47.2441; stroke-opacity:1; 
stroke-linecap:round; stroke-linejoin:round;">
<path d="M52460 34014
L45053 32841
" />
<path d="M57163 40267
L48061 46879
" />
<path d="M48061 46879
L43653 40812
" />
<path d="M57163 40267
L52754 34199
" />
<path d="M52754 34199
L43653 40812
" />
<path d="M75914 40820
L66812 34207
" />
<path d="M66812 34207
L62404 40275
" />
<path d="M62404 40275
L71506 46888
" />
<path d="M71506 46888
L75914 40820
" />
<g >
</g>
<g >
</g>
<g >
</g>
<g >
</g>
<g >
</g>
<g >
</g>
<g >
</g>
<g >
</g>
<g >
</g>
<g >
</g>
<g >
</g>
<g >
</g>
<g >
</g>
<g >
</g>
<g >
</g>
<g >
</g>
<g >
</g>
<g >
</g>
<g >
</g>
<g >
</g>
<g >
</g>
<g >
</g>
<g >
</g>
<g >
</g>
<g >
</g>
<g >
</g>
<g >
</g>
<g >
</g>
<g >
</g>
<g >
</g>
<g >
</g>
<g >
</g>
<g >
</g>
<g >
</g>
<g >
</g>
<g >
</g>
<g >
</g>
<g >
</g>
<g >
</g>
<g >
</g>
<g >
</g>
<g >
</g>
<g >
</g>
<g >
</g>
<g >
</g>
<g >
</g>
<g >
</g>
<g >
</g>
<g >
</g>
<g >
</g>
<g >
</g>
<g >
</g>
<g >
</g>
<g >
</g>
<g >
</g>
<g >
</g>
<g >
</g>
<g >
</g>
<g >
</g>
<g >
</g>
<g >
</g>
<g >
</g>
<g >
</g>
<g >
</g>
<g >
</g>
<g >
</g>
<g >
</g>
</g>
<g style="fill:#000000; fill-opacity:0.0; 
stroke:#000000; stroke-width:47.2441; stroke-opacity:1; 
stroke-linecap:round; stroke-linejoin:round;">
</g>
<g style="fill:#000000; fill-opacity:0.0; 
stroke:#000000; stroke-width:19.685; stroke-opacity:1; 
stroke-linecap:round; stroke-linejoin:round;">
<circle cx="59740.8" cy="47157.3" r="1023.62" /> 
<circle cx="8647.03" cy="3094.75" r="1023.62" /> 
<path d="M47809.4 51106 A468.75 468.75 0.0 0 0 48022.1 51140.5" />
<path d="M47809 51105
L443 33094
" />
<path d="M9.84291 32445.2 A703.125 703.125 0.0 0 0 443.894 33094.8" />
<circle cx="3256.4" cy="30985.4" r="1023.62" /> 
<path d="M6772.02 9.84331 A741.159 741.159 0.0 0 0 6068.9 516.628" />
<circle cx="66772.1" cy="7547.88" r="1023.62" /> 
<path d="M6068 516
L9 32445
" />
<path d="M67475 4969
L52006 4969
" />
<path d="M52006 4969
L6772 9
" />
<path d="M48022 51140
L71459 51140
" />
<circle cx="52728.3" cy="7547.88" r="1023.62" /> 
<path d="M113412 516
L119471 32445
" />
<path d="M67475 4969
L112709 9
" />
<path d="M119038 33094.8 A703.125 703.125 0.0 0 0 119472 32445.2" />
<circle cx="116225" cy="30985.4" r="1023.62" /> 
<circle cx="110835" cy="3094.75" r="1023.62" /> 
<path d="M113413 516.628 A741.16 741.16 0.0 0 0 112710 9.84291" />
<path d="M71459.6 51140.5 A468.75 468.75 0.0 0 0 71672.2 51106" />
<path d="M71672 51105
L119037 33094
" />
<circle cx="59740.8" cy="30985.4" r="2047.24" /> 
<g >
</g>
<g >
</g>
<g >
</g>
<g >
</g>
<g >
</g>
<g >
</g>
<g >
</g>
<g >
</g>
<g >
</g>
<g >
</g>
<g >
</g>
<g >
</g>
<g >
</g>
<g >
</g>
<g >
</g>
<g >
</g>
<g >
</g>
<g >
</g>
<g >
</g>
<g >
</g>
<g >
</g>
<g >
</g>
<g >
</g>
<g >
</g>
<g >
</g>
<g >
</g>
<g >
</g>
<g >
</g>
<g >
</g>
<g >
</g>
<g >
</g>
<g >
</g>
<g >
</g>
<g >
</g>
<g >
</g>
<g >
</g>
<g >
</g>
<g >
</g>
<g >
</g>
<g >
</g>
<g >
</g>
<g >
</g>
<g >
</g>
<g >
</g>
<g >
</g>
<g >
</g>
<g >
</g>
<g >
</g>
<g >
</g>
<g >
</g>
<g >
</g>
<g >
</g>
<g >
</g>
<g >
</g>
<g >
</g>
<g >
</g>
<g >
</g>
<g >
</g>
<g >
</g>
<g >
</g>
<g >
</g>
<g >
</g>
<g >
</g>
<g >
</g>
<g >
</g>
<g >
</g>
<g >
</g>
</g> 
</svg>
