  0
SECTION
  2
HEADER
  9
$ACADVER
  1
AC1014
  9
$HANDSEED
  5
FFFF
  9
$MEASUREMENT
 70
     1
  0
ENDSEC
  0
SECTION
  2
TABLES
  0
TABLE
  2
VPORT
  5
8
330
0
100
AcDbSymbolTable
 70
     4
  0
VPORT
  5
2E
330
8
100
AcDbSymbolTableRecord
100
AcDbViewportTableRecord
  2
*ACTIVE
 70
     0
 10
0.0
 20
0.0
 11
1.0
 21
1.0
 12
210.0
 22
148.5
 13
0.0
 23
0.0
 14
10.0
 24
10.0
 15
10.0
 25
10.0
 16
0.0
 26
0.0
 36
1.0
 17
0.0
 27
0.0
 37
0.0
 40
341.0
 41
1.24
 42
50.0
 43
0.0
 44
0.0
 50
0.0
 51
0.0
 71
     0
 72
   100
 73
     1
 74
     3
 75
     0
 76
     0
 77
     0
 78
     0
  0
ENDTAB
  0
TABLE
  2
LTYPE
  5
5
330
0
100
AcDbSymbolTable
 70
     1
  0
LTYPE
  5
14
330
5
100
AcDbSymbolTableRecord
100
AcDbLinetypeTableRecord
  2
BYBLOCK
 70
     0
  3

 72
    65
 73
     0
 40
0.0
  0
LTYPE
  5
15
330
5
100
AcDbSymbolTableRecord
100
AcDbLinetypeTableRecord
  2
BYLAYER
 70
     0
  3

 72
    65
 73
     0
 40
0.0
  0
LTYPE
  5
16
330
5
100
AcDbSymbolTableRecord
100
AcDbLinetypeTableRecord
  2
CONTINUOUS
 70
     0
  3
Solid line
 72
    65
 73
     0
 40
0.0
  0
ENDTAB
  0
TABLE
  2
LAYER
  5
2
100
AcDbSymbolTable
 70
1
  0
LAYER
  5
50
100
AcDbSymbolTableRecord
100
AcDbLayerTableRecord
  2
0
 70
0
  6
CONTINUOUS
  0
ENDTAB
  0
TABLE
  2
STYLE
  5
3
330
0
100
AcDbSymbolTable
 70
     1
  0
STYLE
  5
11
330
3
100
AcDbSymbolTableRecord
100
AcDbTextStyleTableRecord
  2
STANDARD
 70
     0
 40
0.0
 41
1.0
 50
0.0
 71
     0
 42
2.5
  3
txt
  4

  0
ENDTAB
  0
TABLE
  2
VIEW
  5
6
330
0
100
AcDbSymbolTable
 70
     0
  0
ENDTAB
  0
TABLE
  2
UCS
  5
7
330
0
100
AcDbSymbolTable
 70
     0
  0
ENDTAB
  0
TABLE
  2
APPID
  5
9
330
0
100
AcDbSymbolTable
 70
     2
  0
APPID
  5
12
330
9
100
AcDbSymbolTableRecord
100
AcDbRegAppTableRecord
  2
ACAD
 70
     0
  0
ENDTAB
  0
TABLE
  2
DIMSTYLE
  5
A
330
0
100
AcDbSymbolTable
 70
     1
  0
DIMSTYLE
105
27
330
A
100
AcDbSymbolTableRecord
100
AcDbDimStyleTableRecord
  2
ISO-25
 70
     0
  3

  4

  5

  6

  7

 40
1.0
 41
2.5
 42
0.625
 43
3.75
 44
1.25
 45
0.0
 46
0.0
 47
0.0
 48
0.0
140
2.5
141
2.5
142
0.0
143
0.03937007874016
144
1.0
145
0.0
146
1.0
147
0.625
 71
     0
 72
     0
 73
     0
 74
     0
 75
     0
 76
     0
 77
     1
 78
     8
170
     0
171
     3
172
     1
173
     0
174
     0
175
     0
176
     0
177
     0
178
     0
270
     2
271
     2
272
     2
273
     2
274
     3
340
11
275
     0
280
     0
281
     0
282
     0
283
     0
284
     8
285
     0
286
     0
287
     3
288
     0
  0
ENDTAB
  0
TABLE
  2
BLOCK_RECORD
  5
1
330
0
100
AcDbSymbolTable
 70
     1
  0
BLOCK_RECORD
  5
1F
330
1
100
AcDbSymbolTableRecord
100
AcDbBlockTableRecord
  2
*MODEL_SPACE
  0
BLOCK_RECORD
  5
1B
330
1
100
AcDbSymbolTableRecord
100
AcDbBlockTableRecord
  2
*PAPER_SPACE
  0
ENDTAB
  0
ENDSEC
  0
SECTION
  2
BLOCKS
  0
BLOCK
  5
20
330
1F
100
AcDbEntity
  8
0
100
AcDbBlockBegin
  2
*MODEL_SPACE
 70
     0
 10
0.0
 20
0.0
 30
0.0
  3
*MODEL_SPACE
  1

  0
ENDBLK
  5
21
330
1F
100
AcDbEntity
  8
0
100
AcDbBlockEnd
  0
BLOCK
  5
1C
330
1B
100
AcDbEntity
 67
     1
  8
0
100
AcDbBlockBegin
  2
*PAPER_SPACE
  1

  0
ENDBLK
  5
1D
330
1B
100
AcDbEntity
 67
     1
  8
0
100
AcDbBlockEnd
  0
ENDSEC
  0
SECTION
  2
ENTITIES
  0
LWPOLYLINE
  5
100
100
AcDbEntity
  8
0
 62
7
100
AcDbPolyline
 90
2
 70
0
 10
-277.860760
 20
-10.397058
 30
0.0
 10
-259.046980
 20
-13.376478
 30
0.0
  0
LWPOLYLINE
  5
101
100
AcDbEntity
  8
0
 62
7
100
AcDbPolyline
 90
2
 70
0
 10
-277.863300
 20
-10.397058
 30
0.0
 10
-278.607520
 20
-15.101138
 30
0.0
  0
LWPOLYLINE
  5
102
100
AcDbEntity
  8
0
 62
7
100
AcDbPolyline
 90
2
 70
0
 10
-259.046980
 20
-13.376478
 30
0.0
 10
-259.791200
 20
-18.080558
 30
0.0
  0
LWPOLYLINE
  5
103
100
AcDbEntity
  8
0
 62
7
100
AcDbPolyline
 90
3
 70
0
 10
-172.227240
 20
-96.307478
 30
0.0
 10
-153.413460
 20
-93.325518
 30
0.0
 10
-154.157680
 20
-88.621438
 30
0.0
  0
LWPOLYLINE
  5
104
100
AcDbEntity
  8
0
 62
7
100
AcDbPolyline
 90
2
 70
0
 10
-172.227240
 20
-96.307478
 30
0.0
 10
-175.209200
 20
-77.491158
 30
0.0
  0
LWPOLYLINE
  5
105
100
AcDbEntity
  8
0
 62
7
100
AcDbPolyline
 90
3
 70
0
 10
-154.157680
 20
-88.621438
 30
0.0
 10
-135.341360
 20
-85.642018
 30
0.0
 10
-137.576560
 20
-71.529778
 30
0.0
  0
LWPOLYLINE
  5
106
100
AcDbEntity
  8
0
 62
7
100
AcDbPolyline
 90
2
 70
0
 10
-118.016020
 20
-73.254438
 30
0.0
 10
-99.202240
 20
-70.275018
 30
0.0
  0
LWPOLYLINE
  5
107
100
AcDbEntity
  8
0
 62
7
100
AcDbPolyline
 90
2
 70
0
 10
-118.016020
 20
-73.254438
 30
0.0
 10
-118.762780
 20
-68.550358
 30
0.0
  0
LWPOLYLINE
  5
108
100
AcDbEntity
  8
0
 62
7
100
AcDbPolyline
 90
3
 70
0
 10
-197.004940
 20
-61.654258
 30
0.0
 10
-194.022980
 20
-80.470578
 30
0.0
 10
-175.209200
 20
-77.491158
 30
0.0
  0
LWPOLYLINE
  5
109
100
AcDbEntity
  8
0
 62
7
100
AcDbPolyline
 90
2
 70
0
 10
-225.140520
 20
-42.858258
 30
0.0
 10
-228.119940
 20
-61.672038
 30
0.0
  0
LWPOLYLINE
  5
10a
100
AcDbEntity
  8
0
 62
7
100
AcDbPolyline
 90
2
 70
0
 10
-127.701040
 20
-12.103938
 30
0.0
 10
-146.517360
 20
-15.083358
 30
0.0
  0
LWPOLYLINE
  5
10b
100
AcDbEntity
  8
0
 62
7
100
AcDbPolyline
 90
2
 70
0
 10
-127.701040
 20
-12.103938
 30
0.0
 10
-126.956820
 20
-16.808018
 30
0.0
  0
LWPOLYLINE
  5
10c
100
AcDbEntity
  8
0
 62
7
100
AcDbPolyline
 90
2
 70
0
 10
-349.443040
 20
-66.566618
 30
0.0
 10
-346.463620
 20
-47.750298
 30
0.0
  0
LWPOLYLINE
  5
10d
100
AcDbEntity
  8
0
 62
7
100
AcDbPolyline
 90
2
 70
0
 10
-349.443040
 20
-66.566618
 30
0.0
 10
-325.922640
 20
-70.292798
 30
0.0
  0
LWPOLYLINE
  5
10e
100
AcDbEntity
  8
0
 62
7
100
AcDbPolyline
 90
2
 70
0
 10
-78.661260
 20
-47.732518
 30
0.0
 10
-81.643220
 20
-28.918738
 30
0.0
  0
LWPOLYLINE
  5
10f
100
AcDbEntity
  8
0
 62
7
100
AcDbPolyline
 90
2
 70
0
 10
-75.681840
 20
-66.548838
 30
0.0
 10
-78.661260
 20
-47.732518
 30
0.0
  0
LWPOLYLINE
  5
110
100
AcDbEntity
  8
0
 62
7
100
AcDbPolyline
 90
2
 70
0
 10
-75.681840
 20
-66.548838
 30
0.0
 10
-99.202240
 20
-70.275018
 30
0.0
  0
LWPOLYLINE
  5
111
100
AcDbEntity
  8
0
 62
7
100
AcDbPolyline
 90
3
 70
0
 10
-343.481660
 20
-28.936518
 30
0.0
 10
-340.502240
 20
-10.120198
 30
0.0
 10
-316.984380
 20
-13.846378
 30
0.0
  0
LWPOLYLINE
  5
112
100
AcDbEntity
  8
0
 62
7
100
AcDbPolyline
 90
2
 70
0
 10
-137.576560
 20
-71.529778
 30
0.0
 10
-118.762780
 20
-68.550358
 30
0.0
  0
LWPOLYLINE
  5
113
100
AcDbEntity
  8
0
 62
7
100
AcDbPolyline
 90
2
 70
0
 10
-316.984380
 20
-13.846378
 30
0.0
 10
-298.168060
 20
-16.825798
 30
0.0
  0
LWPOLYLINE
  5
114
100
AcDbEntity
  8
0
 62
7
100
AcDbPolyline
 90
2
 70
0
 10
-108.140500
 20
-13.828598
 30
0.0
 10
-126.956820
 20
-16.808018
 30
0.0
  0
LWPOLYLINE
  5
115
100
AcDbEntity
  8
0
 62
7
100
AcDbPolyline
 90
2
 70
0
 10
-202.963780
 20
-24.024158
 30
0.0
 10
-199.984360
 20
-42.840478
 30
0.0
  0
LWPOLYLINE
  5
116
100
AcDbEntity
  8
0
 62
7
100
AcDbPolyline
 90
2
 70
0
 10
-184.147460
 20
-21.044738
 30
0.0
 10
-202.963780
 20
-24.024158
 30
0.0
  0
LWPOLYLINE
  5
117
100
AcDbEntity
  8
0
 62
7
100
AcDbPolyline
 90
2
 70
0
 10
-287.548320
 20
-71.547558
 30
0.0
 10
-306.362100
 20
-68.568138
 30
0.0
  0
LWPOLYLINE
  5
118
100
AcDbEntity
  8
0
 62
7
100
AcDbPolyline
 90
2
 70
0
 10
-147.261580
 20
-10.379278
 30
0.0
 10
-166.077900
 20
-13.361238
 30
0.0
  0
LWPOLYLINE
  5
119
100
AcDbEntity
  8
0
 62
7
100
AcDbPolyline
 90
2
 70
0
 10
-147.261580
 20
-10.379278
 30
0.0
 10
-146.517360
 20
-15.083358
 30
0.0
  0
LWPOLYLINE
  5
11a
100
AcDbEntity
  8
0
 62
7
100
AcDbPolyline
 90
2
 70
0
 10
-166.077900
 20
-13.361238
 30
0.0
 10
-165.333680
 20
-18.065318
 30
0.0
  0
LWPOLYLINE
  5
11b
100
AcDbEntity
  8
0
 62
7
100
AcDbPolyline
 90
3
 70
0
 10
-81.643220
 20
-28.918738
 30
0.0
 10
-84.622640
 20
-10.102418
 30
0.0
 10
-108.140500
 20
-13.828598
 30
0.0
  0
LWPOLYLINE
  5
11c
100
AcDbEntity
  8
0
 62
7
100
AcDbPolyline
 90
2
 70
0
 10
-165.333680
 20
-18.065318
 30
0.0
 10
-184.147460
 20
-21.044738
 30
0.0
  0
LWPOLYLINE
  5
11d
100
AcDbEntity
  8
0
 62
7
100
AcDbPolyline
 90
2
 70
0
 10
-346.463620
 20
-47.750298
 30
0.0
 10
-343.481660
 20
-28.936518
 30
0.0
  0
LWPOLYLINE
  5
11e
100
AcDbEntity
  8
0
 62
7
100
AcDbPolyline
 90
2
 70
0
 10
-297.423840
 20
-12.121718
 30
0.0
 10
-278.607520
 20
-15.101138
 30
0.0
  0
LWPOLYLINE
  5
11f
100
AcDbEntity
  8
0
 62
7
100
AcDbPolyline
 90
2
 70
0
 10
-297.423840
 20
-12.121718
 30
0.0
 10
-298.168060
 20
-16.825798
 30
0.0
  0
LWPOLYLINE
  5
120
100
AcDbEntity
  8
0
 62
7
100
AcDbPolyline
 90
2
 70
0
 10
-199.984360
 20
-42.840478
 30
0.0
 10
-197.004940
 20
-61.654258
 30
0.0
  0
LWPOLYLINE
  5
121
100
AcDbEntity
  8
0
 62
7
100
AcDbPolyline
 90
3
 70
0
 10
-219.156280
 20
-96.370978
 30
0.0
 10
-242.275360
 20
-113.165458
 30
0.0
 10
-253.471680
 20
-97.755278
 30
0.0
  0
LWPOLYLINE
  5
122
100
AcDbEntity
  8
0
 62
7
100
AcDbPolyline
 90
3
 70
0
 10
-219.156280
 20
-96.370978
 30
0.0
 10
-230.355140
 20
-80.958258
 30
0.0
 10
-253.471680
 20
-97.755278
 30
0.0
  0
LWPOLYLINE
  5
123
100
AcDbEntity
  8
0
 62
7
100
AcDbPolyline
 90
4
 70
1
 10
-171.528740
 20
-97.775598
 30
0.0
 10
-194.647820
 20
-80.978578
 30
0.0
 10
-205.844140
 20
-96.391298
 30
0.0
 10
-182.725060
 20
-113.188318
 30
0.0
  0
LWPOLYLINE
  5
124
100
AcDbEntity
  8
0
 62
7
100
AcDbPolyline
 90
2
 70
0
 10
-222.161100
 20
-24.041938
 30
0.0
 10
-225.140520
 20
-42.858258
 30
0.0
  0
LWPOLYLINE
  5
125
100
AcDbEntity
  8
0
 62
7
100
AcDbPolyline
 90
2
 70
0
 10
-240.974880
 20
-21.062518
 30
0.0
 10
-222.161100
 20
-24.041938
 30
0.0
  0
LWPOLYLINE
  5
126
100
AcDbEntity
  8
0
 62
7
100
AcDbPolyline
 90
2
 70
0
 10
-259.791200
 20
-18.080558
 30
0.0
 10
-240.974880
 20
-21.062518
 30
0.0
  0
LWPOLYLINE
  5
127
100
AcDbEntity
  8
0
 62
7
100
AcDbPolyline
 90
3
 70
0
 10
-252.897640
 20
-96.322718
 30
0.0
 10
-271.711420
 20
-93.343298
 30
0.0
 10
-270.967200
 20
-88.639218
 30
0.0
  0
LWPOLYLINE
  5
128
100
AcDbEntity
  8
0
 62
7
100
AcDbPolyline
 90
2
 70
0
 10
-252.897640
 20
-96.322718
 30
0.0
 10
-249.915680
 20
-77.508938
 30
0.0
  0
LWPOLYLINE
  5
129
100
AcDbEntity
  8
0
 62
7
100
AcDbPolyline
 90
2
 70
0
 10
-307.108860
 20
-73.272218
 30
0.0
 10
-325.922640
 20
-70.292798
 30
0.0
  0
LWPOLYLINE
  5
12a
100
AcDbEntity
  8
0
 62
7
100
AcDbPolyline
 90
2
 70
0
 10
-307.108860
 20
-73.272218
 30
0.0
 10
-306.362100
 20
-68.568138
 30
0.0
  0
LWPOLYLINE
  5
12b
100
AcDbEntity
  8
0
 62
7
100
AcDbPolyline
 90
3
 70
0
 10
-270.967200
 20
-88.639218
 30
0.0
 10
-289.783520
 20
-85.659798
 30
0.0
 10
-287.548320
 20
-71.547558
 30
0.0
  0
SPLINE
  5
12c
100
AcDbEntity
  8
0
 62
7
100
AcDbSpline
 70
8
 71
3
 72
8
 73
4
 74
0
 40
0
 40
0
 40
0
 40
0
 40
1
 40
1
 40
1
 40
1
 10
-347.149369
 20
5.882200
 30
0.0
 10
-347.959669
 20
5.882194
 30
0.0
 10
-348.679056
 20
5.363685
 30
0.0
 10
-348.935294
 20
4.594967
 30
0.0
  0
LWPOLYLINE
  5
12d
100
AcDbEntity
  8
0
 62
7
100
AcDbPolyline
 90
3
 70
0
 10
-228.119940
 20
-61.672038
 30
0.0
 10
-231.101900
 20
-80.488358
 30
0.0
 10
-249.915680
 20
-77.508938
 30
0.0
  0
SPLINE
  5
12e
100
AcDbEntity
  8
0
 62
7
100
AcDbSpline
 70
8
 71
3
 72
8
 73
4
 74
0
 40
0
 40
0
 40
0
 40
0
 40
1
 40
1
 40
1
 40
1
 10
-76.281280
 20
4.594967
 30
0.0
 10
-76.537483
 20
5.363578
 30
0.0
 10
-77.256712
 20
5.882063
 30
0.0
 10
-78.066900
 20
5.882201
 30
0.0
  0
SPLINE
  5
12f
100
AcDbEntity
  8
0
 62
7
100
AcDbSpline
 70
8
 71
3
 72
8
 73
4
 74
0
 40
0
 40
0
 40
0
 40
0
 40
1
 40
1
 40
1
 40
1
 10
-242.914424
 20
-123.902038
 30
0.0
 10
-242.743586
 20
-123.972805
 30
0.0
 10
-242.558613
 20
-124.002808
 30
0.0
 10
-242.374166
 20
-123.989668
 30
0.0
  0
SPLINE
  5
130
100
AcDbEntity
  8
0
 62
7
100
AcDbSpline
 70
8
 71
3
 72
8
 73
4
 74
0
 40
0
 40
0
 40
0
 40
0
 40
1
 40
1
 40
1
 40
1
 10
-82.829400
 20
0.646532
 30
0.0
 10
-83.881000
 20
0.646532
 30
0.0
 10
-84.829052
 20
0.013063
 30
0.0
 10
-85.231482
 20
-0.958488
 30
0.0
  0
SPLINE
  5
131
100
AcDbEntity
  8
0
 62
7
100
AcDbSpline
 70
8
 71
3
 72
8
 73
4
 74
0
 40
0
 40
0
 40
0
 40
0
 40
1
 40
1
 40
1
 40
1
 10
-85.231482
 20
-0.958488
 30
0.0
 10
-85.633912
 20
-1.930040
 30
0.0
 10
-85.411467
 20
-3.048344
 30
0.0
 10
-84.667874
 20
-3.791937
 30
0.0
  0
SPLINE
  5
132
100
AcDbEntity
  8
0
 62
7
100
AcDbSpline
 70
8
 71
3
 72
8
 73
4
 74
0
 40
0
 40
0
 40
0
 40
0
 40
1
 40
1
 40
1
 40
1
 10
-84.667874
 20
-3.791937
 30
0.0
 10
-83.924281
 20
-4.535530
 30
0.0
 10
-82.805977
 20
-4.757975
 30
0.0
 10
-81.834425
 20
-4.355545
 30
0.0
  0
SPLINE
  5
133
100
AcDbEntity
  8
0
 62
7
100
AcDbSpline
 70
8
 71
3
 72
8
 73
4
 74
0
 40
0
 40
0
 40
0
 40
0
 40
1
 40
1
 40
1
 40
1
 10
-81.834425
 20
-4.355545
 30
0.0
 10
-80.862874
 20
-3.953115
 30
0.0
 10
-80.229405
 20
-3.005063
 30
0.0
 10
-80.229405
 20
-1.953463
 30
0.0
  0
SPLINE
  5
134
100
AcDbEntity
  8
0
 62
7
100
AcDbSpline
 70
8
 71
3
 72
8
 73
4
 74
0
 40
0
 40
0
 40
0
 40
0
 40
1
 40
1
 40
1
 40
1
 10
-80.229405
 20
-1.953463
 30
0.0
 10
-80.229405
 20
-1.263902
 30
0.0
 10
-80.503332
 20
-0.602583
 30
0.0
 10
-80.990926
 20
-0.114989
 30
0.0
  0
SPLINE
  5
135
100
AcDbEntity
  8
0
 62
7
100
AcDbSpline
 70
8
 71
3
 72
8
 73
4
 74
0
 40
0
 40
0
 40
0
 40
0
 40
1
 40
1
 40
1
 40
1
 10
-80.990926
 20
-0.114989
 30
0.0
 10
-81.478520
 20
0.372604
 30
0.0
 10
-82.139839
 20
0.646532
 30
0.0
 10
-82.829400
 20
0.646532
 30
0.0
  0
LWPOLYLINE
  5
136
100
AcDbEntity
  8
0
 62
7
100
AcDbPolyline
 90
2
 70
0
 10
-192.963800
 20
-6.714058
 30
0.0
 10
-78.069440
 20
5.884342
 30
0.0
  0
SPLINE
  5
137
100
AcDbEntity
  8
0
 62
7
100
AcDbSpline
 70
8
 71
3
 72
8
 73
4
 74
0
 40
0
 40
0
 40
0
 40
0
 40
1
 40
1
 40
1
 40
1
 10
-356.079044
 20
-70.195719
 30
0.0
 10
-357.130644
 20
-70.195719
 30
0.0
 10
-358.078696
 20
-70.829188
 30
0.0
 10
-358.481126
 20
-71.800739
 30
0.0
  0
SPLINE
  5
138
100
AcDbEntity
  8
0
 62
7
100
AcDbSpline
 70
8
 71
3
 72
8
 73
4
 74
0
 40
0
 40
0
 40
0
 40
0
 40
1
 40
1
 40
1
 40
1
 10
-358.481126
 20
-71.800739
 30
0.0
 10
-358.883556
 20
-72.772291
 30
0.0
 10
-358.661112
 20
-73.890595
 30
0.0
 10
-357.917518
 20
-74.634188
 30
0.0
  0
SPLINE
  5
139
100
AcDbEntity
  8
0
 62
7
100
AcDbSpline
 70
8
 71
3
 72
8
 73
4
 74
0
 40
0
 40
0
 40
0
 40
0
 40
1
 40
1
 40
1
 40
1
 10
-357.917518
 20
-74.634188
 30
0.0
 10
-357.173925
 20
-75.377781
 30
0.0
 10
-356.055621
 20
-75.600226
 30
0.0
 10
-355.084069
 20
-75.197796
 30
0.0
  0
SPLINE
  5
13a
100
AcDbEntity
  8
0
 62
7
100
AcDbSpline
 70
8
 71
3
 72
8
 73
4
 74
0
 40
0
 40
0
 40
0
 40
0
 40
1
 40
1
 40
1
 40
1
 10
-355.084069
 20
-75.197796
 30
0.0
 10
-354.112518
 20
-74.795366
 30
0.0
 10
-353.479049
 20
-73.847314
 30
0.0
 10
-353.479049
 20
-72.795714
 30
0.0
  0
SPLINE
  5
13b
100
AcDbEntity
  8
0
 62
7
100
AcDbSpline
 70
8
 71
3
 72
8
 73
4
 74
0
 40
0
 40
0
 40
0
 40
0
 40
1
 40
1
 40
1
 40
1
 10
-353.479049
 20
-72.795714
 30
0.0
 10
-353.479049
 20
-71.359777
 30
0.0
 10
-354.643107
 20
-70.195719
 30
0.0
 10
-356.079044
 20
-70.195719
 30
0.0
  0
LWPOLYLINE
  5
13c
100
AcDbEntity
  8
0
 62
7
100
AcDbPolyline
 90
1
 70
1
 10
-82.829400
 20
0.646532
 30
0.0
  0
LWPOLYLINE
  5
13d
100
AcDbEntity
  8
0
 62
7
100
AcDbPolyline
 90
1
 70
1
 10
-356.079044
 20
-70.195719
 30
0.0
  0
SPLINE
  5
13e
100
AcDbEntity
  8
0
 62
7
100
AcDbSpline
 70
8
 71
3
 72
8
 73
4
 74
0
 40
0
 40
0
 40
0
 40
0
 40
1
 40
1
 40
1
 40
1
 10
-194.749161
 20
-10.664418
 30
0.0
 10
-195.800761
 20
-10.664418
 30
0.0
 10
-196.748813
 20
-11.297887
 30
0.0
 10
-197.151243
 20
-12.269438
 30
0.0
  0
SPLINE
  5
13f
100
AcDbEntity
  8
0
 62
7
100
AcDbSpline
 70
8
 71
3
 72
8
 73
4
 74
0
 40
0
 40
0
 40
0
 40
0
 40
1
 40
1
 40
1
 40
1
 10
-197.151243
 20
-12.269438
 30
0.0
 10
-197.553673
 20
-13.240990
 30
0.0
 10
-197.331228
 20
-14.359294
 30
0.0
 10
-196.587635
 20
-15.102887
 30
0.0
  0
SPLINE
  5
140
100
AcDbEntity
  8
0
 62
7
100
AcDbSpline
 70
8
 71
3
 72
8
 73
4
 74
0
 40
0
 40
0
 40
0
 40
0
 40
1
 40
1
 40
1
 40
1
 10
-196.587635
 20
-15.102887
 30
0.0
 10
-195.844042
 20
-15.846480
 30
0.0
 10
-194.725737
 20
-16.068925
 30
0.0
 10
-193.754186
 20
-15.666495
 30
0.0
  0
SPLINE
  5
141
100
AcDbEntity
  8
0
 62
7
100
AcDbSpline
 70
8
 71
3
 72
8
 73
4
 74
0
 40
0
 40
0
 40
0
 40
0
 40
1
 40
1
 40
1
 40
1
 10
-193.754186
 20
-15.666495
 30
0.0
 10
-192.782635
 20
-15.264065
 30
0.0
 10
-192.149166
 20
-14.316013
 30
0.0
 10
-192.149166
 20
-13.264413
 30
0.0
  0
SPLINE
  5
142
100
AcDbEntity
  8
0
 62
7
100
AcDbSpline
 70
8
 71
3
 72
8
 73
4
 74
0
 40
0
 40
0
 40
0
 40
0
 40
1
 40
1
 40
1
 40
1
 10
-192.149166
 20
-13.264413
 30
0.0
 10
-192.149166
 20
-12.574852
 30
0.0
 10
-192.423093
 20
-11.913533
 30
0.0
 10
-192.910687
 20
-11.425939
 30
0.0
  0
SPLINE
  5
143
100
AcDbEntity
  8
0
 62
7
100
AcDbSpline
 70
8
 71
3
 72
8
 73
4
 74
0
 40
0
 40
0
 40
0
 40
0
 40
1
 40
1
 40
1
 40
1
 10
-192.910687
 20
-11.425939
 30
0.0
 10
-193.398281
 20
-10.938346
 30
0.0
 10
-194.059599
 20
-10.664418
 30
0.0
 10
-194.749161
 20
-10.664418
 30
0.0
  0
LWPOLYLINE
  5
144
100
AcDbEntity
  8
0
 62
7
100
AcDbPolyline
 90
2
 70
0
 10
-232.255060
 20
-6.714058
 30
0.0
 10
-347.149420
 20
5.884342
 30
0.0
  0
LWPOLYLINE
  5
145
100
AcDbEntity
  8
0
 62
7
100
AcDbPolyline
 90
1
 70
1
 10
-194.749161
 20
-10.664418
 30
0.0
  0
LWPOLYLINE
  5
146
100
AcDbEntity
  8
0
 62
7
100
AcDbPolyline
 90
2
 70
0
 10
-222.087440
 20
-6.714058
 30
0.0
 10
-222.087440
 20
-57.912838
 30
0.0
  0
LWPOLYLINE
  5
147
100
AcDbEntity
  8
0
 62
7
100
AcDbPolyline
 90
2
 70
0
 10
-192.963800
 20
-6.714058
 30
0.0
 10
-203.085700
 20
-6.714058
 30
0.0
  0
LWPOLYLINE
  5
148
100
AcDbEntity
  8
0
 62
7
100
AcDbPolyline
 90
2
 70
0
 10
-348.937580
 20
4.596562
 30
0.0
 10
-364.327440
 20
-76.503098
 30
0.0
  0
SPLINE
  5
149
100
AcDbEntity
  8
0
 62
7
100
AcDbSpline
 70
8
 71
3
 72
8
 73
4
 74
0
 40
0
 40
0
 40
0
 40
0
 40
1
 40
1
 40
1
 40
1
 10
-342.386843
 20
0.646532
 30
0.0
 10
-343.438443
 20
0.646532
 30
0.0
 10
-344.386495
 20
0.013063
 30
0.0
 10
-344.788925
 20
-0.958488
 30
0.0
  0
SPLINE
  5
14a
100
AcDbEntity
  8
0
 62
7
100
AcDbSpline
 70
8
 71
3
 72
8
 73
4
 74
0
 40
0
 40
0
 40
0
 40
0
 40
1
 40
1
 40
1
 40
1
 10
-344.788925
 20
-0.958488
 30
0.0
 10
-345.191355
 20
-1.930040
 30
0.0
 10
-344.968910
 20
-3.048344
 30
0.0
 10
-344.225317
 20
-3.791937
 30
0.0
  0
SPLINE
  5
14b
100
AcDbEntity
  8
0
 62
7
100
AcDbSpline
 70
8
 71
3
 72
8
 73
4
 74
0
 40
0
 40
0
 40
0
 40
0
 40
1
 40
1
 40
1
 40
1
 10
-344.225317
 20
-3.791937
 30
0.0
 10
-343.481724
 20
-4.535530
 30
0.0
 10
-342.363420
 20
-4.757975
 30
0.0
 10
-341.391868
 20
-4.355545
 30
0.0
  0
SPLINE
  5
14c
100
AcDbEntity
  8
0
 62
7
100
AcDbSpline
 70
8
 71
3
 72
8
 73
4
 74
0
 40
0
 40
0
 40
0
 40
0
 40
1
 40
1
 40
1
 40
1
 10
-341.391868
 20
-4.355545
 30
0.0
 10
-340.420317
 20
-3.953115
 30
0.0
 10
-339.786848
 20
-3.005063
 30
0.0
 10
-339.786848
 20
-1.953463
 30
0.0
  0
SPLINE
  5
14d
100
AcDbEntity
  8
0
 62
7
100
AcDbSpline
 70
8
 71
3
 72
8
 73
4
 74
0
 40
0
 40
0
 40
0
 40
0
 40
1
 40
1
 40
1
 40
1
 10
-339.786848
 20
-1.953463
 30
0.0
 10
-339.786848
 20
-1.263902
 30
0.0
 10
-340.060775
 20
-0.602583
 30
0.0
 10
-340.548369
 20
-0.114989
 30
0.0
  0
SPLINE
  5
14e
100
AcDbEntity
  8
0
 62
7
100
AcDbSpline
 70
8
 71
3
 72
8
 73
4
 74
0
 40
0
 40
0
 40
0
 40
0
 40
1
 40
1
 40
1
 40
1
 10
-340.548369
 20
-0.114989
 30
0.0
 10
-341.035963
 20
0.372604
 30
0.0
 10
-341.697282
 20
0.646532
 30
0.0
 10
-342.386843
 20
0.646532
 30
0.0
  0
LWPOLYLINE
  5
14f
100
AcDbEntity
  8
0
 62
7
100
AcDbPolyline
 90
2
 70
0
 10
-242.374420
 20
-123.988398
 30
0.0
 10
-182.844440
 20
-123.988398
 30
0.0
  0
SPLINE
  5
150
100
AcDbEntity
  8
0
 62
7
100
AcDbSpline
 70
8
 71
3
 72
8
 73
4
 74
0
 40
0
 40
0
 40
0
 40
0
 40
1
 40
1
 40
1
 40
1
 10
-230.420415
 20
-10.664418
 30
0.0
 10
-231.472015
 20
-10.664418
 30
0.0
 10
-232.420068
 20
-11.297887
 30
0.0
 10
-232.822497
 20
-12.269438
 30
0.0
  0
SPLINE
  5
151
100
AcDbEntity
  8
0
 62
7
100
AcDbSpline
 70
8
 71
3
 72
8
 73
4
 74
0
 40
0
 40
0
 40
0
 40
0
 40
1
 40
1
 40
1
 40
1
 10
-232.822497
 20
-12.269438
 30
0.0
 10
-233.224927
 20
-13.240990
 30
0.0
 10
-233.002483
 20
-14.359294
 30
0.0
 10
-232.258889
 20
-15.102887
 30
0.0
  0
SPLINE
  5
152
100
AcDbEntity
  8
0
 62
7
100
AcDbSpline
 70
8
 71
3
 72
8
 73
4
 74
0
 40
0
 40
0
 40
0
 40
0
 40
1
 40
1
 40
1
 40
1
 10
-232.258889
 20
-15.102887
 30
0.0
 10
-231.515296
 20
-15.846480
 30
0.0
 10
-230.396992
 20
-16.068925
 30
0.0
 10
-229.425441
 20
-15.666495
 30
0.0
  0
SPLINE
  5
153
100
AcDbEntity
  8
0
 62
7
100
AcDbSpline
 70
8
 71
3
 72
8
 73
4
 74
0
 40
0
 40
0
 40
0
 40
0
 40
1
 40
1
 40
1
 40
1
 10
-229.425441
 20
-15.666495
 30
0.0
 10
-228.453889
 20
-15.264065
 30
0.0
 10
-227.820421
 20
-14.316013
 30
0.0
 10
-227.820421
 20
-13.264413
 30
0.0
  0
SPLINE
  5
154
100
AcDbEntity
  8
0
 62
7
100
AcDbSpline
 70
8
 71
3
 72
8
 73
4
 74
0
 40
0
 40
0
 40
0
 40
0
 40
1
 40
1
 40
1
 40
1
 10
-227.820421
 20
-13.264413
 30
0.0
 10
-227.820421
 20
-12.574852
 30
0.0
 10
-228.094348
 20
-11.913533
 30
0.0
 10
-228.581942
 20
-11.425939
 30
0.0
  0
SPLINE
  5
155
100
AcDbEntity
  8
0
 62
7
100
AcDbSpline
 70
8
 71
3
 72
8
 73
4
 74
0
 40
0
 40
0
 40
0
 40
0
 40
1
 40
1
 40
1
 40
1
 10
-228.581942
 20
-11.425939
 30
0.0
 10
-229.069535
 20
-10.938346
 30
0.0
 10
-229.730854
 20
-10.664418
 30
0.0
 10
-230.420415
 20
-10.664418
 30
0.0
  0
LWPOLYLINE
  5
156
100
AcDbEntity
  8
0
 62
7
100
AcDbPolyline
 90
1
 70
1
 10
-342.386843
 20
0.646532
 30
0.0
  0
SPLINE
  5
157
100
AcDbEntity
  8
0
 62
7
100
AcDbSpline
 70
8
 71
3
 72
8
 73
4
 74
0
 40
0
 40
0
 40
0
 40
0
 40
1
 40
1
 40
1
 40
1
 10
-69.138800
 20
-70.195719
 30
0.0
 10
-70.190400
 20
-70.195719
 30
0.0
 10
-71.138452
 20
-70.829188
 30
0.0
 10
-71.540882
 20
-71.800739
 30
0.0
  0
SPLINE
  5
158
100
AcDbEntity
  8
0
 62
7
100
AcDbSpline
 70
8
 71
3
 72
8
 73
4
 74
0
 40
0
 40
0
 40
0
 40
0
 40
1
 40
1
 40
1
 40
1
 10
-71.540882
 20
-71.800739
 30
0.0
 10
-71.943312
 20
-72.772291
 30
0.0
 10
-71.720867
 20
-73.890595
 30
0.0
 10
-70.977274
 20
-74.634188
 30
0.0
  0
SPLINE
  5
159
100
AcDbEntity
  8
0
 62
7
100
AcDbSpline
 70
8
 71
3
 72
8
 73
4
 74
0
 40
0
 40
0
 40
0
 40
0
 40
1
 40
1
 40
1
 40
1
 10
-70.977274
 20
-74.634188
 30
0.0
 10
-70.233681
 20
-75.377781
 30
0.0
 10
-69.115377
 20
-75.600226
 30
0.0
 10
-68.143825
 20
-75.197796
 30
0.0
  0
SPLINE
  5
15a
100
AcDbEntity
  8
0
 62
7
100
AcDbSpline
 70
8
 71
3
 72
8
 73
4
 74
0
 40
0
 40
0
 40
0
 40
0
 40
1
 40
1
 40
1
 40
1
 10
-68.143825
 20
-75.197796
 30
0.0
 10
-67.172274
 20
-74.795366
 30
0.0
 10
-66.538805
 20
-73.847314
 30
0.0
 10
-66.538805
 20
-72.795714
 30
0.0
  0
SPLINE
  5
15b
100
AcDbEntity
  8
0
 62
7
100
AcDbSpline
 70
8
 71
3
 72
8
 73
4
 74
0
 40
0
 40
0
 40
0
 40
0
 40
1
 40
1
 40
1
 40
1
 10
-66.538805
 20
-72.795714
 30
0.0
 10
-66.538805
 20
-72.106153
 30
0.0
 10
-66.812732
 20
-71.444834
 30
0.0
 10
-67.300326
 20
-70.957240
 30
0.0
  0
SPLINE
  5
15c
100
AcDbEntity
  8
0
 62
7
100
AcDbSpline
 70
8
 71
3
 72
8
 73
4
 74
0
 40
0
 40
0
 40
0
 40
0
 40
1
 40
1
 40
1
 40
1
 10
-67.300326
 20
-70.957240
 30
0.0
 10
-67.787920
 20
-70.469647
 30
0.0
 10
-68.449239
 20
-70.195719
 30
0.0
 10
-69.138800
 20
-70.195719
 30
0.0
  0
LWPOLYLINE
  5
15d
100
AcDbEntity
  8
0
 62
7
100
AcDbPolyline
 90
1
 70
1
 10
-230.420415
 20
-10.664418
 30
0.0
  0
LWPOLYLINE
  5
15e
100
AcDbEntity
  8
0
 62
7
100
AcDbPolyline
 90
1
 70
1
 10
-69.138800
 20
-70.195719
 30
0.0
  0
SPLINE
  5
15f
100
AcDbEntity
  8
0
 62
7
100
AcDbSpline
 70
8
 71
3
 72
8
 73
4
 74
0
 40
0
 40
0
 40
0
 40
0
 40
1
 40
1
 40
1
 40
1
 10
-61.993780
 20
-78.153590
 30
0.0
 10
-61.326474
 20
-77.877122
 30
0.0
 10
-60.891401
 20
-77.225917
 30
0.0
 10
-60.891420
 20
-76.503606
 30
0.0
  0
SPLINE
  5
160
100
AcDbEntity
  8
0
 62
7
100
AcDbSpline
 70
8
 71
3
 72
8
 73
4
 74
0
 40
0
 40
0
 40
0
 40
0
 40
1
 40
1
 40
1
 40
1
 10
-182.842916
 20
-123.989668
 30
0.0
 10
-182.658553
 20
-124.002768
 30
0.0
 10
-182.473672
 20
-123.972766
 30
0.0
 10
-182.302912
 20
-123.902038
 30
0.0
  0
LWPOLYLINE
  5
161
100
AcDbEntity
  8
0
 62
7
100
AcDbPolyline
 90
2
 70
0
 10
-242.915440
 20
-123.899498
 30
0.0
 10
-363.225080
 20
-78.151558
 30
0.0
  0
LWPOLYLINE
  5
162
100
AcDbEntity
  8
0
 62
7
100
AcDbPolyline
 90
2
 70
0
 10
-182.303420
 20
-123.899498
 30
0.0
 10
-61.996320
 20
-78.151558
 30
0.0
  0
LWPOLYLINE
  5
163
100
AcDbEntity
  8
0
 62
7
100
AcDbPolyline
 90
2
 70
0
 10
-222.087440
 20
-57.912838
 30
0.0
 10
-203.085700
 20
-57.912838
 30
0.0
  0
SPLINE
  5
164
100
AcDbEntity
  8
0
 62
7
100
AcDbSpline
 70
8
 71
3
 72
8
 73
4
 74
0
 40
0
 40
0
 40
0
 40
0
 40
1
 40
1
 40
1
 40
1
 10
-364.325299
 20
-76.503606
 30
0.0
 10
-364.325296
 20
-77.225948
 30
0.0
 10
-363.890166
 20
-77.877162
 30
0.0
 10
-363.222809
 20
-78.153590
 30
0.0
  0
SPLINE
  5
165
100
AcDbEntity
  8
0
 62
7
100
AcDbSpline
 70
8
 71
3
 72
8
 73
4
 74
0
 40
0
 40
0
 40
0
 40
0
 40
1
 40
1
 40
1
 40
1
 10
-212.608665
 20
-111.272348
 30
0.0
 10
-214.044603
 20
-111.272348
 30
0.0
 10
-215.208660
 20
-112.436405
 30
0.0
 10
-215.208660
 20
-113.872343
 30
0.0
  0
SPLINE
  5
166
100
AcDbEntity
  8
0
 62
7
100
AcDbSpline
 70
8
 71
3
 72
8
 73
4
 74
0
 40
0
 40
0
 40
0
 40
0
 40
1
 40
1
 40
1
 40
1
 10
-215.208660
 20
-113.872343
 30
0.0
 10
-215.208660
 20
-115.308280
 30
0.0
 10
-214.044603
 20
-116.472338
 30
0.0
 10
-212.608665
 20
-116.472338
 30
0.0
  0
SPLINE
  5
167
100
AcDbEntity
  8
0
 62
7
100
AcDbSpline
 70
8
 71
3
 72
8
 73
4
 74
0
 40
0
 40
0
 40
0
 40
0
 40
1
 40
1
 40
1
 40
1
 10
-212.608665
 20
-116.472338
 30
0.0
 10
-211.172728
 20
-116.472338
 30
0.0
 10
-210.008671
 20
-115.308280
 30
0.0
 10
-210.008671
 20
-113.872343
 30
0.0
  0
SPLINE
  5
168
100
AcDbEntity
  8
0
 62
7
100
AcDbSpline
 70
8
 71
3
 72
8
 73
4
 74
0
 40
0
 40
0
 40
0
 40
0
 40
1
 40
1
 40
1
 40
1
 10
-210.008671
 20
-113.872343
 30
0.0
 10
-210.008671
 20
-113.182781
 30
0.0
 10
-210.282598
 20
-112.521462
 30
0.0
 10
-210.770192
 20
-112.033869
 30
0.0
  0
SPLINE
  5
169
100
AcDbEntity
  8
0
 62
7
100
AcDbSpline
 70
8
 71
3
 72
8
 73
4
 74
0
 40
0
 40
0
 40
0
 40
0
 40
1
 40
1
 40
1
 40
1
 10
-210.770192
 20
-112.033869
 30
0.0
 10
-211.257785
 20
-111.546275
 30
0.0
 10
-211.919104
 20
-111.272348
 30
0.0
 10
-212.608665
 20
-111.272348
 30
0.0
  0
LWPOLYLINE
  5
16a
100
AcDbEntity
  8
0
 62
7
100
AcDbPolyline
 90
2
 70
0
 10
-76.283820
 20
4.596562
 30
0.0
 10
-60.893960
 20
-76.503098
 30
0.0
  0
LWPOLYLINE
  5
16b
100
AcDbEntity
  8
0
 62
7
100
AcDbPolyline
 90
1
 70
1
 10
-212.608665
 20
-111.272348
 30
0.0
  0
LWPOLYLINE
  5
16c
100
AcDbEntity
  8
0
 62
7
100
AcDbPolyline
 90
2
 70
0
 10
-203.085700
 20
-57.912838
 30
0.0
 10
-203.085700
 20
-6.714058
 30
0.0
  0
LWPOLYLINE
  5
16d
100
AcDbEntity
  8
0
 62
7
100
AcDbPolyline
 90
2
 70
0
 10
-222.087440
 20
-6.714058
 30
0.0
 10
-232.255060
 20
-6.714058
 30
0.0
  0
ENDSEC
  0
SECTION
  2
OBJECTS
  0
DICTIONARY
  5
C
330
0
100
AcDbDictionary
  3
ACAD_GROUP
350
D
  3
ACAD_MLINESTYLE
350
17
  0
DICTIONARY
  5
D
330
C
100
AcDbDictionary
  0
DICTIONARY
  5
1A
330
C
100
AcDbDictionary
  0
DICTIONARY
  5
17
330
C
100
AcDbDictionary
  3
STANDARD
350
18
  0
DICTIONARY
  5
19
330
C
100
AcDbDictionary
  0
ENDSEC
  0
EOF
