  0
SECTION
  2
HEADER
  9
$ACADVER
  1
AC1014
  9
$HANDSEED
  5
FFFF
  9
$MEASUREMENT
 70
     1
  0
ENDSEC
  0
SECTION
  2
TABLES
  0
TABLE
  2
VPORT
  5
8
330
0
100
AcDbSymbolTable
 70
     4
  0
VPORT
  5
2E
330
8
100
AcDbSymbolTableRecord
100
AcDbViewportTableRecord
  2
*ACTIVE
 70
     0
 10
0.0
 20
0.0
 11
1.0
 21
1.0
 12
210.0
 22
148.5
 13
0.0
 23
0.0
 14
10.0
 24
10.0
 15
10.0
 25
10.0
 16
0.0
 26
0.0
 36
1.0
 17
0.0
 27
0.0
 37
0.0
 40
341.0
 41
1.24
 42
50.0
 43
0.0
 44
0.0
 50
0.0
 51
0.0
 71
     0
 72
   100
 73
     1
 74
     3
 75
     0
 76
     0
 77
     0
 78
     0
  0
ENDTAB
  0
TABLE
  2
LTYPE
  5
5
330
0
100
AcDbSymbolTable
 70
     1
  0
LTYPE
  5
14
330
5
100
AcDbSymbolTableRecord
100
AcDbLinetypeTableRecord
  2
BYBLOCK
 70
     0
  3

 72
    65
 73
     0
 40
0.0
  0
LTYPE
  5
15
330
5
100
AcDbSymbolTableRecord
100
AcDbLinetypeTableRecord
  2
BYLAYER
 70
     0
  3

 72
    65
 73
     0
 40
0.0
  0
LTYPE
  5
16
330
5
100
AcDbSymbolTableRecord
100
AcDbLinetypeTableRecord
  2
CONTINUOUS
 70
     0
  3
Solid line
 72
    65
 73
     0
 40
0.0
  0
ENDTAB
  0
TABLE
  2
LAYER
  5
2
100
AcDbSymbolTable
 70
1
  0
LAYER
  5
50
100
AcDbSymbolTableRecord
100
AcDbLayerTableRecord
  2
0
 70
0
  6
CONTINUOUS
  0
ENDTAB
  0
TABLE
  2
STYLE
  5
3
330
0
100
AcDbSymbolTable
 70
     1
  0
STYLE
  5
11
330
3
100
AcDbSymbolTableRecord
100
AcDbTextStyleTableRecord
  2
STANDARD
 70
     0
 40
0.0
 41
1.0
 50
0.0
 71
     0
 42
2.5
  3
txt
  4

  0
ENDTAB
  0
TABLE
  2
VIEW
  5
6
330
0
100
AcDbSymbolTable
 70
     0
  0
ENDTAB
  0
TABLE
  2
UCS
  5
7
330
0
100
AcDbSymbolTable
 70
     0
  0
ENDTAB
  0
TABLE
  2
APPID
  5
9
330
0
100
AcDbSymbolTable
 70
     2
  0
APPID
  5
12
330
9
100
AcDbSymbolTableRecord
100
AcDbRegAppTableRecord
  2
ACAD
 70
     0
  0
ENDTAB
  0
TABLE
  2
DIMSTYLE
  5
A
330
0
100
AcDbSymbolTable
 70
     1
  0
DIMSTYLE
105
27
330
A
100
AcDbSymbolTableRecord
100
AcDbDimStyleTableRecord
  2
ISO-25
 70
     0
  3

  4

  5

  6

  7

 40
1.0
 41
2.5
 42
0.625
 43
3.75
 44
1.25
 45
0.0
 46
0.0
 47
0.0
 48
0.0
140
2.5
141
2.5
142
0.0
143
0.03937007874016
144
1.0
145
0.0
146
1.0
147
0.625
 71
     0
 72
     0
 73
     0
 74
     0
 75
     0
 76
     0
 77
     1
 78
     8
170
     0
171
     3
172
     1
173
     0
174
     0
175
     0
176
     0
177
     0
178
     0
270
     2
271
     2
272
     2
273
     2
274
     3
340
11
275
     0
280
     0
281
     0
282
     0
283
     0
284
     8
285
     0
286
     0
287
     3
288
     0
  0
ENDTAB
  0
TABLE
  2
BLOCK_RECORD
  5
1
330
0
100
AcDbSymbolTable
 70
     1
  0
BLOCK_RECORD
  5
1F
330
1
100
AcDbSymbolTableRecord
100
AcDbBlockTableRecord
  2
*MODEL_SPACE
  0
BLOCK_RECORD
  5
1B
330
1
100
AcDbSymbolTableRecord
100
AcDbBlockTableRecord
  2
*PAPER_SPACE
  0
ENDTAB
  0
ENDSEC
  0
SECTION
  2
BLOCKS
  0
BLOCK
  5
20
330
1F
100
AcDbEntity
  8
0
100
AcDbBlockBegin
  2
*MODEL_SPACE
 70
     0
 10
0.0
 20
0.0
 30
0.0
  3
*MODEL_SPACE
  1

  0
ENDBLK
  5
21
330
1F
100
AcDbEntity
  8
0
100
AcDbBlockEnd
  0
BLOCK
  5
1C
330
1B
100
AcDbEntity
 67
     1
  8
0
100
AcDbBlockBegin
  2
*PAPER_SPACE
  1

  0
ENDBLK
  5
1D
330
1B
100
AcDbEntity
 67
     1
  8
0
100
AcDbBlockEnd
  0
ENDSEC
  0
SECTION
  2
ENTITIES
  0
SPLINE
  5
100
100
AcDbEntity
  8
0
 62
7
100
AcDbSpline
 70
8
 71
3
 72
8
 73
4
 74
0
 40
0
 40
0
 40
0
 40
0
 40
1
 40
1
 40
1
 40
1
 10
-36.624260
 20
-21.040298
 30
0.0
 10
-37.028722
 20
-21.040298
 30
0.0
 10
-37.393359
 20
-21.283940
 30
0.0
 10
-37.548140
 20
-21.657615
 30
0.0
  0
SPLINE
  5
101
100
AcDbEntity
  8
0
 62
7
100
AcDbSpline
 70
8
 71
3
 72
8
 73
4
 74
0
 40
0
 40
0
 40
0
 40
0
 40
1
 40
1
 40
1
 40
1
 10
-37.548140
 20
-21.657615
 30
0.0
 10
-37.702921
 20
-22.031289
 30
0.0
 10
-37.617365
 20
-22.461407
 30
0.0
 10
-37.331367
 20
-22.747405
 30
0.0
  0
SPLINE
  5
102
100
AcDbEntity
  8
0
 62
7
100
AcDbSpline
 70
8
 71
3
 72
8
 73
4
 74
0
 40
0
 40
0
 40
0
 40
0
 40
1
 40
1
 40
1
 40
1
 10
-37.331367
 20
-22.747405
 30
0.0
 10
-37.045369
 20
-23.033404
 30
0.0
 10
-36.615251
 20
-23.118959
 30
0.0
 10
-36.241576
 20
-22.964178
 30
0.0
  0
SPLINE
  5
103
100
AcDbEntity
  8
0
 62
7
100
AcDbSpline
 70
8
 71
3
 72
8
 73
4
 74
0
 40
0
 40
0
 40
0
 40
0
 40
1
 40
1
 40
1
 40
1
 10
-36.241576
 20
-22.964178
 30
0.0
 10
-35.867902
 20
-22.809397
 30
0.0
 10
-35.624259
 20
-22.444761
 30
0.0
 10
-35.624259
 20
-22.040298
 30
0.0
  0
SPLINE
  5
104
100
AcDbEntity
  8
0
 62
7
100
AcDbSpline
 70
8
 71
3
 72
8
 73
4
 74
0
 40
0
 40
0
 40
0
 40
0
 40
1
 40
1
 40
1
 40
1
 10
-35.624259
 20
-22.040298
 30
0.0
 10
-35.624259
 20
-21.775082
 30
0.0
 10
-35.729616
 20
-21.520728
 30
0.0
 10
-35.917153
 20
-21.333191
 30
0.0
  0
SPLINE
  5
105
100
AcDbEntity
  8
0
 62
7
100
AcDbSpline
 70
8
 71
3
 72
8
 73
4
 74
0
 40
0
 40
0
 40
0
 40
0
 40
1
 40
1
 40
1
 40
1
 10
-35.917153
 20
-21.333191
 30
0.0
 10
-36.104689
 20
-21.145655
 30
0.0
 10
-36.359043
 20
-21.040298
 30
0.0
 10
-36.624260
 20
-21.040298
 30
0.0
  0
SPLINE
  5
106
100
AcDbEntity
  8
0
 62
7
100
AcDbSpline
 70
8
 71
3
 72
8
 73
4
 74
0
 40
0
 40
0
 40
0
 40
0
 40
1
 40
1
 40
1
 40
1
 10
-189.025271
 20
-33.541899
 30
0.0
 10
-189.429733
 20
-33.541899
 30
0.0
 10
-189.794370
 20
-33.785541
 30
0.0
 10
-189.949151
 20
-34.159216
 30
0.0
  0
SPLINE
  5
107
100
AcDbEntity
  8
0
 62
7
100
AcDbSpline
 70
8
 71
3
 72
8
 73
4
 74
0
 40
0
 40
0
 40
0
 40
0
 40
1
 40
1
 40
1
 40
1
 10
-189.949151
 20
-34.159216
 30
0.0
 10
-190.103932
 20
-34.532890
 30
0.0
 10
-190.018376
 20
-34.963008
 30
0.0
 10
-189.732378
 20
-35.249007
 30
0.0
  0
SPLINE
  5
108
100
AcDbEntity
  8
0
 62
7
100
AcDbSpline
 70
8
 71
3
 72
8
 73
4
 74
0
 40
0
 40
0
 40
0
 40
0
 40
1
 40
1
 40
1
 40
1
 10
-189.732378
 20
-35.249007
 30
0.0
 10
-189.446380
 20
-35.535005
 30
0.0
 10
-189.016262
 20
-35.620561
 30
0.0
 10
-188.642587
 20
-35.465779
 30
0.0
  0
SPLINE
  5
109
100
AcDbEntity
  8
0
 62
7
100
AcDbSpline
 70
8
 71
3
 72
8
 73
4
 74
0
 40
0
 40
0
 40
0
 40
0
 40
1
 40
1
 40
1
 40
1
 10
-188.642587
 20
-35.465779
 30
0.0
 10
-188.268913
 20
-35.310998
 30
0.0
 10
-188.025270
 20
-34.946362
 30
0.0
 10
-188.025270
 20
-34.541899
 30
0.0
  0
SPLINE
  5
10a
100
AcDbEntity
  8
0
 62
7
100
AcDbSpline
 70
8
 71
3
 72
8
 73
4
 74
0
 40
0
 40
0
 40
0
 40
0
 40
1
 40
1
 40
1
 40
1
 10
-188.025270
 20
-34.541899
 30
0.0
 10
-188.025270
 20
-33.989614
 30
0.0
 10
-188.472986
 20
-33.541899
 30
0.0
 10
-189.025271
 20
-33.541899
 30
0.0
  0
LWPOLYLINE
  5
10b
100
AcDbEntity
  8
0
 62
7
100
AcDbPolyline
 90
1
 70
1
 10
-36.624260
 20
-21.040298
 30
0.0
  0
SPLINE
  5
10c
100
AcDbEntity
  8
0
 62
7
100
AcDbSpline
 70
8
 71
3
 72
8
 73
4
 74
0
 40
0
 40
0
 40
0
 40
0
 40
1
 40
1
 40
1
 40
1
 10
-291.419203
 20
-6.343404
 30
0.0
 10
-292.470803
 20
-6.343404
 30
0.0
 10
-293.418855
 20
-6.976872
 30
0.0
 10
-293.821285
 20
-7.948423
 30
0.0
  0
SPLINE
  5
10d
100
AcDbEntity
  8
0
 62
7
100
AcDbSpline
 70
8
 71
3
 72
8
 73
4
 74
0
 40
0
 40
0
 40
0
 40
0
 40
1
 40
1
 40
1
 40
1
 10
-293.821285
 20
-7.948423
 30
0.0
 10
-294.223715
 20
-8.919975
 30
0.0
 10
-294.001270
 20
-10.038279
 30
0.0
 10
-293.257677
 20
-10.781872
 30
0.0
  0
SPLINE
  5
10e
100
AcDbEntity
  8
0
 62
7
100
AcDbSpline
 70
8
 71
3
 72
8
 73
4
 74
0
 40
0
 40
0
 40
0
 40
0
 40
1
 40
1
 40
1
 40
1
 10
-293.257677
 20
-10.781872
 30
0.0
 10
-292.514084
 20
-11.525466
 30
0.0
 10
-291.395780
 20
-11.747910
 30
0.0
 10
-290.424228
 20
-11.345480
 30
0.0
  0
SPLINE
  5
10f
100
AcDbEntity
  8
0
 62
7
100
AcDbSpline
 70
8
 71
3
 72
8
 73
4
 74
0
 40
0
 40
0
 40
0
 40
0
 40
1
 40
1
 40
1
 40
1
 10
-290.424228
 20
-11.345480
 30
0.0
 10
-289.452677
 20
-10.943051
 30
0.0
 10
-288.819208
 20
-9.994998
 30
0.0
 10
-288.819208
 20
-8.943398
 30
0.0
  0
SPLINE
  5
110
100
AcDbEntity
  8
0
 62
7
100
AcDbSpline
 70
8
 71
3
 72
8
 73
4
 74
0
 40
0
 40
0
 40
0
 40
0
 40
1
 40
1
 40
1
 40
1
 10
-288.819208
 20
-8.943398
 30
0.0
 10
-288.819208
 20
-8.253837
 30
0.0
 10
-289.093135
 20
-7.592518
 30
0.0
 10
-289.580729
 20
-7.104924
 30
0.0
  0
SPLINE
  5
111
100
AcDbEntity
  8
0
 62
7
100
AcDbSpline
 70
8
 71
3
 72
8
 73
4
 74
0
 40
0
 40
0
 40
0
 40
0
 40
1
 40
1
 40
1
 40
1
 10
-289.580729
 20
-7.104924
 30
0.0
 10
-290.068323
 20
-6.617331
 30
0.0
 10
-290.729642
 20
-6.343404
 30
0.0
 10
-291.419203
 20
-6.343404
 30
0.0
  0
LWPOLYLINE
  5
112
100
AcDbEntity
  8
0
 62
7
100
AcDbPolyline
 90
1
 70
1
 10
-189.025271
 20
-33.541899
 30
0.0
  0
SPLINE
  5
113
100
AcDbEntity
  8
0
 62
7
100
AcDbSpline
 70
8
 71
3
 72
8
 73
4
 74
0
 40
0
 40
0
 40
0
 40
0
 40
1
 40
1
 40
1
 40
1
 10
-286.656780
 20
-21.040298
 30
0.0
 10
-287.061242
 20
-21.040298
 30
0.0
 10
-287.425879
 20
-21.283940
 30
0.0
 10
-287.580660
 20
-21.657615
 30
0.0
  0
SPLINE
  5
114
100
AcDbEntity
  8
0
 62
7
100
AcDbSpline
 70
8
 71
3
 72
8
 73
4
 74
0
 40
0
 40
0
 40
0
 40
0
 40
1
 40
1
 40
1
 40
1
 10
-287.580660
 20
-21.657615
 30
0.0
 10
-287.735441
 20
-22.031289
 30
0.0
 10
-287.649885
 20
-22.461407
 30
0.0
 10
-287.363887
 20
-22.747405
 30
0.0
  0
SPLINE
  5
115
100
AcDbEntity
  8
0
 62
7
100
AcDbSpline
 70
8
 71
3
 72
8
 73
4
 74
0
 40
0
 40
0
 40
0
 40
0
 40
1
 40
1
 40
1
 40
1
 10
-287.363887
 20
-22.747405
 30
0.0
 10
-287.077889
 20
-23.033404
 30
0.0
 10
-286.647771
 20
-23.118959
 30
0.0
 10
-286.274096
 20
-22.964178
 30
0.0
  0
SPLINE
  5
116
100
AcDbEntity
  8
0
 62
7
100
AcDbSpline
 70
8
 71
3
 72
8
 73
4
 74
0
 40
0
 40
0
 40
0
 40
0
 40
1
 40
1
 40
1
 40
1
 10
-286.274096
 20
-22.964178
 30
0.0
 10
-285.900422
 20
-22.809397
 30
0.0
 10
-285.656779
 20
-22.444761
 30
0.0
 10
-285.656779
 20
-22.040298
 30
0.0
  0
SPLINE
  5
117
100
AcDbEntity
  8
0
 62
7
100
AcDbSpline
 70
8
 71
3
 72
8
 73
4
 74
0
 40
0
 40
0
 40
0
 40
0
 40
1
 40
1
 40
1
 40
1
 10
-285.656779
 20
-22.040298
 30
0.0
 10
-285.656779
 20
-21.775082
 30
0.0
 10
-285.762136
 20
-21.520728
 30
0.0
 10
-285.949673
 20
-21.333191
 30
0.0
  0
SPLINE
  5
118
100
AcDbEntity
  8
0
 62
7
100
AcDbSpline
 70
8
 71
3
 72
8
 73
4
 74
0
 40
0
 40
0
 40
0
 40
0
 40
1
 40
1
 40
1
 40
1
 10
-285.949673
 20
-21.333191
 30
0.0
 10
-286.137209
 20
-21.145655
 30
0.0
 10
-286.391563
 20
-21.040298
 30
0.0
 10
-286.656780
 20
-21.040298
 30
0.0
  0
LWPOLYLINE
  5
119
100
AcDbEntity
  8
0
 62
7
100
AcDbPolyline
 90
1
 70
1
 10
-291.419203
 20
-6.343404
 30
0.0
  0
SPLINE
  5
11a
100
AcDbEntity
  8
0
 62
7
100
AcDbSpline
 70
8
 71
3
 72
8
 73
4
 74
0
 40
0
 40
0
 40
0
 40
0
 40
1
 40
1
 40
1
 40
1
 10
-134.256521
 20
-33.541899
 30
0.0
 10
-134.660983
 20
-33.541899
 30
0.0
 10
-135.025620
 20
-33.785541
 30
0.0
 10
-135.180401
 20
-34.159216
 30
0.0
  0
SPLINE
  5
11b
100
AcDbEntity
  8
0
 62
7
100
AcDbSpline
 70
8
 71
3
 72
8
 73
4
 74
0
 40
0
 40
0
 40
0
 40
0
 40
1
 40
1
 40
1
 40
1
 10
-135.180401
 20
-34.159216
 30
0.0
 10
-135.335182
 20
-34.532890
 30
0.0
 10
-135.249626
 20
-34.963008
 30
0.0
 10
-134.963628
 20
-35.249007
 30
0.0
  0
SPLINE
  5
11c
100
AcDbEntity
  8
0
 62
7
100
AcDbSpline
 70
8
 71
3
 72
8
 73
4
 74
0
 40
0
 40
0
 40
0
 40
0
 40
1
 40
1
 40
1
 40
1
 10
-134.963628
 20
-35.249007
 30
0.0
 10
-134.677630
 20
-35.535005
 30
0.0
 10
-134.247512
 20
-35.620561
 30
0.0
 10
-133.873837
 20
-35.465779
 30
0.0
  0
SPLINE
  5
11d
100
AcDbEntity
  8
0
 62
7
100
AcDbSpline
 70
8
 71
3
 72
8
 73
4
 74
0
 40
0
 40
0
 40
0
 40
0
 40
1
 40
1
 40
1
 40
1
 10
-133.873837
 20
-35.465779
 30
0.0
 10
-133.500163
 20
-35.310998
 30
0.0
 10
-133.256520
 20
-34.946362
 30
0.0
 10
-133.256520
 20
-34.541899
 30
0.0
  0
SPLINE
  5
11e
100
AcDbEntity
  8
0
 62
7
100
AcDbSpline
 70
8
 71
3
 72
8
 73
4
 74
0
 40
0
 40
0
 40
0
 40
0
 40
1
 40
1
 40
1
 40
1
 10
-133.256520
 20
-34.541899
 30
0.0
 10
-133.256520
 20
-34.276683
 30
0.0
 10
-133.361877
 20
-34.022329
 30
0.0
 10
-133.549414
 20
-33.834792
 30
0.0
  0
SPLINE
  5
11f
100
AcDbEntity
  8
0
 62
7
100
AcDbSpline
 70
8
 71
3
 72
8
 73
4
 74
0
 40
0
 40
0
 40
0
 40
0
 40
1
 40
1
 40
1
 40
1
 10
-133.549414
 20
-33.834792
 30
0.0
 10
-133.736950
 20
-33.647256
 30
0.0
 10
-133.991304
 20
-33.541899
 30
0.0
 10
-134.256521
 20
-33.541899
 30
0.0
  0
LWPOLYLINE
  5
120
100
AcDbEntity
  8
0
 62
7
100
AcDbPolyline
 90
1
 70
1
 10
-286.656780
 20
-21.040298
 30
0.0
  0
SPLINE
  5
121
100
AcDbEntity
  8
0
 62
7
100
AcDbSpline
 70
8
 71
3
 72
8
 73
4
 74
0
 40
0
 40
0
 40
0
 40
0
 40
1
 40
1
 40
1
 40
1
 10
-191.946784
 20
-130.891973
 30
0.0
 10
-191.775946
 20
-130.962741
 30
0.0
 10
-191.590973
 20
-130.992743
 30
0.0
 10
-191.406526
 20
-130.979603
 30
0.0
  0
SPLINE
  5
122
100
AcDbEntity
  8
0
 62
7
100
AcDbSpline
 70
8
 71
3
 72
8
 73
4
 74
0
 40
0
 40
0
 40
0
 40
0
 40
1
 40
1
 40
1
 40
1
 10
-18.171160
 20
-77.185655
 30
0.0
 10
-19.222760
 20
-77.185655
 30
0.0
 10
-20.170812
 20
-77.819123
 30
0.0
 10
-20.573242
 20
-78.790674
 30
0.0
  0
SPLINE
  5
123
100
AcDbEntity
  8
0
 62
7
100
AcDbSpline
 70
8
 71
3
 72
8
 73
4
 74
0
 40
0
 40
0
 40
0
 40
0
 40
1
 40
1
 40
1
 40
1
 10
-20.573242
 20
-78.790674
 30
0.0
 10
-20.975672
 20
-79.762226
 30
0.0
 10
-20.753227
 20
-80.880530
 30
0.0
 10
-20.009634
 20
-81.624123
 30
0.0
  0
SPLINE
  5
124
100
AcDbEntity
  8
0
 62
7
100
AcDbSpline
 70
8
 71
3
 72
8
 73
4
 74
0
 40
0
 40
0
 40
0
 40
0
 40
1
 40
1
 40
1
 40
1
 10
-20.009634
 20
-81.624123
 30
0.0
 10
-19.266041
 20
-82.367717
 30
0.0
 10
-18.147737
 20
-82.590161
 30
0.0
 10
-17.176185
 20
-82.187731
 30
0.0
  0
SPLINE
  5
125
100
AcDbEntity
  8
0
 62
7
100
AcDbSpline
 70
8
 71
3
 72
8
 73
4
 74
0
 40
0
 40
0
 40
0
 40
0
 40
1
 40
1
 40
1
 40
1
 10
-17.176185
 20
-82.187731
 30
0.0
 10
-16.204634
 20
-81.785302
 30
0.0
 10
-15.571165
 20
-80.837249
 30
0.0
 10
-15.571165
 20
-79.785649
 30
0.0
  0
SPLINE
  5
126
100
AcDbEntity
  8
0
 62
7
100
AcDbSpline
 70
8
 71
3
 72
8
 73
4
 74
0
 40
0
 40
0
 40
0
 40
0
 40
1
 40
1
 40
1
 40
1
 10
-15.571165
 20
-79.785649
 30
0.0
 10
-15.571165
 20
-79.096088
 30
0.0
 10
-15.845092
 20
-78.434769
 30
0.0
 10
-16.332686
 20
-77.947175
 30
0.0
  0
SPLINE
  5
127
100
AcDbEntity
  8
0
 62
7
100
AcDbSpline
 70
8
 71
3
 72
8
 73
4
 74
0
 40
0
 40
0
 40
0
 40
0
 40
1
 40
1
 40
1
 40
1
 10
-16.332686
 20
-77.947175
 30
0.0
 10
-16.820280
 20
-77.459582
 30
0.0
 10
-17.481599
 20
-77.185655
 30
0.0
 10
-18.171160
 20
-77.185655
 30
0.0
  0
LWPOLYLINE
  5
128
100
AcDbEntity
  8
0
 62
7
100
AcDbPolyline
 90
1
 70
1
 10
-134.256521
 20
-33.541899
 30
0.0
  0
LWPOLYLINE
  5
129
100
AcDbEntity
  8
0
 62
7
100
AcDbPolyline
 90
1
 70
1
 10
-18.171160
 20
-77.185655
 30
0.0
  0
SPLINE
  5
12a
100
AcDbEntity
  8
0
 62
7
100
AcDbSpline
 70
8
 71
3
 72
8
 73
4
 74
0
 40
0
 40
0
 40
0
 40
0
 40
1
 40
1
 40
1
 40
1
 10
-305.111404
 20
-77.185655
 30
0.0
 10
-306.163004
 20
-77.185655
 30
0.0
 10
-307.111056
 20
-77.819123
 30
0.0
 10
-307.513486
 20
-78.790674
 30
0.0
  0
SPLINE
  5
12b
100
AcDbEntity
  8
0
 62
7
100
AcDbSpline
 70
8
 71
3
 72
8
 73
4
 74
0
 40
0
 40
0
 40
0
 40
0
 40
1
 40
1
 40
1
 40
1
 10
-307.513486
 20
-78.790674
 30
0.0
 10
-307.915916
 20
-79.762226
 30
0.0
 10
-307.693472
 20
-80.880530
 30
0.0
 10
-306.949878
 20
-81.624123
 30
0.0
  0
SPLINE
  5
12c
100
AcDbEntity
  8
0
 62
7
100
AcDbSpline
 70
8
 71
3
 72
8
 73
4
 74
0
 40
0
 40
0
 40
0
 40
0
 40
1
 40
1
 40
1
 40
1
 10
-306.949878
 20
-81.624123
 30
0.0
 10
-306.206285
 20
-82.367717
 30
0.0
 10
-305.087981
 20
-82.590161
 30
0.0
 10
-304.116429
 20
-82.187731
 30
0.0
  0
SPLINE
  5
12d
100
AcDbEntity
  8
0
 62
7
100
AcDbSpline
 70
8
 71
3
 72
8
 73
4
 74
0
 40
0
 40
0
 40
0
 40
0
 40
1
 40
1
 40
1
 40
1
 10
-304.116429
 20
-82.187731
 30
0.0
 10
-303.144878
 20
-81.785302
 30
0.0
 10
-302.511409
 20
-80.837249
 30
0.0
 10
-302.511409
 20
-79.785649
 30
0.0
  0
SPLINE
  5
12e
100
AcDbEntity
  8
0
 62
7
100
AcDbSpline
 70
8
 71
3
 72
8
 73
4
 74
0
 40
0
 40
0
 40
0
 40
0
 40
1
 40
1
 40
1
 40
1
 10
-302.511409
 20
-79.785649
 30
0.0
 10
-302.511409
 20
-78.349712
 30
0.0
 10
-303.675467
 20
-77.185655
 30
0.0
 10
-305.111404
 20
-77.185655
 30
0.0
  0
LWPOLYLINE
  5
12f
100
AcDbEntity
  8
0
 62
7
100
AcDbPolyline
 90
2
 70
0
 10
-25.316180
 20
-2.393373
 30
0.0
 10
-9.926320
 20
-83.493033
 30
0.0
  0
SPLINE
  5
130
100
AcDbEntity
  8
0
 62
7
100
AcDbSpline
 70
8
 71
3
 72
8
 73
4
 74
0
 40
0
 40
0
 40
0
 40
0
 40
1
 40
1
 40
1
 40
1
 10
-179.452775
 20
-17.654354
 30
0.0
 10
-180.504375
 20
-17.654354
 30
0.0
 10
-181.452428
 20
-18.287822
 30
0.0
 10
-181.854857
 20
-19.259373
 30
0.0
  0
SPLINE
  5
131
100
AcDbEntity
  8
0
 62
7
100
AcDbSpline
 70
8
 71
3
 72
8
 73
4
 74
0
 40
0
 40
0
 40
0
 40
0
 40
1
 40
1
 40
1
 40
1
 10
-181.854857
 20
-19.259373
 30
0.0
 10
-182.257287
 20
-20.230925
 30
0.0
 10
-182.034843
 20
-21.349229
 30
0.0
 10
-181.291249
 20
-22.092822
 30
0.0
  0
SPLINE
  5
132
100
AcDbEntity
  8
0
 62
7
100
AcDbSpline
 70
8
 71
3
 72
8
 73
4
 74
0
 40
0
 40
0
 40
0
 40
0
 40
1
 40
1
 40
1
 40
1
 10
-181.291249
 20
-22.092822
 30
0.0
 10
-180.547656
 20
-22.836416
 30
0.0
 10
-179.429352
 20
-23.058860
 30
0.0
 10
-178.457801
 20
-22.656430
 30
0.0
  0
SPLINE
  5
133
100
AcDbEntity
  8
0
 62
7
100
AcDbSpline
 70
8
 71
3
 72
8
 73
4
 74
0
 40
0
 40
0
 40
0
 40
0
 40
1
 40
1
 40
1
 40
1
 10
-178.457801
 20
-22.656430
 30
0.0
 10
-177.486249
 20
-22.254001
 30
0.0
 10
-176.852781
 20
-21.305948
 30
0.0
 10
-176.852781
 20
-20.254348
 30
0.0
  0
SPLINE
  5
134
100
AcDbEntity
  8
0
 62
7
100
AcDbSpline
 70
8
 71
3
 72
8
 73
4
 74
0
 40
0
 40
0
 40
0
 40
0
 40
1
 40
1
 40
1
 40
1
 10
-176.852781
 20
-20.254348
 30
0.0
 10
-176.852781
 20
-19.564787
 30
0.0
 10
-177.126708
 20
-18.903468
 30
0.0
 10
-177.614302
 20
-18.415874
 30
0.0
  0
SPLINE
  5
135
100
AcDbEntity
  8
0
 62
7
100
AcDbSpline
 70
8
 71
3
 72
8
 73
4
 74
0
 40
0
 40
0
 40
0
 40
0
 40
1
 40
1
 40
1
 40
1
 10
-177.614302
 20
-18.415874
 30
0.0
 10
-178.101895
 20
-17.928281
 30
0.0
 10
-178.763214
 20
-17.654354
 30
0.0
 10
-179.452775
 20
-17.654354
 30
0.0
  0
LWPOLYLINE
  5
136
100
AcDbEntity
  8
0
 62
7
100
AcDbPolyline
 90
1
 70
1
 10
-305.111404
 20
-77.185655
 30
0.0
  0
LWPOLYLINE
  5
137
100
AcDbEntity
  8
0
 62
7
100
AcDbPolyline
 90
1
 70
1
 10
-179.452775
 20
-17.654354
 30
0.0
  0
SPLINE
  5
138
100
AcDbEntity
  8
0
 62
7
100
AcDbSpline
 70
8
 71
3
 72
8
 73
4
 74
0
 40
0
 40
0
 40
0
 40
0
 40
1
 40
1
 40
1
 40
1
 10
-131.875276
 20
-130.979603
 30
0.0
 10
-131.690913
 20
-130.992703
 30
0.0
 10
-131.506032
 20
-130.962702
 30
0.0
 10
-131.335272
 20
-130.891973
 30
0.0
  0
LWPOLYLINE
  5
139
100
AcDbEntity
  8
0
 62
7
100
AcDbPolyline
 90
2
 70
0
 10
-297.969940
 20
-2.393373
 30
0.0
 10
-313.359800
 20
-83.493033
 30
0.0
  0
SPLINE
  5
13a
100
AcDbEntity
  8
0
 62
7
100
AcDbSpline
 70
8
 71
3
 72
8
 73
4
 74
0
 40
0
 40
0
 40
0
 40
0
 40
1
 40
1
 40
1
 40
1
 10
-291.419203
 20
-6.343404
 30
0.0
 10
-292.470803
 20
-6.343404
 30
0.0
 10
-293.418855
 20
-6.976872
 30
0.0
 10
-293.821285
 20
-7.948423
 30
0.0
  0
SPLINE
  5
13b
100
AcDbEntity
  8
0
 62
7
100
AcDbSpline
 70
8
 71
3
 72
8
 73
4
 74
0
 40
0
 40
0
 40
0
 40
0
 40
1
 40
1
 40
1
 40
1
 10
-293.821285
 20
-7.948423
 30
0.0
 10
-294.223715
 20
-8.919975
 30
0.0
 10
-294.001270
 20
-10.038279
 30
0.0
 10
-293.257677
 20
-10.781872
 30
0.0
  0
SPLINE
  5
13c
100
AcDbEntity
  8
0
 62
7
100
AcDbSpline
 70
8
 71
3
 72
8
 73
4
 74
0
 40
0
 40
0
 40
0
 40
0
 40
1
 40
1
 40
1
 40
1
 10
-293.257677
 20
-10.781872
 30
0.0
 10
-292.514084
 20
-11.525466
 30
0.0
 10
-291.395780
 20
-11.747910
 30
0.0
 10
-290.424228
 20
-11.345480
 30
0.0
  0
SPLINE
  5
13d
100
AcDbEntity
  8
0
 62
7
100
AcDbSpline
 70
8
 71
3
 72
8
 73
4
 74
0
 40
0
 40
0
 40
0
 40
0
 40
1
 40
1
 40
1
 40
1
 10
-290.424228
 20
-11.345480
 30
0.0
 10
-289.452677
 20
-10.943051
 30
0.0
 10
-288.819208
 20
-9.994998
 30
0.0
 10
-288.819208
 20
-8.943398
 30
0.0
  0
SPLINE
  5
13e
100
AcDbEntity
  8
0
 62
7
100
AcDbSpline
 70
8
 71
3
 72
8
 73
4
 74
0
 40
0
 40
0
 40
0
 40
0
 40
1
 40
1
 40
1
 40
1
 10
-288.819208
 20
-8.943398
 30
0.0
 10
-288.819208
 20
-8.253837
 30
0.0
 10
-289.093135
 20
-7.592518
 30
0.0
 10
-289.580729
 20
-7.104924
 30
0.0
  0
SPLINE
  5
13f
100
AcDbEntity
  8
0
 62
7
100
AcDbSpline
 70
8
 71
3
 72
8
 73
4
 74
0
 40
0
 40
0
 40
0
 40
0
 40
1
 40
1
 40
1
 40
1
 10
-289.580729
 20
-7.104924
 30
0.0
 10
-290.068323
 20
-6.617331
 30
0.0
 10
-290.729642
 20
-6.343404
 30
0.0
 10
-291.419203
 20
-6.343404
 30
0.0
  0
LWPOLYLINE
  5
140
100
AcDbEntity
  8
0
 62
7
100
AcDbPolyline
 90
2
 70
0
 10
-131.335780
 20
-130.889433
 30
0.0
 10
-11.028680
 20
-85.141493
 30
0.0
  0
SPLINE
  5
141
100
AcDbEntity
  8
0
 62
7
100
AcDbSpline
 70
8
 71
3
 72
8
 73
4
 74
0
 40
0
 40
0
 40
0
 40
0
 40
1
 40
1
 40
1
 40
1
 10
-143.781521
 20
-17.654354
 30
0.0
 10
-144.833121
 20
-17.654354
 30
0.0
 10
-145.781173
 20
-18.287822
 30
0.0
 10
-146.183603
 20
-19.259373
 30
0.0
  0
SPLINE
  5
142
100
AcDbEntity
  8
0
 62
7
100
AcDbSpline
 70
8
 71
3
 72
8
 73
4
 74
0
 40
0
 40
0
 40
0
 40
0
 40
1
 40
1
 40
1
 40
1
 10
-146.183603
 20
-19.259373
 30
0.0
 10
-146.586033
 20
-20.230925
 30
0.0
 10
-146.363588
 20
-21.349229
 30
0.0
 10
-145.619995
 20
-22.092822
 30
0.0
  0
SPLINE
  5
143
100
AcDbEntity
  8
0
 62
7
100
AcDbSpline
 70
8
 71
3
 72
8
 73
4
 74
0
 40
0
 40
0
 40
0
 40
0
 40
1
 40
1
 40
1
 40
1
 10
-145.619995
 20
-22.092822
 30
0.0
 10
-144.876402
 20
-22.836416
 30
0.0
 10
-143.758097
 20
-23.058860
 30
0.0
 10
-142.786546
 20
-22.656430
 30
0.0
  0
SPLINE
  5
144
100
AcDbEntity
  8
0
 62
7
100
AcDbSpline
 70
8
 71
3
 72
8
 73
4
 74
0
 40
0
 40
0
 40
0
 40
0
 40
1
 40
1
 40
1
 40
1
 10
-142.786546
 20
-22.656430
 30
0.0
 10
-141.814995
 20
-22.254001
 30
0.0
 10
-141.181526
 20
-21.305948
 30
0.0
 10
-141.181526
 20
-20.254348
 30
0.0
  0
SPLINE
  5
145
100
AcDbEntity
  8
0
 62
7
100
AcDbSpline
 70
8
 71
3
 72
8
 73
4
 74
0
 40
0
 40
0
 40
0
 40
0
 40
1
 40
1
 40
1
 40
1
 10
-141.181526
 20
-20.254348
 30
0.0
 10
-141.181526
 20
-19.564787
 30
0.0
 10
-141.455453
 20
-18.903468
 30
0.0
 10
-141.943047
 20
-18.415874
 30
0.0
  0
SPLINE
  5
146
100
AcDbEntity
  8
0
 62
7
100
AcDbSpline
 70
8
 71
3
 72
8
 73
4
 74
0
 40
0
 40
0
 40
0
 40
0
 40
1
 40
1
 40
1
 40
1
 10
-141.943047
 20
-18.415874
 30
0.0
 10
-142.430641
 20
-17.928281
 30
0.0
 10
-143.091959
 20
-17.654354
 30
0.0
 10
-143.781521
 20
-17.654354
 30
0.0
  0
LWPOLYLINE
  5
147
100
AcDbEntity
  8
0
 62
7
100
AcDbPolyline
 90
1
 70
1
 10
-291.419203
 20
-6.343404
 30
0.0
  0
LWPOLYLINE
  5
148
100
AcDbEntity
  8
0
 62
7
100
AcDbPolyline
 90
1
 70
1
 10
-143.781521
 20
-17.654354
 30
0.0
  0
SPLINE
  5
149
100
AcDbEntity
  8
0
 62
7
100
AcDbSpline
 70
8
 71
3
 72
8
 73
4
 74
0
 40
0
 40
0
 40
0
 40
0
 40
1
 40
1
 40
1
 40
1
 10
-25.313640
 20
-2.394969
 30
0.0
 10
-25.569843
 20
-1.626357
 30
0.0
 10
-26.289072
 20
-1.107872
 30
0.0
 10
-27.099260
 20
-1.107734
 30
0.0
  0
LWPOLYLINE
  5
14a
100
AcDbEntity
  8
0
 62
7
100
AcDbPolyline
 90
2
 70
0
 10
-191.406780
 20
-130.978333
 30
0.0
 10
-131.876800
 20
-130.978333
 30
0.0
  0
LWPOLYLINE
  5
14b
100
AcDbEntity
  8
0
 62
7
100
AcDbPolyline
 90
2
 70
0
 10
-181.287420
 20
-13.703993
 30
0.0
 10
-296.181780
 20
-1.105593
 30
0.0
  0
SPLINE
  5
14c
100
AcDbEntity
  8
0
 62
7
100
AcDbSpline
 70
8
 71
3
 72
8
 73
4
 74
0
 40
0
 40
0
 40
0
 40
0
 40
1
 40
1
 40
1
 40
1
 10
-161.641025
 20
-118.262283
 30
0.0
 10
-163.076963
 20
-118.262283
 30
0.0
 10
-164.241020
 20
-119.426340
 30
0.0
 10
-164.241020
 20
-120.862278
 30
0.0
  0
SPLINE
  5
14d
100
AcDbEntity
  8
0
 62
7
100
AcDbSpline
 70
8
 71
3
 72
8
 73
4
 74
0
 40
0
 40
0
 40
0
 40
0
 40
1
 40
1
 40
1
 40
1
 10
-164.241020
 20
-120.862278
 30
0.0
 10
-164.241020
 20
-122.298215
 30
0.0
 10
-163.076963
 20
-123.462273
 30
0.0
 10
-161.641025
 20
-123.462273
 30
0.0
  0
SPLINE
  5
14e
100
AcDbEntity
  8
0
 62
7
100
AcDbSpline
 70
8
 71
3
 72
8
 73
4
 74
0
 40
0
 40
0
 40
0
 40
0
 40
1
 40
1
 40
1
 40
1
 10
-161.641025
 20
-123.462273
 30
0.0
 10
-160.205088
 20
-123.462273
 30
0.0
 10
-159.041031
 20
-122.298215
 30
0.0
 10
-159.041031
 20
-120.862278
 30
0.0
  0
SPLINE
  5
14f
100
AcDbEntity
  8
0
 62
7
100
AcDbSpline
 70
8
 71
3
 72
8
 73
4
 74
0
 40
0
 40
0
 40
0
 40
0
 40
1
 40
1
 40
1
 40
1
 10
-159.041031
 20
-120.862278
 30
0.0
 10
-159.041031
 20
-120.172716
 30
0.0
 10
-159.314958
 20
-119.511398
 30
0.0
 10
-159.802552
 20
-119.023804
 30
0.0
  0
SPLINE
  5
150
100
AcDbEntity
  8
0
 62
7
100
AcDbSpline
 70
8
 71
3
 72
8
 73
4
 74
0
 40
0
 40
0
 40
0
 40
0
 40
1
 40
1
 40
1
 40
1
 10
-159.802552
 20
-119.023804
 30
0.0
 10
-160.290145
 20
-118.536210
 30
0.0
 10
-160.951464
 20
-118.262283
 30
0.0
 10
-161.641025
 20
-118.262283
 30
0.0
  0
LWPOLYLINE
  5
151
100
AcDbEntity
  8
0
 62
7
100
AcDbPolyline
 90
2
 70
0
 10
-141.996160
 20
-13.703993
 30
0.0
 10
-27.101800
 20
-1.105593
 30
0.0
  0
SPLINE
  5
152
100
AcDbEntity
  8
0
 62
7
100
AcDbSpline
 70
8
 71
3
 72
8
 73
4
 74
0
 40
0
 40
0
 40
0
 40
0
 40
1
 40
1
 40
1
 40
1
 10
-161.641025
 20
-40.276153
 30
0.0
 10
-163.076963
 20
-40.276153
 30
0.0
 10
-164.241020
 20
-41.440210
 30
0.0
 10
-164.241020
 20
-42.876147
 30
0.0
  0
SPLINE
  5
153
100
AcDbEntity
  8
0
 62
7
100
AcDbSpline
 70
8
 71
3
 72
8
 73
4
 74
0
 40
0
 40
0
 40
0
 40
0
 40
1
 40
1
 40
1
 40
1
 10
-164.241020
 20
-42.876147
 30
0.0
 10
-164.241020
 20
-44.312085
 30
0.0
 10
-163.076963
 20
-45.476142
 30
0.0
 10
-161.641025
 20
-45.476142
 30
0.0
  0
SPLINE
  5
154
100
AcDbEntity
  8
0
 62
7
100
AcDbSpline
 70
8
 71
3
 72
8
 73
4
 74
0
 40
0
 40
0
 40
0
 40
0
 40
1
 40
1
 40
1
 40
1
 10
-161.641025
 20
-45.476142
 30
0.0
 10
-160.205088
 20
-45.476142
 30
0.0
 10
-159.041031
 20
-44.312085
 30
0.0
 10
-159.041031
 20
-42.876147
 30
0.0
  0
SPLINE
  5
155
100
AcDbEntity
  8
0
 62
7
100
AcDbSpline
 70
8
 71
3
 72
8
 73
4
 74
0
 40
0
 40
0
 40
0
 40
0
 40
1
 40
1
 40
1
 40
1
 10
-159.041031
 20
-42.876147
 30
0.0
 10
-159.041031
 20
-42.186586
 30
0.0
 10
-159.314958
 20
-41.525267
 30
0.0
 10
-159.802552
 20
-41.037673
 30
0.0
  0
SPLINE
  5
156
100
AcDbEntity
  8
0
 62
7
100
AcDbSpline
 70
8
 71
3
 72
8
 73
4
 74
0
 40
0
 40
0
 40
0
 40
0
 40
1
 40
1
 40
1
 40
1
 10
-159.802552
 20
-41.037673
 30
0.0
 10
-160.290145
 20
-40.550080
 30
0.0
 10
-160.951464
 20
-40.276153
 30
0.0
 10
-161.641025
 20
-40.276153
 30
0.0
  0
LWPOLYLINE
  5
157
100
AcDbEntity
  8
0
 62
7
100
AcDbPolyline
 90
1
 70
1
 10
-161.641025
 20
-118.262283
 30
0.0
  0
SPLINE
  5
158
100
AcDbEntity
  8
0
 62
7
100
AcDbSpline
 70
8
 71
3
 72
8
 73
4
 74
0
 40
0
 40
0
 40
0
 40
0
 40
1
 40
1
 40
1
 40
1
 10
-296.181729
 20
-1.107735
 30
0.0
 10
-296.992029
 20
-1.107741
 30
0.0
 10
-297.711416
 20
-1.626250
 30
0.0
 10
-297.967654
 20
-2.394969
 30
0.0
  0
SPLINE
  5
159
100
AcDbEntity
  8
0
 62
7
100
AcDbSpline
 70
8
 71
3
 72
8
 73
4
 74
0
 40
0
 40
0
 40
0
 40
0
 40
1
 40
1
 40
1
 40
1
 10
-313.357659
 20
-83.493541
 30
0.0
 10
-313.357656
 20
-84.215883
 30
0.0
 10
-312.922526
 20
-84.867098
 30
0.0
 10
-312.255169
 20
-85.143525
 30
0.0
  0
LWPOLYLINE
  5
15a
100
AcDbEntity
  8
0
 62
7
100
AcDbPolyline
 90
1
 70
1
 10
-161.641025
 20
-40.276153
 30
0.0
  0
SPLINE
  5
15b
100
AcDbEntity
  8
0
 62
7
100
AcDbSpline
 70
8
 71
3
 72
8
 73
4
 74
0
 40
0
 40
0
 40
0
 40
0
 40
1
 40
1
 40
1
 40
1
 10
-31.861760
 20
-6.343404
 30
0.0
 10
-32.913360
 20
-6.343404
 30
0.0
 10
-33.861412
 20
-6.976872
 30
0.0
 10
-34.263842
 20
-7.948423
 30
0.0
  0
SPLINE
  5
15c
100
AcDbEntity
  8
0
 62
7
100
AcDbSpline
 70
8
 71
3
 72
8
 73
4
 74
0
 40
0
 40
0
 40
0
 40
0
 40
1
 40
1
 40
1
 40
1
 10
-34.263842
 20
-7.948423
 30
0.0
 10
-34.666272
 20
-8.919975
 30
0.0
 10
-34.443827
 20
-10.038279
 30
0.0
 10
-33.700234
 20
-10.781872
 30
0.0
  0
SPLINE
  5
15d
100
AcDbEntity
  8
0
 62
7
100
AcDbSpline
 70
8
 71
3
 72
8
 73
4
 74
0
 40
0
 40
0
 40
0
 40
0
 40
1
 40
1
 40
1
 40
1
 10
-33.700234
 20
-10.781872
 30
0.0
 10
-32.956641
 20
-11.525466
 30
0.0
 10
-31.838337
 20
-11.747910
 30
0.0
 10
-30.866785
 20
-11.345480
 30
0.0
  0
SPLINE
  5
15e
100
AcDbEntity
  8
0
 62
7
100
AcDbSpline
 70
8
 71
3
 72
8
 73
4
 74
0
 40
0
 40
0
 40
0
 40
0
 40
1
 40
1
 40
1
 40
1
 10
-30.866785
 20
-11.345480
 30
0.0
 10
-29.895234
 20
-10.943051
 30
0.0
 10
-29.261765
 20
-9.994998
 30
0.0
 10
-29.261765
 20
-8.943398
 30
0.0
  0
SPLINE
  5
15f
100
AcDbEntity
  8
0
 62
7
100
AcDbSpline
 70
8
 71
3
 72
8
 73
4
 74
0
 40
0
 40
0
 40
0
 40
0
 40
1
 40
1
 40
1
 40
1
 10
-29.261765
 20
-8.943398
 30
0.0
 10
-29.261765
 20
-8.253837
 30
0.0
 10
-29.535692
 20
-7.592518
 30
0.0
 10
-30.023286
 20
-7.104924
 30
0.0
  0
SPLINE
  5
160
100
AcDbEntity
  8
0
 62
7
100
AcDbSpline
 70
8
 71
3
 72
8
 73
4
 74
0
 40
0
 40
0
 40
0
 40
0
 40
1
 40
1
 40
1
 40
1
 10
-30.023286
 20
-7.104924
 30
0.0
 10
-30.510880
 20
-6.617331
 30
0.0
 10
-31.172199
 20
-6.343404
 30
0.0
 10
-31.861760
 20
-6.343404
 30
0.0
  0
LWPOLYLINE
  5
161
100
AcDbEntity
  8
0
 62
7
100
AcDbPolyline
 90
2
 70
0
 10
-191.947800
 20
-130.889433
 30
0.0
 10
-312.257440
 20
-85.141493
 30
0.0
  0
SPLINE
  5
162
100
AcDbEntity
  8
0
 62
7
100
AcDbSpline
 70
8
 71
3
 72
8
 73
4
 74
0
 40
0
 40
0
 40
0
 40
0
 40
1
 40
1
 40
1
 40
1
 10
-11.026140
 20
-85.143525
 30
0.0
 10
-10.358834
 20
-84.867057
 30
0.0
 10
-9.923761
 20
-84.215852
 30
0.0
 10
-9.923780
 20
-83.493541
 30
0.0
  0
LWPOLYLINE
  5
163
100
AcDbEntity
  8
0
 62
7
100
AcDbPolyline
 90
1
 70
1
 10
-31.861760
 20
-6.343404
 30
0.0
  0
LWPOLYLINE
  5
164
100
AcDbEntity
  8
0
 62
7
100
AcDbPolyline
 90
2
 70
0
 10
-141.996160
 20
-13.703993
 30
0.0
 10
-181.287420
 20
-13.703993
 30
0.0
  0
ENDSEC
  0
SECTION
  2
OBJECTS
  0
DICTIONARY
  5
C
330
0
100
AcDbDictionary
  3
ACAD_GROUP
350
D
  3
ACAD_MLINESTYLE
350
17
  0
DICTIONARY
  5
D
330
C
100
AcDbDictionary
  0
DICTIONARY
  5
1A
330
C
100
AcDbDictionary
  0
DICTIONARY
  5
17
330
C
100
AcDbDictionary
  3
STANDARD
350
18
  0
DICTIONARY
  5
19
330
C
100
AcDbDictionary
  0
ENDSEC
  0
EOF
