  0
SECTION
  2
HEADER
  9
$ACADVER
  1
AC1014
  9
$HANDSEED
  5
FFFF
  9
$MEASUREMENT
 70
     1
  0
ENDSEC
  0
SECTION
  2
TABLES
  0
TABLE
  2
VPORT
  5
8
330
0
100
AcDbSymbolTable
 70
     4
  0
VPORT
  5
2E
330
8
100
AcDbSymbolTableRecord
100
AcDbViewportTableRecord
  2
*ACTIVE
 70
     0
 10
0.0
 20
0.0
 11
1.0
 21
1.0
 12
210.0
 22
148.5
 13
0.0
 23
0.0
 14
10.0
 24
10.0
 15
10.0
 25
10.0
 16
0.0
 26
0.0
 36
1.0
 17
0.0
 27
0.0
 37
0.0
 40
341.0
 41
1.24
 42
50.0
 43
0.0
 44
0.0
 50
0.0
 51
0.0
 71
     0
 72
   100
 73
     1
 74
     3
 75
     0
 76
     0
 77
     0
 78
     0
  0
ENDTAB
  0
TABLE
  2
LTYPE
  5
5
330
0
100
AcDbSymbolTable
 70
     1
  0
LTYPE
  5
14
330
5
100
AcDbSymbolTableRecord
100
AcDbLinetypeTableRecord
  2
BYBLOCK
 70
     0
  3

 72
    65
 73
     0
 40
0.0
  0
LTYPE
  5
15
330
5
100
AcDbSymbolTableRecord
100
AcDbLinetypeTableRecord
  2
BYLAYER
 70
     0
  3

 72
    65
 73
     0
 40
0.0
  0
LTYPE
  5
16
330
5
100
AcDbSymbolTableRecord
100
AcDbLinetypeTableRecord
  2
CONTINUOUS
 70
     0
  3
Solid line
 72
    65
 73
     0
 40
0.0
  0
ENDTAB
  0
TABLE
  2
LAYER
  5
2
100
AcDbSymbolTable
 70
1
  0
LAYER
  5
50
100
AcDbSymbolTableRecord
100
AcDbLayerTableRecord
  2
0
 70
0
  6
CONTINUOUS
  0
ENDTAB
  0
TABLE
  2
STYLE
  5
3
330
0
100
AcDbSymbolTable
 70
     1
  0
STYLE
  5
11
330
3
100
AcDbSymbolTableRecord
100
AcDbTextStyleTableRecord
  2
STANDARD
 70
     0
 40
0.0
 41
1.0
 50
0.0
 71
     0
 42
2.5
  3
txt
  4

  0
ENDTAB
  0
TABLE
  2
VIEW
  5
6
330
0
100
AcDbSymbolTable
 70
     0
  0
ENDTAB
  0
TABLE
  2
UCS
  5
7
330
0
100
AcDbSymbolTable
 70
     0
  0
ENDTAB
  0
TABLE
  2
APPID
  5
9
330
0
100
AcDbSymbolTable
 70
     2
  0
APPID
  5
12
330
9
100
AcDbSymbolTableRecord
100
AcDbRegAppTableRecord
  2
ACAD
 70
     0
  0
ENDTAB
  0
TABLE
  2
DIMSTYLE
  5
A
330
0
100
AcDbSymbolTable
 70
     1
  0
DIMSTYLE
105
27
330
A
100
AcDbSymbolTableRecord
100
AcDbDimStyleTableRecord
  2
ISO-25
 70
     0
  3

  4

  5

  6

  7

 40
1.0
 41
2.5
 42
0.625
 43
3.75
 44
1.25
 45
0.0
 46
0.0
 47
0.0
 48
0.0
140
2.5
141
2.5
142
0.0
143
0.03937007874016
144
1.0
145
0.0
146
1.0
147
0.625
 71
     0
 72
     0
 73
     0
 74
     0
 75
     0
 76
     0
 77
     1
 78
     8
170
     0
171
     3
172
     1
173
     0
174
     0
175
     0
176
     0
177
     0
178
     0
270
     2
271
     2
272
     2
273
     2
274
     3
340
11
275
     0
280
     0
281
     0
282
     0
283
     0
284
     8
285
     0
286
     0
287
     3
288
     0
  0
ENDTAB
  0
TABLE
  2
BLOCK_RECORD
  5
1
330
0
100
AcDbSymbolTable
 70
     1
  0
BLOCK_RECORD
  5
1F
330
1
100
AcDbSymbolTableRecord
100
AcDbBlockTableRecord
  2
*MODEL_SPACE
  0
BLOCK_RECORD
  5
1B
330
1
100
AcDbSymbolTableRecord
100
AcDbBlockTableRecord
  2
*PAPER_SPACE
  0
ENDTAB
  0
ENDSEC
  0
SECTION
  2
BLOCKS
  0
BLOCK
  5
20
330
1F
100
AcDbEntity
  8
0
100
AcDbBlockBegin
  2
*MODEL_SPACE
 70
     0
 10
0.0
 20
0.0
 30
0.0
  3
*MODEL_SPACE
  1

  0
ENDBLK
  5
21
330
1F
100
AcDbEntity
  8
0
100
AcDbBlockEnd
  0
BLOCK
  5
1C
330
1B
100
AcDbEntity
 67
     1
  8
0
100
AcDbBlockBegin
  2
*PAPER_SPACE
  1

  0
ENDBLK
  5
1D
330
1B
100
AcDbEntity
 67
     1
  8
0
100
AcDbBlockEnd
  0
ENDSEC
  0
SECTION
  2
ENTITIES
  0
LWPOLYLINE
  5
100
100
AcDbEntity
  8
0
 62
7
100
AcDbPolyline
 90
2
 70
0
 10
-405.930100
 20
-20.815295
 30
0.0
 10
-403.740620
 20
-6.987535
 30
0.0
  0
LWPOLYLINE
  5
101
100
AcDbEntity
  8
0
 62
7
100
AcDbPolyline
 90
2
 70
0
 10
-392.102340
 20
-23.007315
 30
0.0
 10
-405.930100
 20
-20.815295
 30
0.0
  0
LWPOLYLINE
  5
102
100
AcDbEntity
  8
0
 62
7
100
AcDbPolyline
 90
2
 70
0
 10
-389.912860
 20
-9.179555
 30
0.0
 10
-392.102340
 20
-23.007315
 30
0.0
  0
LWPOLYLINE
  5
103
100
AcDbEntity
  8
0
 62
7
100
AcDbPolyline
 90
2
 70
0
 10
-403.740620
 20
-6.987535
 30
0.0
 10
-389.912860
 20
-9.179555
 30
0.0
  0
LWPOLYLINE
  5
104
100
AcDbEntity
  8
0
 62
7
100
AcDbPolyline
 90
2
 70
0
 10
-259.613400
 20
-71.188575
 30
0.0
 10
-261.802880
 20
-57.360815
 30
0.0
  0
LWPOLYLINE
  5
105
100
AcDbEntity
  8
0
 62
7
100
AcDbPolyline
 90
2
 70
0
 10
-245.785640
 20
-68.999095
 30
0.0
 10
-259.613400
 20
-71.188575
 30
0.0
  0
LWPOLYLINE
  5
106
100
AcDbEntity
  8
0
 62
7
100
AcDbPolyline
 90
2
 70
0
 10
-247.975120
 20
-55.171335
 30
0.0
 10
-245.785640
 20
-68.999095
 30
0.0
  0
LWPOLYLINE
  5
107
100
AcDbEntity
  8
0
 62
7
100
AcDbPolyline
 90
2
 70
0
 10
-261.802880
 20
-57.360815
 30
0.0
 10
-247.975120
 20
-55.171335
 30
0.0
  0
LWPOLYLINE
  5
108
100
AcDbEntity
  8
0
 62
7
100
AcDbPolyline
 90
2
 70
0
 10
-308.754780
 20
-31.384235
 30
0.0
 10
-306.565300
 20
-17.559015
 30
0.0
  0
LWPOLYLINE
  5
109
100
AcDbEntity
  8
0
 62
7
100
AcDbPolyline
 90
2
 70
0
 10
-294.927020
 20
-33.576255
 30
0.0
 10
-308.754780
 20
-31.384235
 30
0.0
  0
LWPOLYLINE
  5
10a
100
AcDbEntity
  8
0
 62
7
100
AcDbPolyline
 90
2
 70
0
 10
-292.737540
 20
-19.748495
 30
0.0
 10
-294.927020
 20
-33.576255
 30
0.0
  0
LWPOLYLINE
  5
10b
100
AcDbEntity
  8
0
 62
7
100
AcDbPolyline
 90
2
 70
0
 10
-306.565300
 20
-17.559015
 30
0.0
 10
-292.737540
 20
-19.748495
 30
0.0
  0
LWPOLYLINE
  5
10c
100
AcDbEntity
  8
0
 62
7
100
AcDbPolyline
 90
2
 70
0
 10
-168.399460
 20
-22.989535
 30
0.0
 10
-170.588940
 20
-9.161775
 30
0.0
  0
LWPOLYLINE
  5
10d
100
AcDbEntity
  8
0
 62
7
100
AcDbPolyline
 90
2
 70
0
 10
-154.571700
 20
-20.800055
 30
0.0
 10
-168.399460
 20
-22.989535
 30
0.0
  0
LWPOLYLINE
  5
10e
100
AcDbEntity
  8
0
 62
7
100
AcDbPolyline
 90
2
 70
0
 10
-156.761180
 20
-6.972295
 30
0.0
 10
-154.571700
 20
-20.800055
 30
0.0
  0
LWPOLYLINE
  5
10f
100
AcDbEntity
  8
0
 62
7
100
AcDbPolyline
 90
2
 70
0
 10
-170.588940
 20
-9.161775
 30
0.0
 10
-156.761180
 20
-6.972295
 30
0.0
  0
LWPOLYLINE
  5
110
100
AcDbEntity
  8
0
 62
7
100
AcDbPolyline
 90
2
 70
0
 10
-225.706940
 20
-41.709335
 30
0.0
 10
-227.896420
 20
-27.881575
 30
0.0
  0
LWPOLYLINE
  5
111
100
AcDbEntity
  8
0
 62
7
100
AcDbPolyline
 90
2
 70
0
 10
-211.879180
 20
-39.519855
 30
0.0
 10
-225.706940
 20
-41.709335
 30
0.0
  0
LWPOLYLINE
  5
112
100
AcDbEntity
  8
0
 62
7
100
AcDbPolyline
 90
2
 70
0
 10
-214.071200
 20
-25.692095
 30
0.0
 10
-211.879180
 20
-39.519855
 30
0.0
  0
LWPOLYLINE
  5
113
100
AcDbEntity
  8
0
 62
7
100
AcDbPolyline
 90
2
 70
0
 10
-227.896420
 20
-27.881575
 30
0.0
 10
-214.071200
 20
-25.692095
 30
0.0
  0
LWPOLYLINE
  5
114
100
AcDbEntity
  8
0
 62
7
100
AcDbPolyline
 90
2
 70
0
 10
-186.585860
 20
-45.156115
 30
0.0
 10
-188.775340
 20
-31.328355
 30
0.0
  0
LWPOLYLINE
  5
115
100
AcDbEntity
  8
0
 62
7
100
AcDbPolyline
 90
2
 70
0
 10
-172.758100
 20
-42.966635
 30
0.0
 10
-186.585860
 20
-45.156115
 30
0.0
  0
LWPOLYLINE
  5
116
100
AcDbEntity
  8
0
 62
7
100
AcDbPolyline
 90
2
 70
0
 10
-174.950120
 20
-29.138875
 30
0.0
 10
-172.758100
 20
-42.966635
 30
0.0
  0
LWPOLYLINE
  5
117
100
AcDbEntity
  8
0
 62
7
100
AcDbPolyline
 90
2
 70
0
 10
-188.775340
 20
-31.328355
 30
0.0
 10
-174.950120
 20
-29.138875
 30
0.0
  0
LWPOLYLINE
  5
118
100
AcDbEntity
  8
0
 62
7
100
AcDbPolyline
 90
2
 70
0
 10
-203.166980
 20
-62.247775
 30
0.0
 10
-205.356460
 20
-48.420015
 30
0.0
  0
LWPOLYLINE
  5
119
100
AcDbEntity
  8
0
 62
7
100
AcDbPolyline
 90
2
 70
0
 10
-189.339220
 20
-60.058295
 30
0.0
 10
-203.166980
 20
-62.247775
 30
0.0
  0
LWPOLYLINE
  5
11a
100
AcDbEntity
  8
0
 62
7
100
AcDbPolyline
 90
2
 70
0
 10
-191.528700
 20
-46.230535
 30
0.0
 10
-189.339220
 20
-60.058295
 30
0.0
  0
LWPOLYLINE
  5
11b
100
AcDbEntity
  8
0
 62
7
100
AcDbPolyline
 90
2
 70
0
 10
-205.356460
 20
-48.420015
 30
0.0
 10
-191.528700
 20
-46.230535
 30
0.0
  0
LWPOLYLINE
  5
11c
100
AcDbEntity
  8
0
 62
7
100
AcDbPolyline
 90
2
 70
0
 10
-209.128360
 20
-24.617675
 30
0.0
 10
-211.317840
 20
-10.789915
 30
0.0
  0
LWPOLYLINE
  5
11d
100
AcDbEntity
  8
0
 62
7
100
AcDbPolyline
 90
2
 70
0
 10
-195.300600
 20
-22.428195
 30
0.0
 10
-209.128360
 20
-24.617675
 30
0.0
  0
LWPOLYLINE
  5
11e
100
AcDbEntity
  8
0
 62
7
100
AcDbPolyline
 90
2
 70
0
 10
-197.490080
 20
-8.600435
 30
0.0
 10
-195.300600
 20
-22.428195
 30
0.0
  0
LWPOLYLINE
  5
11f
100
AcDbEntity
  8
0
 62
7
100
AcDbPolyline
 90
2
 70
0
 10
-211.317840
 20
-10.789915
 30
0.0
 10
-197.490080
 20
-8.600435
 30
0.0
  0
LWPOLYLINE
  5
120
100
AcDbEntity
  8
0
 62
7
100
AcDbPolyline
 90
2
 70
0
 10
-365.201200
 20
-22.445975
 30
0.0
 10
-363.011720
 20
-8.618215
 30
0.0
  0
LWPOLYLINE
  5
121
100
AcDbEntity
  8
0
 62
7
100
AcDbPolyline
 90
2
 70
0
 10
-351.375980
 20
-24.635455
 30
0.0
 10
-365.201200
 20
-22.445975
 30
0.0
  0
LWPOLYLINE
  5
122
100
AcDbEntity
  8
0
 62
7
100
AcDbPolyline
 90
2
 70
0
 10
-349.183960
 20
-10.807695
 30
0.0
 10
-351.375980
 20
-24.635455
 30
0.0
  0
LWPOLYLINE
  5
123
100
AcDbEntity
  8
0
 62
7
100
AcDbPolyline
 90
2
 70
0
 10
-363.011720
 20
-8.618215
 30
0.0
 10
-349.183960
 20
-10.807695
 30
0.0
  0
LWPOLYLINE
  5
124
100
AcDbEntity
  8
0
 62
7
100
AcDbPolyline
 90
2
 70
0
 10
-243.779040
 20
-49.392835
 30
0.0
 10
-245.968520
 20
-35.565075
 30
0.0
  0
LWPOLYLINE
  5
125
100
AcDbEntity
  8
0
 62
7
100
AcDbPolyline
 90
2
 70
0
 10
-229.951280
 20
-47.203355
 30
0.0
 10
-243.779040
 20
-49.392835
 30
0.0
  0
LWPOLYLINE
  5
126
100
AcDbEntity
  8
0
 62
7
100
AcDbPolyline
 90
2
 70
0
 10
-232.140760
 20
-33.375595
 30
0.0
 10
-229.951280
 20
-47.203355
 30
0.0
  0
LWPOLYLINE
  5
127
100
AcDbEntity
  8
0
 62
7
100
AcDbPolyline
 90
2
 70
0
 10
-245.968520
 20
-35.565075
 30
0.0
 10
-232.140760
 20
-33.375595
 30
0.0
  0
LWPOLYLINE
  5
128
100
AcDbEntity
  8
0
 62
7
100
AcDbPolyline
 90
2
 70
0
 10
-162.438080
 20
-60.619635
 30
0.0
 10
-164.630100
 20
-46.791875
 30
0.0
  0
LWPOLYLINE
  5
129
100
AcDbEntity
  8
0
 62
7
100
AcDbPolyline
 90
2
 70
0
 10
-148.610320
 20
-58.430155
 30
0.0
 10
-162.438080
 20
-60.619635
 30
0.0
  0
LWPOLYLINE
  5
12a
100
AcDbEntity
  8
0
 62
7
100
AcDbPolyline
 90
2
 70
0
 10
-150.802340
 20
-44.602395
 30
0.0
 10
-148.610320
 20
-58.430155
 30
0.0
  0
LWPOLYLINE
  5
12b
100
AcDbEntity
  8
0
 62
7
100
AcDbPolyline
 90
2
 70
0
 10
-164.630100
 20
-46.791875
 30
0.0
 10
-150.802340
 20
-44.602395
 30
0.0
  0
LWPOLYLINE
  5
12c
100
AcDbEntity
  8
0
 62
7
100
AcDbPolyline
 90
2
 70
0
 10
-351.602040
 20
-58.351415
 30
0.0
 10
-349.412560
 20
-44.523655
 30
0.0
  0
LWPOLYLINE
  5
12d
100
AcDbEntity
  8
0
 62
7
100
AcDbPolyline
 90
2
 70
0
 10
-337.774280
 20
-60.543435
 30
0.0
 10
-351.602040
 20
-58.351415
 30
0.0
  0
LWPOLYLINE
  5
12e
100
AcDbEntity
  8
0
 62
7
100
AcDbPolyline
 90
2
 70
0
 10
-335.584800
 20
-46.715675
 30
0.0
 10
-337.774280
 20
-60.543435
 30
0.0
  0
LWPOLYLINE
  5
12f
100
AcDbEntity
  8
0
 62
7
100
AcDbPolyline
 90
2
 70
0
 10
-349.412560
 20
-44.523655
 30
0.0
 10
-335.584800
 20
-46.715675
 30
0.0
  0
LWPOLYLINE
  5
130
100
AcDbEntity
  8
0
 62
7
100
AcDbPolyline
 90
2
 70
0
 10
-333.532480
 20
-66.037455
 30
0.0
 10
-331.340460
 20
-52.209695
 30
0.0
  0
LWPOLYLINE
  5
131
100
AcDbEntity
  8
0
 62
7
100
AcDbPolyline
 90
2
 70
0
 10
-319.704720
 20
-68.226935
 30
0.0
 10
-333.532480
 20
-66.037455
 30
0.0
  0
LWPOLYLINE
  5
132
100
AcDbEntity
  8
0
 62
7
100
AcDbPolyline
 90
2
 70
0
 10
-317.512700
 20
-54.399175
 30
0.0
 10
-319.704720
 20
-68.226935
 30
0.0
  0
LWPOLYLINE
  5
133
100
AcDbEntity
  8
0
 62
7
100
AcDbPolyline
 90
2
 70
0
 10
-331.340460
 20
-52.209695
 30
0.0
 10
-317.512700
 20
-54.399175
 30
0.0
  0
LWPOLYLINE
  5
134
100
AcDbEntity
  8
0
 62
7
100
AcDbPolyline
 90
2
 70
0
 10
-240.797080
 20
-68.209155
 30
0.0
 10
-242.989100
 20
-54.381395
 30
0.0
  0
LWPOLYLINE
  5
135
100
AcDbEntity
  8
0
 62
7
100
AcDbPolyline
 90
2
 70
0
 10
-226.969320
 20
-66.019675
 30
0.0
 10
-240.797080
 20
-68.209155
 30
0.0
  0
LWPOLYLINE
  5
136
100
AcDbEntity
  8
0
 62
7
100
AcDbPolyline
 90
2
 70
0
 10
-229.161340
 20
-52.191915
 30
0.0
 10
-226.969320
 20
-66.019675
 30
0.0
  0
LWPOLYLINE
  5
137
100
AcDbEntity
  8
0
 62
7
100
AcDbPolyline
 90
2
 70
0
 10
-242.989100
 20
-54.381395
 30
0.0
 10
-229.161340
 20
-52.191915
 30
0.0
  0
LWPOLYLINE
  5
138
100
AcDbEntity
  8
0
 62
7
100
AcDbPolyline
 90
2
 70
0
 10
-219.748100
 20
-79.339435
 30
0.0
 10
-221.937580
 20
-65.511675
 30
0.0
  0
LWPOLYLINE
  5
139
100
AcDbEntity
  8
0
 62
7
100
AcDbPolyline
 90
2
 70
0
 10
-205.920340
 20
-77.149955
 30
0.0
 10
-219.748100
 20
-79.339435
 30
0.0
  0
LWPOLYLINE
  5
13a
100
AcDbEntity
  8
0
 62
7
100
AcDbPolyline
 90
2
 70
0
 10
-208.109820
 20
-63.322195
 30
0.0
 10
-205.920340
 20
-77.149955
 30
0.0
  0
LWPOLYLINE
  5
13b
100
AcDbEntity
  8
0
 62
7
100
AcDbPolyline
 90
2
 70
0
 10
-221.937580
 20
-65.511675
 30
0.0
 10
-208.109820
 20
-63.322195
 30
0.0
  0
LWPOLYLINE
  5
13c
100
AcDbEntity
  8
0
 62
7
100
AcDbPolyline
 90
2
 70
0
 10
-228.688900
 20
-22.893015
 30
0.0
 10
-230.878380
 20
-9.065255
 30
0.0
  0
LWPOLYLINE
  5
13d
100
AcDbEntity
  8
0
 62
7
100
AcDbPolyline
 90
2
 70
0
 10
-214.861140
 20
-20.703535
 30
0.0
 10
-228.688900
 20
-22.893015
 30
0.0
  0
LWPOLYLINE
  5
13e
100
AcDbEntity
  8
0
 62
7
100
AcDbPolyline
 90
2
 70
0
 10
-217.050620
 20
-6.875775
 30
0.0
 10
-214.861140
 20
-20.703535
 30
0.0
  0
LWPOLYLINE
  5
13f
100
AcDbEntity
  8
0
 62
7
100
AcDbPolyline
 90
2
 70
0
 10
-230.878380
 20
-9.065255
 30
0.0
 10
-217.050620
 20
-6.875775
 30
0.0
  0
LWPOLYLINE
  5
140
100
AcDbEntity
  8
0
 62
7
100
AcDbPolyline
 90
2
 70
0
 10
-327.571100
 20
-28.404815
 30
0.0
 10
-325.381620
 20
-14.577055
 30
0.0
  0
LWPOLYLINE
  5
141
100
AcDbEntity
  8
0
 62
7
100
AcDbPolyline
 90
2
 70
0
 10
-313.743340
 20
-30.594295
 30
0.0
 10
-327.571100
 20
-28.404815
 30
0.0
  0
LWPOLYLINE
  5
142
100
AcDbEntity
  8
0
 62
7
100
AcDbPolyline
 90
2
 70
0
 10
-311.553860
 20
-16.766535
 30
0.0
 10
-313.743340
 20
-30.594295
 30
0.0
  0
LWPOLYLINE
  5
143
100
AcDbEntity
  8
0
 62
7
100
AcDbPolyline
 90
2
 70
0
 10
-325.381620
 20
-14.577055
 30
0.0
 10
-311.553860
 20
-16.766535
 30
0.0
  0
LWPOLYLINE
  5
144
100
AcDbEntity
  8
0
 62
7
100
AcDbPolyline
 90
2
 70
0
 10
-314.716160
 20
-69.016875
 30
0.0
 10
-312.526680
 20
-55.189115
 30
0.0
  0
LWPOLYLINE
  5
145
100
AcDbEntity
  8
0
 62
7
100
AcDbPolyline
 90
2
 70
0
 10
-300.888400
 20
-71.206355
 30
0.0
 10
-314.716160
 20
-69.016875
 30
0.0
  0
LWPOLYLINE
  5
146
100
AcDbEntity
  8
0
 62
7
100
AcDbPolyline
 90
2
 70
0
 10
-298.698920
 20
-57.378595
 30
0.0
 10
-300.888400
 20
-71.206355
 30
0.0
  0
LWPOLYLINE
  5
147
100
AcDbEntity
  8
0
 62
7
100
AcDbPolyline
 90
2
 70
0
 10
-312.526680
 20
-55.189115
 30
0.0
 10
-298.698920
 20
-57.378595
 30
0.0
  0
LWPOLYLINE
  5
148
100
AcDbEntity
  8
0
 62
7
100
AcDbPolyline
 90
2
 70
0
 10
-189.565280
 20
-26.342335
 30
0.0
 10
-191.757300
 20
-12.514575
 30
0.0
  0
LWPOLYLINE
  5
149
100
AcDbEntity
  8
0
 62
7
100
AcDbPolyline
 90
2
 70
0
 10
-175.740060
 20
-24.150315
 30
0.0
 10
-189.565280
 20
-26.342335
 30
0.0
  0
LWPOLYLINE
  5
14a
100
AcDbEntity
  8
0
 62
7
100
AcDbPolyline
 90
2
 70
0
 10
-177.929540
 20
-10.322555
 30
0.0
 10
-175.740060
 20
-24.150315
 30
0.0
  0
LWPOLYLINE
  5
14b
100
AcDbEntity
  8
0
 62
7
100
AcDbPolyline
 90
2
 70
0
 10
-191.757300
 20
-12.514575
 30
0.0
 10
-177.929540
 20
-10.322555
 30
0.0
  0
LWPOLYLINE
  5
14c
100
AcDbEntity
  8
0
 62
7
100
AcDbPolyline
 90
2
 70
0
 10
-384.761740
 20
-24.168095
 30
0.0
 10
-382.572260
 20
-10.340335
 30
0.0
  0
LWPOLYLINE
  5
14d
100
AcDbEntity
  8
0
 62
7
100
AcDbPolyline
 90
2
 70
0
 10
-370.936520
 20
-26.360115
 30
0.0
 10
-384.761740
 20
-24.168095
 30
0.0
  0
LWPOLYLINE
  5
14e
100
AcDbEntity
  8
0
 62
7
100
AcDbPolyline
 90
2
 70
0
 10
-368.744500
 20
-12.532355
 30
0.0
 10
-370.936520
 20
-26.360115
 30
0.0
  0
LWPOLYLINE
  5
14f
100
AcDbEntity
  8
0
 62
7
100
AcDbPolyline
 90
2
 70
0
 10
-382.572260
 20
-10.340335
 30
0.0
 10
-368.744500
 20
-12.532355
 30
0.0
  0
LWPOLYLINE
  5
150
100
AcDbEntity
  8
0
 62
7
100
AcDbPolyline
 90
2
 70
0
 10
-165.420040
 20
-41.803315
 30
0.0
 10
-167.609520
 20
-27.975555
 30
0.0
  0
LWPOLYLINE
  5
151
100
AcDbEntity
  8
0
 62
7
100
AcDbPolyline
 90
2
 70
0
 10
-151.592280
 20
-39.613835
 30
0.0
 10
-165.420040
 20
-41.803315
 30
0.0
  0
LWPOLYLINE
  5
152
100
AcDbEntity
  8
0
 62
7
100
AcDbPolyline
 90
2
 70
0
 10
-153.781760
 20
-25.786075
 30
0.0
 10
-151.592280
 20
-39.613835
 30
0.0
  0
LWPOLYLINE
  5
153
100
AcDbEntity
  8
0
 62
7
100
AcDbPolyline
 90
2
 70
0
 10
-167.609520
 20
-27.975555
 30
0.0
 10
-153.781760
 20
-25.786075
 30
0.0
  0
LWPOLYLINE
  5
154
100
AcDbEntity
  8
0
 62
7
100
AcDbPolyline
 90
2
 70
0
 10
-336.511900
 20
-84.851235
 30
0.0
 10
-334.322420
 20
-71.023475
 30
0.0
  0
LWPOLYLINE
  5
155
100
AcDbEntity
  8
0
 62
7
100
AcDbPolyline
 90
2
 70
0
 10
-322.684140
 20
-87.043255
 30
0.0
 10
-336.511900
 20
-84.851235
 30
0.0
  0
LWPOLYLINE
  5
156
100
AcDbEntity
  8
0
 62
7
100
AcDbPolyline
 90
2
 70
0
 10
-320.494660
 20
-73.215495
 30
0.0
 10
-322.684140
 20
-87.043255
 30
0.0
  0
LWPOLYLINE
  5
157
100
AcDbEntity
  8
0
 62
7
100
AcDbPolyline
 90
2
 70
0
 10
-334.322420
 20
-71.023475
 30
0.0
 10
-320.494660
 20
-73.215495
 30
0.0
  0
LWPOLYLINE
  5
158
100
AcDbEntity
  8
0
 62
7
100
AcDbPolyline
 90
2
 70
0
 10
-390.723120
 20
-61.800735
 30
0.0
 10
-388.533640
 20
-47.972975
 30
0.0
  0
LWPOLYLINE
  5
159
100
AcDbEntity
  8
0
 62
7
100
AcDbPolyline
 90
2
 70
0
 10
-376.895360
 20
-63.990215
 30
0.0
 10
-390.723120
 20
-61.800735
 30
0.0
  0
LWPOLYLINE
  5
15a
100
AcDbEntity
  8
0
 62
7
100
AcDbPolyline
 90
2
 70
0
 10
-374.705880
 20
-50.162455
 30
0.0
 10
-376.895360
 20
-63.990215
 30
0.0
  0
LWPOLYLINE
  5
15b
100
AcDbEntity
  8
0
 62
7
100
AcDbPolyline
 90
2
 70
0
 10
-388.533640
 20
-47.972975
 30
0.0
 10
-374.705880
 20
-50.162455
 30
0.0
  0
LWPOLYLINE
  5
15c
100
AcDbEntity
  8
0
 62
7
100
AcDbPolyline
 90
2
 70
0
 10
-246.758460
 20
-30.579055
 30
0.0
 10
-248.947940
 20
-16.751295
 30
0.0
  0
LWPOLYLINE
  5
15d
100
AcDbEntity
  8
0
 62
7
100
AcDbPolyline
 90
2
 70
0
 10
-232.930700
 20
-28.387035
 30
0.0
 10
-246.758460
 20
-30.579055
 30
0.0
  0
LWPOLYLINE
  5
15e
100
AcDbEntity
  8
0
 62
7
100
AcDbPolyline
 90
2
 70
0
 10
-235.120180
 20
-14.559275
 30
0.0
 10
-232.930700
 20
-28.387035
 30
0.0
  0
LWPOLYLINE
  5
15f
100
AcDbEntity
  8
0
 62
7
100
AcDbPolyline
 90
2
 70
0
 10
-248.947940
 20
-16.751295
 30
0.0
 10
-235.120180
 20
-14.559275
 30
0.0
  0
LWPOLYLINE
  5
160
100
AcDbEntity
  8
0
 62
7
100
AcDbPolyline
 90
2
 70
0
 10
-387.743700
 20
-42.984415
 30
0.0
 10
-385.551680
 20
-29.156655
 30
0.0
  0
LWPOLYLINE
  5
161
100
AcDbEntity
  8
0
 62
7
100
AcDbPolyline
 90
2
 70
0
 10
-373.915940
 20
-45.173895
 30
0.0
 10
-387.743700
 20
-42.984415
 30
0.0
  0
LWPOLYLINE
  5
162
100
AcDbEntity
  8
0
 62
7
100
AcDbPolyline
 90
2
 70
0
 10
-371.726460
 20
-31.346135
 30
0.0
 10
-373.915940
 20
-45.173895
 30
0.0
  0
LWPOLYLINE
  5
163
100
AcDbEntity
  8
0
 62
7
100
AcDbPolyline
 90
2
 70
0
 10
-385.551680
 20
-29.156655
 30
0.0
 10
-371.726460
 20
-31.346135
 30
0.0
  0
LWPOLYLINE
  5
164
100
AcDbEntity
  8
0
 62
7
100
AcDbPolyline
 90
2
 70
0
 10
-287.296860
 20
-58.963555
 30
0.0
 10
-273.298920
 20
-58.963555
 30
0.0
  0
LWPOLYLINE
  5
165
100
AcDbEntity
  8
0
 62
7
100
AcDbPolyline
 90
2
 70
0
 10
-287.296860
 20
-73.400915
 30
0.0
 10
-287.296860
 20
-58.963555
 30
0.0
  0
LWPOLYLINE
  5
166
100
AcDbEntity
  8
0
 62
7
100
AcDbPolyline
 90
2
 70
0
 10
-273.298920
 20
-73.400915
 30
0.0
 10
-287.296860
 20
-73.400915
 30
0.0
  0
LWPOLYLINE
  5
167
100
AcDbEntity
  8
0
 62
7
100
AcDbPolyline
 90
2
 70
0
 10
-273.298920
 20
-58.963555
 30
0.0
 10
-273.298920
 20
-73.400915
 30
0.0
  0
LWPOLYLINE
  5
168
100
AcDbEntity
  8
0
 62
7
100
AcDbPolyline
 90
2
 70
0
 10
-222.727520
 20
-60.525655
 30
0.0
 10
-224.917000
 20
-46.697895
 30
0.0
  0
LWPOLYLINE
  5
169
100
AcDbEntity
  8
0
 62
7
100
AcDbPolyline
 90
2
 70
0
 10
-208.899760
 20
-58.336175
 30
0.0
 10
-222.727520
 20
-60.525655
 30
0.0
  0
LWPOLYLINE
  5
16a
100
AcDbEntity
  8
0
 62
7
100
AcDbPolyline
 90
2
 70
0
 10
-211.089240
 20
-44.508415
 30
0.0
 10
-208.899760
 20
-58.336175
 30
0.0
  0
LWPOLYLINE
  5
16b
100
AcDbEntity
  8
0
 62
7
100
AcDbPolyline
 90
2
 70
0
 10
-224.917000
 20
-46.697895
 30
0.0
 10
-211.089240
 20
-44.508415
 30
0.0
  0
LWPOLYLINE
  5
16c
100
AcDbEntity
  8
0
 62
7
100
AcDbPolyline
 90
2
 70
0
 10
-183.606440
 20
-63.972435
 30
0.0
 10
-185.795920
 20
-50.144675
 30
0.0
  0
LWPOLYLINE
  5
16d
100
AcDbEntity
  8
0
 62
7
100
AcDbPolyline
 90
2
 70
0
 10
-169.778680
 20
-61.782955
 30
0.0
 10
-183.606440
 20
-63.972435
 30
0.0
  0
LWPOLYLINE
  5
16e
100
AcDbEntity
  8
0
 62
7
100
AcDbPolyline
 90
2
 70
0
 10
-171.968160
 20
-47.955195
 30
0.0
 10
-169.778680
 20
-61.782955
 30
0.0
  0
LWPOLYLINE
  5
16f
100
AcDbEntity
  8
0
 62
7
100
AcDbPolyline
 90
2
 70
0
 10
-185.795920
 20
-50.144675
 30
0.0
 10
-171.968160
 20
-47.955195
 30
0.0
  0
LWPOLYLINE
  5
170
100
AcDbEntity
  8
0
 62
7
100
AcDbPolyline
 90
2
 70
0
 10
-311.736740
 20
-50.200555
 30
0.0
 10
-309.544720
 20
-36.372795
 30
0.0
  0
LWPOLYLINE
  5
171
100
AcDbEntity
  8
0
 62
7
100
AcDbPolyline
 90
2
 70
0
 10
-297.908980
 20
-52.390035
 30
0.0
 10
-311.736740
 20
-50.200555
 30
0.0
  0
LWPOLYLINE
  5
172
100
AcDbEntity
  8
0
 62
7
100
AcDbPolyline
 90
2
 70
0
 10
-295.716960
 20
-38.562275
 30
0.0
 10
-297.908980
 20
-52.390035
 30
0.0
  0
LWPOLYLINE
  5
173
100
AcDbEntity
  8
0
 62
7
100
AcDbPolyline
 90
2
 70
0
 10
-309.544720
 20
-36.372795
 30
0.0
 10
-295.716960
 20
-38.562275
 30
0.0
  0
LWPOLYLINE
  5
174
100
AcDbEntity
  8
0
 62
7
100
AcDbPolyline
 90
2
 70
0
 10
-368.183160
 20
-41.259755
 30
0.0
 10
-365.991140
 20
-27.431995
 30
0.0
  0
LWPOLYLINE
  5
175
100
AcDbEntity
  8
0
 62
7
100
AcDbPolyline
 90
2
 70
0
 10
-354.355400
 20
-43.451775
 30
0.0
 10
-368.183160
 20
-41.259755
 30
0.0
  0
LWPOLYLINE
  5
176
100
AcDbEntity
  8
0
 62
7
100
AcDbPolyline
 90
2
 70
0
 10
-352.165920
 20
-29.624015
 30
0.0
 10
-354.355400
 20
-43.451775
 30
0.0
  0
LWPOLYLINE
  5
177
100
AcDbEntity
  8
0
 62
7
100
AcDbPolyline
 90
2
 70
0
 10
-365.991140
 20
-27.431995
 30
0.0
 10
-352.165920
 20
-29.624015
 30
0.0
  0
LWPOLYLINE
  5
178
100
AcDbEntity
  8
0
 62
7
100
AcDbPolyline
 90
2
 70
0
 10
-408.909520
 20
-39.631615
 30
0.0
 10
-406.720040
 20
-25.803855
 30
0.0
  0
LWPOLYLINE
  5
179
100
AcDbEntity
  8
0
 62
7
100
AcDbPolyline
 90
2
 70
0
 10
-395.081760
 20
-41.821095
 30
0.0
 10
-408.909520
 20
-39.631615
 30
0.0
  0
LWPOLYLINE
  5
17a
100
AcDbEntity
  8
0
 62
7
100
AcDbPolyline
 90
2
 70
0
 10
-392.892280
 20
-27.993335
 30
0.0
 10
-395.081760
 20
-41.821095
 30
0.0
  0
LWPOLYLINE
  5
17b
100
AcDbEntity
  8
0
 62
7
100
AcDbPolyline
 90
2
 70
0
 10
-406.720040
 20
-25.803855
 30
0.0
 10
-392.892280
 20
-27.993335
 30
0.0
  0
LWPOLYLINE
  5
17c
100
AcDbEntity
  8
0
 62
7
100
AcDbPolyline
 90
2
 70
0
 10
-265.574780
 20
-33.558475
 30
0.0
 10
-267.764260
 20
-19.730715
 30
0.0
  0
LWPOLYLINE
  5
17d
100
AcDbEntity
  8
0
 62
7
100
AcDbPolyline
 90
2
 70
0
 10
-251.747020
 20
-31.368995
 30
0.0
 10
-265.574780
 20
-33.558475
 30
0.0
  0
LWPOLYLINE
  5
17e
100
AcDbEntity
  8
0
 62
7
100
AcDbPolyline
 90
2
 70
0
 10
-253.936500
 20
-17.541235
 30
0.0
 10
-251.747020
 20
-31.368995
 30
0.0
  0
LWPOLYLINE
  5
17f
100
AcDbEntity
  8
0
 62
7
100
AcDbPolyline
 90
2
 70
0
 10
-267.764260
 20
-19.730715
 30
0.0
 10
-253.936500
 20
-17.541235
 30
0.0
  0
LWPOLYLINE
  5
180
100
AcDbEntity
  8
0
 62
7
100
AcDbPolyline
 90
2
 70
0
 10
-345.640660
 20
-20.721315
 30
0.0
 10
-343.451180
 20
-6.893555
 30
0.0
  0
LWPOLYLINE
  5
181
100
AcDbEntity
  8
0
 62
7
100
AcDbPolyline
 90
2
 70
0
 10
-331.812900
 20
-22.910795
 30
0.0
 10
-345.640660
 20
-20.721315
 30
0.0
  0
LWPOLYLINE
  5
182
100
AcDbEntity
  8
0
 62
7
100
AcDbPolyline
 90
2
 70
0
 10
-329.623420
 20
-9.083035
 30
0.0
 10
-331.812900
 20
-22.910795
 30
0.0
  0
LWPOLYLINE
  5
183
100
AcDbEntity
  8
0
 62
7
100
AcDbPolyline
 90
2
 70
0
 10
-343.451180
 20
-6.893555
 30
0.0
 10
-329.623420
 20
-9.083035
 30
0.0
  0
LWPOLYLINE
  5
184
100
AcDbEntity
  8
0
 62
7
100
AcDbPolyline
 90
2
 70
0
 10
-237.817660
 20
-87.025475
 30
0.0
 10
-240.007140
 20
-73.197715
 30
0.0
  0
LWPOLYLINE
  5
185
100
AcDbEntity
  8
0
 62
7
100
AcDbPolyline
 90
2
 70
0
 10
-223.989900
 20
-84.833455
 30
0.0
 10
-237.817660
 20
-87.025475
 30
0.0
  0
LWPOLYLINE
  5
186
100
AcDbEntity
  8
0
 62
7
100
AcDbPolyline
 90
2
 70
0
 10
-226.179380
 20
-71.005695
 30
0.0
 10
-223.989900
 20
-84.833455
 30
0.0
  0
LWPOLYLINE
  5
187
100
AcDbEntity
  8
0
 62
7
100
AcDbPolyline
 90
2
 70
0
 10
-240.007140
 20
-73.197715
 30
0.0
 10
-226.179380
 20
-71.005695
 30
0.0
  0
LWPOLYLINE
  5
188
100
AcDbEntity
  8
0
 62
7
100
AcDbPolyline
 90
2
 70
0
 10
-330.550520
 20
-47.221135
 30
0.0
 10
-328.361040
 20
-33.393375
 30
0.0
  0
LWPOLYLINE
  5
189
100
AcDbEntity
  8
0
 62
7
100
AcDbPolyline
 90
2
 70
0
 10
-316.722760
 20
-49.410615
 30
0.0
 10
-330.550520
 20
-47.221135
 30
0.0
  0
LWPOLYLINE
  5
18a
100
AcDbEntity
  8
0
 62
7
100
AcDbPolyline
 90
2
 70
0
 10
-314.533280
 20
-35.582855
 30
0.0
 10
-316.722760
 20
-49.410615
 30
0.0
  0
LWPOLYLINE
  5
18b
100
AcDbEntity
  8
0
 62
7
100
AcDbPolyline
 90
2
 70
0
 10
-328.361040
 20
-33.393375
 30
0.0
 10
-314.533280
 20
-35.582855
 30
0.0
  0
LWPOLYLINE
  5
18c
100
AcDbEntity
  8
0
 62
7
100
AcDbPolyline
 90
2
 70
0
 10
-206.146400
 20
-43.433995
 30
0.0
 10
-208.335880
 20
-29.606235
 30
0.0
  0
LWPOLYLINE
  5
18d
100
AcDbEntity
  8
0
 62
7
100
AcDbPolyline
 90
2
 70
0
 10
-192.318640
 20
-41.241975
 30
0.0
 10
-206.146400
 20
-43.433995
 30
0.0
  0
LWPOLYLINE
  5
18e
100
AcDbEntity
  8
0
 62
7
100
AcDbPolyline
 90
2
 70
0
 10
-194.510660
 20
-27.416755
 30
0.0
 10
-192.318640
 20
-41.241975
 30
0.0
  0
LWPOLYLINE
  5
18f
100
AcDbEntity
  8
0
 62
7
100
AcDbPolyline
 90
2
 70
0
 10
-208.335880
 20
-29.606235
 30
0.0
 10
-194.510660
 20
-27.416755
 30
0.0
  0
LWPOLYLINE
  5
190
100
AcDbEntity
  8
0
 62
7
100
AcDbPolyline
 90
2
 70
0
 10
-348.622620
 20
-39.537635
 30
0.0
 10
-346.430600
 20
-25.709875
 30
0.0
  0
LWPOLYLINE
  5
191
100
AcDbEntity
  8
0
 62
7
100
AcDbPolyline
 90
2
 70
0
 10
-334.794860
 20
-41.727115
 30
0.0
 10
-348.622620
 20
-39.537635
 30
0.0
  0
LWPOLYLINE
  5
192
100
AcDbEntity
  8
0
 62
7
100
AcDbPolyline
 90
2
 70
0
 10
-332.605380
 20
-27.899355
 30
0.0
 10
-334.794860
 20
-41.727115
 30
0.0
  0
LWPOLYLINE
  5
193
100
AcDbEntity
  8
0
 62
7
100
AcDbPolyline
 90
2
 70
0
 10
-346.430600
 20
-25.709875
 30
0.0
 10
-332.605380
 20
-27.899355
 30
0.0
  0
LWPOLYLINE
  5
194
100
AcDbEntity
  8
0
 62
7
100
AcDbPolyline
 90
2
 70
0
 10
-313.781440
 20
-89.120975
 30
0.0
 10
-302.453040
 20
-80.891375
 30
0.0
  0
LWPOLYLINE
  5
195
100
AcDbEntity
  8
0
 62
7
100
AcDbPolyline
 90
2
 70
0
 10
-305.551840
 20
-100.446835
 30
0.0
 10
-313.781440
 20
-89.120975
 30
0.0
  0
LWPOLYLINE
  5
196
100
AcDbEntity
  8
0
 62
7
100
AcDbPolyline
 90
2
 70
0
 10
-294.225980
 20
-92.217235
 30
0.0
 10
-305.551840
 20
-100.446835
 30
0.0
  0
LWPOLYLINE
  5
197
100
AcDbEntity
  8
0
 62
7
100
AcDbPolyline
 90
2
 70
0
 10
-302.453040
 20
-80.891375
 30
0.0
 10
-294.225980
 20
-92.217235
 30
0.0
  0
LWPOLYLINE
  5
198
100
AcDbEntity
  8
0
 62
7
100
AcDbPolyline
 90
2
 70
0
 10
-257.924300
 20
-80.911695
 30
0.0
 10
-246.598440
 20
-89.141295
 30
0.0
  0
LWPOLYLINE
  5
199
100
AcDbEntity
  8
0
 62
7
100
AcDbPolyline
 90
2
 70
0
 10
-266.151360
 20
-92.240095
 30
0.0
 10
-257.924300
 20
-80.911695
 30
0.0
  0
LWPOLYLINE
  5
19a
100
AcDbEntity
  8
0
 62
7
100
AcDbPolyline
 90
2
 70
0
 10
-254.825500
 20
-100.467155
 30
0.0
 10
-266.151360
 20
-92.240095
 30
0.0
  0
LWPOLYLINE
  5
19b
100
AcDbEntity
  8
0
 62
7
100
AcDbPolyline
 90
2
 70
0
 10
-246.598440
 20
-89.141295
 30
0.0
 10
-254.825500
 20
-100.467155
 30
0.0
  0
LWPOLYLINE
  5
19c
100
AcDbEntity
  8
0
 62
7
100
AcDbPolyline
 90
2
 70
0
 10
-354.581460
 20
-77.167735
 30
0.0
 10
-352.391980
 20
-63.339975
 30
0.0
  0
LWPOLYLINE
  5
19d
100
AcDbEntity
  8
0
 62
7
100
AcDbPolyline
 90
2
 70
0
 10
-340.753700
 20
-79.357215
 30
0.0
 10
-354.581460
 20
-77.167735
 30
0.0
  0
LWPOLYLINE
  5
19e
100
AcDbEntity
  8
0
 62
7
100
AcDbPolyline
 90
2
 70
0
 10
-338.564220
 20
-65.529455
 30
0.0
 10
-340.753700
 20
-79.357215
 30
0.0
  0
LWPOLYLINE
  5
19f
100
AcDbEntity
  8
0
 62
7
100
AcDbPolyline
 90
2
 70
0
 10
-352.391980
 20
-63.339975
 30
0.0
 10
-338.564220
 20
-65.529455
 30
0.0
  0
LWPOLYLINE
  5
1a0
100
AcDbEntity
  8
0
 62
7
100
AcDbPolyline
 90
2
 70
0
 10
-262.592820
 20
-52.372255
 30
0.0
 10
-264.784840
 20
-38.547035
 30
0.0
  0
LWPOLYLINE
  5
1a1
100
AcDbEntity
  8
0
 62
7
100
AcDbPolyline
 90
2
 70
0
 10
-248.765060
 20
-50.182775
 30
0.0
 10
-262.592820
 20
-52.372255
 30
0.0
  0
LWPOLYLINE
  5
1a2
100
AcDbEntity
  8
0
 62
7
100
AcDbPolyline
 90
2
 70
0
 10
-250.957080
 20
-36.355015
 30
0.0
 10
-248.765060
 20
-50.182775
 30
0.0
  0
LWPOLYLINE
  5
1a3
100
AcDbEntity
  8
0
 62
7
100
AcDbPolyline
 90
2
 70
0
 10
-264.784840
 20
-38.547035
 30
0.0
 10
-250.957080
 20
-36.355015
 30
0.0
  0
LWPOLYLINE
  5
1a4
100
AcDbEntity
  8
0
 62
7
100
AcDbPolyline
 90
2
 70
0
 10
-411.891480
 20
-58.447935
 30
0.0
 10
-409.699460
 20
-44.620175
 30
0.0
  0
LWPOLYLINE
  5
1a5
100
AcDbEntity
  8
0
 62
7
100
AcDbPolyline
 90
2
 70
0
 10
-398.063720
 20
-60.637415
 30
0.0
 10
-411.891480
 20
-58.447935
 30
0.0
  0
LWPOLYLINE
  5
1a6
100
AcDbEntity
  8
0
 62
7
100
AcDbPolyline
 90
2
 70
0
 10
-395.871700
 20
-46.809655
 30
0.0
 10
-398.063720
 20
-60.637415
 30
0.0
  0
LWPOLYLINE
  5
1a7
100
AcDbEntity
  8
0
 62
7
100
AcDbPolyline
 90
2
 70
0
 10
-409.699460
 20
-44.620175
 30
0.0
 10
-395.871700
 20
-46.809655
 30
0.0
  0
LWPOLYLINE
  5
1a8
100
AcDbEntity
  8
0
 62
7
100
AcDbPolyline
 90
2
 70
0
 10
-371.162580
 20
-60.076075
 30
0.0
 10
-368.973100
 20
-46.248315
 30
0.0
  0
LWPOLYLINE
  5
1a9
100
AcDbEntity
  8
0
 62
7
100
AcDbPolyline
 90
2
 70
0
 10
-357.334820
 20
-62.265555
 30
0.0
 10
-371.162580
 20
-60.076075
 30
0.0
  0
LWPOLYLINE
  5
1aa
100
AcDbEntity
  8
0
 62
7
100
AcDbPolyline
 90
2
 70
0
 10
-355.145340
 20
-48.437795
 30
0.0
 10
-357.334820
 20
-62.265555
 30
0.0
  0
LWPOLYLINE
  5
1ab
100
AcDbEntity
  8
0
 62
7
100
AcDbPolyline
 90
2
 70
0
 10
-368.973100
 20
-46.248315
 30
0.0
 10
-355.145340
 20
-48.437795
 30
0.0
  0
LWPOLYLINE
  5
1ac
100
AcDbEntity
  8
0
 62
7
100
AcDbPolyline
 90
2
 70
0
 10
-140.947140
 20
-64.615055
 30
0.0
 10
-247.556020
 20
-110.454435
 30
0.0
  0
LWPOLYLINE
  5
1ad
100
AcDbEntity
  8
0
 62
7
100
AcDbPolyline
 90
2
 70
0
 10
-289.775900
 20
-13.418815
 30
0.0
 10
-289.775900
 20
-51.518815
 30
0.0
  0
LWPOLYLINE
  5
1ae
100
AcDbEntity
  8
0
 62
7
100
AcDbPolyline
 90
2
 70
0
 10
-147.495260
 20
-1.511295
 30
0.0
 10
-149.877780
 20
0.274325
 30
0.0
  0
LWPOLYLINE
  5
1af
100
AcDbEntity
  8
0
 62
7
100
AcDbPolyline
 90
2
 70
0
 10
-139.161520
 20
-62.235075
 30
0.0
 10
-147.495260
 20
-1.511295
 30
0.0
  0
LWPOLYLINE
  5
1b0
100
AcDbEntity
  8
0
 62
7
100
AcDbPolyline
 90
2
 70
0
 10
-214.767160
 20
0.274325
 30
0.0
 10
-149.877780
 20
0.274325
 30
0.0
  0
LWPOLYLINE
  5
1b1
100
AcDbEntity
  8
0
 62
7
100
AcDbPolyline
 90
3
 70
0
 10
-214.767160
 20
0.274325
 30
0.0
 10
-234.411520
 20
-2.702555
 30
0.0
 10
-270.774160
 20
-13.418815
 30
0.0
  0
LWPOLYLINE
  5
1b2
100
AcDbEntity
  8
0
 62
7
100
AcDbPolyline
 90
2
 70
0
 10
-140.947140
 20
-64.615055
 30
0.0
 10
-139.161520
 20
-62.235075
 30
0.0
  0
LWPOLYLINE
  5
1b3
100
AcDbEntity
  8
0
 62
7
100
AcDbPolyline
 90
2
 70
0
 10
-345.782900
 20
0.274325
 30
0.0
 10
-410.672280
 20
0.274325
 30
0.0
  0
LWPOLYLINE
  5
1b4
100
AcDbEntity
  8
0
 62
7
100
AcDbPolyline
 90
2
 70
0
 10
-270.774160
 20
-51.518815
 30
0.0
 10
-270.774160
 20
-13.418815
 30
0.0
  0
LWPOLYLINE
  5
1b5
100
AcDbEntity
  8
0
 62
7
100
AcDbPolyline
 90
2
 70
0
 10
-273.751040
 20
-94.975675
 30
0.0
 10
-251.724160
 20
-110.454435
 30
0.0
  0
LWPOLYLINE
  5
1b6
100
AcDbEntity
  8
0
 62
7
100
AcDbPolyline
 90
2
 70
0
 10
-413.052260
 20
-1.511295
 30
0.0
 10
-410.672280
 20
0.274325
 30
0.0
  0
LWPOLYLINE
  5
1b7
100
AcDbEntity
  8
0
 62
7
100
AcDbPolyline
 90
2
 70
0
 10
-421.388540
 20
-62.235075
 30
0.0
 10
-413.052260
 20
-1.511295
 30
0.0
  0
LWPOLYLINE
  5
1b8
100
AcDbEntity
  8
0
 62
7
100
AcDbPolyline
 90
2
 70
0
 10
-273.751040
 20
-94.975675
 30
0.0
 10
-286.847280
 20
-94.975675
 30
0.0
  0
LWPOLYLINE
  5
1b9
100
AcDbEntity
  8
0
 62
7
100
AcDbPolyline
 90
2
 70
0
 10
-313.039760
 20
-110.454435
 30
0.0
 10
-308.874160
 20
-110.454435
 30
0.0
  0
LWPOLYLINE
  5
1ba
100
AcDbEntity
  8
0
 62
7
100
AcDbPolyline
 90
2
 70
0
 10
-419.602920
 20
-64.615055
 30
0.0
 10
-421.388540
 20
-62.235075
 30
0.0
  0
LWPOLYLINE
  5
1bb
100
AcDbEntity
  8
0
 62
7
100
AcDbPolyline
 90
2
 70
0
 10
-345.782900
 20
0.274325
 30
0.0
 10
-326.138540
 20
-2.702555
 30
0.0
  0
LWPOLYLINE
  5
1bc
100
AcDbEntity
  8
0
 62
7
100
AcDbPolyline
 90
2
 70
0
 10
-289.775900
 20
-51.518815
 30
0.0
 10
-270.774160
 20
-51.518815
 30
0.0
  0
LWPOLYLINE
  5
1bd
100
AcDbEntity
  8
0
 62
7
100
AcDbPolyline
 90
2
 70
0
 10
-419.602920
 20
-64.615055
 30
0.0
 10
-313.039760
 20
-110.454435
 30
0.0
  0
LWPOLYLINE
  5
1be
100
AcDbEntity
  8
0
 62
7
100
AcDbPolyline
 90
2
 70
0
 10
-326.138540
 20
-2.702555
 30
0.0
 10
-289.775900
 20
-13.418815
 30
0.0
  0
LWPOLYLINE
  5
1bf
100
AcDbEntity
  8
0
 62
7
100
AcDbPolyline
 90
2
 70
0
 10
-286.847280
 20
-94.975675
 30
0.0
 10
-308.874160
 20
-110.454435
 30
0.0
  0
LWPOLYLINE
  5
1c0
100
AcDbEntity
  8
0
 62
7
100
AcDbPolyline
 90
2
 70
0
 10
-247.556020
 20
-110.454435
 30
0.0
 10
-251.724160
 20
-110.454435
 30
0.0
  0
ENDSEC
  0
SECTION
  2
OBJECTS
  0
DICTIONARY
  5
C
330
0
100
AcDbDictionary
  3
ACAD_GROUP
350
D
  3
ACAD_MLINESTYLE
350
17
  0
DICTIONARY
  5
D
330
C
100
AcDbDictionary
  0
DICTIONARY
  5
1A
330
C
100
AcDbDictionary
  0
DICTIONARY
  5
17
330
C
100
AcDbDictionary
  3
STANDARD
350
18
  0
DICTIONARY
  5
19
330
C
100
AcDbDictionary
  0
ENDSEC
  0
EOF
