  0
SECTION
  2
HEADER
  9
$ACADVER
  1
AC1014
  9
$HANDSEED
  5
FFFF
  9
$MEASUREMENT
 70
     1
  0
ENDSEC
  0
SECTION
  2
TABLES
  0
TABLE
  2
VPORT
  5
8
330
0
100
AcDbSymbolTable
 70
     4
  0
VPORT
  5
2E
330
8
100
AcDbSymbolTableRecord
100
AcDbViewportTableRecord
  2
*ACTIVE
 70
     0
 10
0.0
 20
0.0
 11
1.0
 21
1.0
 12
210.0
 22
148.5
 13
0.0
 23
0.0
 14
10.0
 24
10.0
 15
10.0
 25
10.0
 16
0.0
 26
0.0
 36
1.0
 17
0.0
 27
0.0
 37
0.0
 40
341.0
 41
1.24
 42
50.0
 43
0.0
 44
0.0
 50
0.0
 51
0.0
 71
     0
 72
   100
 73
     1
 74
     3
 75
     0
 76
     0
 77
     0
 78
     0
  0
ENDTAB
  0
TABLE
  2
LTYPE
  5
5
330
0
100
AcDbSymbolTable
 70
     1
  0
LTYPE
  5
14
330
5
100
AcDbSymbolTableRecord
100
AcDbLinetypeTableRecord
  2
BYBLOCK
 70
     0
  3

 72
    65
 73
     0
 40
0.0
  0
LTYPE
  5
15
330
5
100
AcDbSymbolTableRecord
100
AcDbLinetypeTableRecord
  2
BYLAYER
 70
     0
  3

 72
    65
 73
     0
 40
0.0
  0
LTYPE
  5
16
330
5
100
AcDbSymbolTableRecord
100
AcDbLinetypeTableRecord
  2
CONTINUOUS
 70
     0
  3
Solid line
 72
    65
 73
     0
 40
0.0
  0
ENDTAB
  0
TABLE
  2
LAYER
  5
2
100
AcDbSymbolTable
 70
1
  0
LAYER
  5
50
100
AcDbSymbolTableRecord
100
AcDbLayerTableRecord
  2
0
 70
0
  6
CONTINUOUS
  0
ENDTAB
  0
TABLE
  2
STYLE
  5
3
330
0
100
AcDbSymbolTable
 70
     1
  0
STYLE
  5
11
330
3
100
AcDbSymbolTableRecord
100
AcDbTextStyleTableRecord
  2
STANDARD
 70
     0
 40
0.0
 41
1.0
 50
0.0
 71
     0
 42
2.5
  3
txt
  4

  0
ENDTAB
  0
TABLE
  2
VIEW
  5
6
330
0
100
AcDbSymbolTable
 70
     0
  0
ENDTAB
  0
TABLE
  2
UCS
  5
7
330
0
100
AcDbSymbolTable
 70
     0
  0
ENDTAB
  0
TABLE
  2
APPID
  5
9
330
0
100
AcDbSymbolTable
 70
     2
  0
APPID
  5
12
330
9
100
AcDbSymbolTableRecord
100
AcDbRegAppTableRecord
  2
ACAD
 70
     0
  0
ENDTAB
  0
TABLE
  2
DIMSTYLE
  5
A
330
0
100
AcDbSymbolTable
 70
     1
  0
DIMSTYLE
105
27
330
A
100
AcDbSymbolTableRecord
100
AcDbDimStyleTableRecord
  2
ISO-25
 70
     0
  3

  4

  5

  6

  7

 40
1.0
 41
2.5
 42
0.625
 43
3.75
 44
1.25
 45
0.0
 46
0.0
 47
0.0
 48
0.0
140
2.5
141
2.5
142
0.0
143
0.03937007874016
144
1.0
145
0.0
146
1.0
147
0.625
 71
     0
 72
     0
 73
     0
 74
     0
 75
     0
 76
     0
 77
     1
 78
     8
170
     0
171
     3
172
     1
173
     0
174
     0
175
     0
176
     0
177
     0
178
     0
270
     2
271
     2
272
     2
273
     2
274
     3
340
11
275
     0
280
     0
281
     0
282
     0
283
     0
284
     8
285
     0
286
     0
287
     3
288
     0
  0
ENDTAB
  0
TABLE
  2
BLOCK_RECORD
  5
1
330
0
100
AcDbSymbolTable
 70
     1
  0
BLOCK_RECORD
  5
1F
330
1
100
AcDbSymbolTableRecord
100
AcDbBlockTableRecord
  2
*MODEL_SPACE
  0
BLOCK_RECORD
  5
1B
330
1
100
AcDbSymbolTableRecord
100
AcDbBlockTableRecord
  2
*PAPER_SPACE
  0
ENDTAB
  0
ENDSEC
  0
SECTION
  2
BLOCKS
  0
BLOCK
  5
20
330
1F
100
AcDbEntity
  8
0
100
AcDbBlockBegin
  2
*MODEL_SPACE
 70
     0
 10
0.0
 20
0.0
 30
0.0
  3
*MODEL_SPACE
  1

  0
ENDBLK
  5
21
330
1F
100
AcDbEntity
  8
0
100
AcDbBlockEnd
  0
BLOCK
  5
1C
330
1B
100
AcDbEntity
 67
     1
  8
0
100
AcDbBlockBegin
  2
*PAPER_SPACE
  1

  0
ENDBLK
  5
1D
330
1B
100
AcDbEntity
 67
     1
  8
0
100
AcDbBlockEnd
  0
ENDSEC
  0
SECTION
  2
ENTITIES
  0
SPLINE
  5
100
100
AcDbEntity
  8
0
 62
7
100
AcDbSpline
 70
8
 71
3
 72
8
 73
4
 74
0
 40
0
 40
0
 40
0
 40
0
 40
1
 40
1
 40
1
 40
1
 10
99.789712
 20
-139.705058
 30
0.0
 10
98.677442
 20
-139.705058
 30
0.0
 10
97.674693
 20
-140.375073
 30
0.0
 10
97.249046
 20
-141.402677
 30
0.0
  0
SPLINE
  5
101
100
AcDbEntity
  8
0
 62
7
100
AcDbSpline
 70
8
 71
3
 72
8
 73
4
 74
0
 40
0
 40
0
 40
0
 40
0
 40
1
 40
1
 40
1
 40
1
 10
97.249046
 20
-141.402677
 30
0.0
 10
96.823399
 20
-142.430280
 30
0.0
 10
97.058677
 20
-143.613103
 30
0.0
 10
97.845170
 20
-144.399596
 30
0.0
  0
SPLINE
  5
102
100
AcDbEntity
  8
0
 62
7
100
AcDbSpline
 70
8
 71
3
 72
8
 73
4
 74
0
 40
0
 40
0
 40
0
 40
0
 40
1
 40
1
 40
1
 40
1
 10
97.845170
 20
-144.399596
 30
0.0
 10
98.631664
 20
-145.186090
 30
0.0
 10
99.814487
 20
-145.421368
 30
0.0
 10
100.842090
 20
-144.995720
 30
0.0
  0
SPLINE
  5
103
100
AcDbEntity
  8
0
 62
7
100
AcDbSpline
 70
8
 71
3
 72
8
 73
4
 74
0
 40
0
 40
0
 40
0
 40
0
 40
1
 40
1
 40
1
 40
1
 10
100.842090
 20
-144.995720
 30
0.0
 10
101.869693
 20
-144.570073
 30
0.0
 10
102.539708
 20
-143.567325
 30
0.0
 10
102.539708
 20
-142.455055
 30
0.0
  0
SPLINE
  5
104
100
AcDbEntity
  8
0
 62
7
100
AcDbSpline
 70
8
 71
3
 72
8
 73
4
 74
0
 40
0
 40
0
 40
0
 40
0
 40
1
 40
1
 40
1
 40
1
 10
102.539708
 20
-142.455055
 30
0.0
 10
102.539708
 20
-141.725710
 30
0.0
 10
102.249978
 20
-141.026238
 30
0.0
 10
101.734253
 20
-140.510513
 30
0.0
  0
SPLINE
  5
105
100
AcDbEntity
  8
0
 62
7
100
AcDbSpline
 70
8
 71
3
 72
8
 73
4
 74
0
 40
0
 40
0
 40
0
 40
0
 40
1
 40
1
 40
1
 40
1
 10
101.734253
 20
-140.510513
 30
0.0
 10
101.218529
 20
-139.994789
 30
0.0
 10
100.519056
 20
-139.705058
 30
0.0
 10
99.789712
 20
-139.705058
 30
0.0
  0
SPLINE
  5
106
100
AcDbEntity
  8
0
 62
7
100
AcDbSpline
 70
8
 71
3
 72
8
 73
4
 74
0
 40
0
 40
0
 40
0
 40
0
 40
1
 40
1
 40
1
 40
1
 10
22.802609
 20
-132.491587
 30
0.0
 10
21.690339
 20
-132.491587
 30
0.0
 10
20.687590
 20
-133.161602
 30
0.0
 10
20.261943
 20
-134.189206
 30
0.0
  0
SPLINE
  5
107
100
AcDbEntity
  8
0
 62
7
100
AcDbSpline
 70
8
 71
3
 72
8
 73
4
 74
0
 40
0
 40
0
 40
0
 40
0
 40
1
 40
1
 40
1
 40
1
 10
20.261943
 20
-134.189206
 30
0.0
 10
19.836296
 20
-135.216809
 30
0.0
 10
20.071574
 20
-136.399632
 30
0.0
 10
20.858067
 20
-137.186125
 30
0.0
  0
SPLINE
  5
108
100
AcDbEntity
  8
0
 62
7
100
AcDbSpline
 70
8
 71
3
 72
8
 73
4
 74
0
 40
0
 40
0
 40
0
 40
0
 40
1
 40
1
 40
1
 40
1
 10
20.858067
 20
-137.186125
 30
0.0
 10
21.644561
 20
-137.972619
 30
0.0
 10
22.827384
 20
-138.207897
 30
0.0
 10
23.854987
 20
-137.782250
 30
0.0
  0
SPLINE
  5
109
100
AcDbEntity
  8
0
 62
7
100
AcDbSpline
 70
8
 71
3
 72
8
 73
4
 74
0
 40
0
 40
0
 40
0
 40
0
 40
1
 40
1
 40
1
 40
1
 10
23.854987
 20
-137.782250
 30
0.0
 10
24.882590
 20
-137.356602
 30
0.0
 10
25.552606
 20
-136.353854
 30
0.0
 10
25.552606
 20
-135.241584
 30
0.0
  0
SPLINE
  5
10a
100
AcDbEntity
  8
0
 62
7
100
AcDbSpline
 70
8
 71
3
 72
8
 73
4
 74
0
 40
0
 40
0
 40
0
 40
0
 40
1
 40
1
 40
1
 40
1
 10
25.552606
 20
-135.241584
 30
0.0
 10
25.552606
 20
-134.512239
 30
0.0
 10
25.262875
 20
-133.812767
 30
0.0
 10
24.747150
 20
-133.297043
 30
0.0
  0
SPLINE
  5
10b
100
AcDbEntity
  8
0
 62
7
100
AcDbSpline
 70
8
 71
3
 72
8
 73
4
 74
0
 40
0
 40
0
 40
0
 40
0
 40
1
 40
1
 40
1
 40
1
 10
24.747150
 20
-133.297043
 30
0.0
 10
24.231426
 20
-132.781318
 30
0.0
 10
23.531953
 20
-132.491587
 30
0.0
 10
22.802609
 20
-132.491587
 30
0.0
  0
LWPOLYLINE
  5
10c
100
AcDbEntity
  8
0
 62
7
100
AcDbPolyline
 90
1
 70
1
 10
99.789712
 20
-139.705058
 30
0.0
  0
SPLINE
  5
10d
100
AcDbEntity
  8
0
 62
7
100
AcDbSpline
 70
8
 71
3
 72
8
 73
4
 74
0
 40
0
 40
0
 40
0
 40
0
 40
1
 40
1
 40
1
 40
1
 10
47.821514
 20
-174.553725
 30
0.0
 10
46.709244
 20
-174.553725
 30
0.0
 10
45.706496
 20
-175.223740
 30
0.0
 10
45.280848
 20
-176.251343
 30
0.0
  0
SPLINE
  5
10e
100
AcDbEntity
  8
0
 62
7
100
AcDbSpline
 70
8
 71
3
 72
8
 73
4
 74
0
 40
0
 40
0
 40
0
 40
0
 40
1
 40
1
 40
1
 40
1
 10
45.280848
 20
-176.251343
 30
0.0
 10
44.855201
 20
-177.278947
 30
0.0
 10
45.090479
 20
-178.461769
 30
0.0
 10
45.876973
 20
-179.248263
 30
0.0
  0
SPLINE
  5
10f
100
AcDbEntity
  8
0
 62
7
100
AcDbSpline
 70
8
 71
3
 72
8
 73
4
 74
0
 40
0
 40
0
 40
0
 40
0
 40
1
 40
1
 40
1
 40
1
 10
45.876973
 20
-179.248263
 30
0.0
 10
46.663466
 20
-180.034757
 30
0.0
 10
47.846289
 20
-180.270035
 30
0.0
 10
48.873892
 20
-179.844387
 30
0.0
  0
SPLINE
  5
110
100
AcDbEntity
  8
0
 62
7
100
AcDbSpline
 70
8
 71
3
 72
8
 73
4
 74
0
 40
0
 40
0
 40
0
 40
0
 40
1
 40
1
 40
1
 40
1
 10
48.873892
 20
-179.844387
 30
0.0
 10
49.901496
 20
-179.418740
 30
0.0
 10
50.571511
 20
-178.415991
 30
0.0
 10
50.571511
 20
-177.303722
 30
0.0
  0
SPLINE
  5
111
100
AcDbEntity
  8
0
 62
7
100
AcDbSpline
 70
8
 71
3
 72
8
 73
4
 74
0
 40
0
 40
0
 40
0
 40
0
 40
1
 40
1
 40
1
 40
1
 10
50.571511
 20
-177.303722
 30
0.0
 10
50.571511
 20
-176.574377
 30
0.0
 10
50.281780
 20
-175.874905
 30
0.0
 10
49.766055
 20
-175.359180
 30
0.0
  0
SPLINE
  5
112
100
AcDbEntity
  8
0
 62
7
100
AcDbSpline
 70
8
 71
3
 72
8
 73
4
 74
0
 40
0
 40
0
 40
0
 40
0
 40
1
 40
1
 40
1
 40
1
 10
49.766055
 20
-175.359180
 30
0.0
 10
49.250331
 20
-174.843456
 30
0.0
 10
48.550858
 20
-174.553725
 30
0.0
 10
47.821514
 20
-174.553725
 30
0.0
  0
LWPOLYLINE
  5
113
100
AcDbEntity
  8
0
 62
7
100
AcDbPolyline
 90
1
 70
1
 10
22.802609
 20
-132.491587
 30
0.0
  0
SPLINE
  5
114
100
AcDbEntity
  8
0
 62
7
100
AcDbSpline
 70
8
 71
3
 72
8
 73
4
 74
0
 40
0
 40
0
 40
0
 40
0
 40
1
 40
1
 40
1
 40
1
 10
131.387189
 20
-189.819065
 30
0.0
 10
130.274919
 20
-189.819065
 30
0.0
 10
129.272170
 20
-190.489081
 30
0.0
 10
128.846523
 20
-191.516684
 30
0.0
  0
SPLINE
  5
115
100
AcDbEntity
  8
0
 62
7
100
AcDbSpline
 70
8
 71
3
 72
8
 73
4
 74
0
 40
0
 40
0
 40
0
 40
0
 40
1
 40
1
 40
1
 40
1
 10
128.846523
 20
-191.516684
 30
0.0
 10
128.420876
 20
-192.544287
 30
0.0
 10
128.656154
 20
-193.727110
 30
0.0
 10
129.442647
 20
-194.513604
 30
0.0
  0
SPLINE
  5
116
100
AcDbEntity
  8
0
 62
7
100
AcDbSpline
 70
8
 71
3
 72
8
 73
4
 74
0
 40
0
 40
0
 40
0
 40
0
 40
1
 40
1
 40
1
 40
1
 10
129.442647
 20
-194.513604
 30
0.0
 10
130.229141
 20
-195.300097
 30
0.0
 10
131.411964
 20
-195.535375
 30
0.0
 10
132.439567
 20
-195.109728
 30
0.0
  0
SPLINE
  5
117
100
AcDbEntity
  8
0
 62
7
100
AcDbSpline
 70
8
 71
3
 72
8
 73
4
 74
0
 40
0
 40
0
 40
0
 40
0
 40
1
 40
1
 40
1
 40
1
 10
132.439567
 20
-195.109728
 30
0.0
 10
133.467170
 20
-194.684081
 30
0.0
 10
134.137185
 20
-193.681332
 30
0.0
 10
134.137185
 20
-192.569062
 30
0.0
  0
SPLINE
  5
118
100
AcDbEntity
  8
0
 62
7
100
AcDbSpline
 70
8
 71
3
 72
8
 73
4
 74
0
 40
0
 40
0
 40
0
 40
0
 40
1
 40
1
 40
1
 40
1
 10
134.137185
 20
-192.569062
 30
0.0
 10
134.137185
 20
-191.839718
 30
0.0
 10
133.847455
 20
-191.140245
 30
0.0
 10
133.331730
 20
-190.624521
 30
0.0
  0
SPLINE
  5
119
100
AcDbEntity
  8
0
 62
7
100
AcDbSpline
 70
8
 71
3
 72
8
 73
4
 74
0
 40
0
 40
0
 40
0
 40
0
 40
1
 40
1
 40
1
 40
1
 10
133.331730
 20
-190.624521
 30
0.0
 10
132.816006
 20
-190.108796
 30
0.0
 10
132.116533
 20
-189.819065
 30
0.0
 10
131.387189
 20
-189.819065
 30
0.0
  0
LWPOLYLINE
  5
11a
100
AcDbEntity
  8
0
 62
7
100
AcDbPolyline
 90
1
 70
1
 10
47.821514
 20
-174.553725
 30
0.0
  0
SPLINE
  5
11b
100
AcDbEntity
  8
0
 62
7
100
AcDbSpline
 70
8
 71
3
 72
8
 73
4
 74
0
 40
0
 40
0
 40
0
 40
0
 40
1
 40
1
 40
1
 40
1
 10
213.987657
 20
-174.756924
 30
0.0
 10
212.875387
 20
-174.756924
 30
0.0
 10
211.872639
 20
-175.426939
 30
0.0
 10
211.446991
 20
-176.454543
 30
0.0
  0
SPLINE
  5
11c
100
AcDbEntity
  8
0
 62
7
100
AcDbSpline
 70
8
 71
3
 72
8
 73
4
 74
0
 40
0
 40
0
 40
0
 40
0
 40
1
 40
1
 40
1
 40
1
 10
211.446991
 20
-176.454543
 30
0.0
 10
211.021344
 20
-177.482146
 30
0.0
 10
211.256622
 20
-178.664969
 30
0.0
 10
212.043116
 20
-179.451462
 30
0.0
  0
SPLINE
  5
11d
100
AcDbEntity
  8
0
 62
7
100
AcDbSpline
 70
8
 71
3
 72
8
 73
4
 74
0
 40
0
 40
0
 40
0
 40
0
 40
1
 40
1
 40
1
 40
1
 10
212.043116
 20
-179.451462
 30
0.0
 10
212.829609
 20
-180.237956
 30
0.0
 10
214.012432
 20
-180.473234
 30
0.0
 10
215.040035
 20
-180.047587
 30
0.0
  0
SPLINE
  5
11e
100
AcDbEntity
  8
0
 62
7
100
AcDbSpline
 70
8
 71
3
 72
8
 73
4
 74
0
 40
0
 40
0
 40
0
 40
0
 40
1
 40
1
 40
1
 40
1
 10
215.040035
 20
-180.047587
 30
0.0
 10
216.067639
 20
-179.621939
 30
0.0
 10
216.737654
 20
-178.619191
 30
0.0
 10
216.737654
 20
-177.506921
 30
0.0
  0
SPLINE
  5
11f
100
AcDbEntity
  8
0
 62
7
100
AcDbSpline
 70
8
 71
3
 72
8
 73
4
 74
0
 40
0
 40
0
 40
0
 40
0
 40
1
 40
1
 40
1
 40
1
 10
216.737654
 20
-177.506921
 30
0.0
 10
216.737654
 20
-176.777576
 30
0.0
 10
216.447923
 20
-176.078104
 30
0.0
 10
215.932198
 20
-175.562379
 30
0.0
  0
SPLINE
  5
120
100
AcDbEntity
  8
0
 62
7
100
AcDbSpline
 70
8
 71
3
 72
8
 73
4
 74
0
 40
0
 40
0
 40
0
 40
0
 40
1
 40
1
 40
1
 40
1
 10
215.932198
 20
-175.562379
 30
0.0
 10
215.416474
 20
-175.046655
 30
0.0
 10
214.717002
 20
-174.756924
 30
0.0
 10
213.987657
 20
-174.756924
 30
0.0
  0
LWPOLYLINE
  5
121
100
AcDbEntity
  8
0
 62
7
100
AcDbPolyline
 90
1
 70
1
 10
131.387189
 20
-189.819065
 30
0.0
  0
SPLINE
  5
122
100
AcDbEntity
  8
0
 62
7
100
AcDbSpline
 70
8
 71
3
 72
8
 73
4
 74
0
 40
0
 40
0
 40
0
 40
0
 40
1
 40
1
 40
1
 40
1
 10
239.590757
 20
-132.415387
 30
0.0
 10
238.478488
 20
-132.415387
 30
0.0
 10
237.475739
 20
-133.085403
 30
0.0
 10
237.050092
 20
-134.113006
 30
0.0
  0
SPLINE
  5
123
100
AcDbEntity
  8
0
 62
7
100
AcDbSpline
 70
8
 71
3
 72
8
 73
4
 74
0
 40
0
 40
0
 40
0
 40
0
 40
1
 40
1
 40
1
 40
1
 10
237.050092
 20
-134.113006
 30
0.0
 10
236.624444
 20
-135.140609
 30
0.0
 10
236.859723
 20
-136.323432
 30
0.0
 10
237.646216
 20
-137.109926
 30
0.0
  0
SPLINE
  5
124
100
AcDbEntity
  8
0
 62
7
100
AcDbSpline
 70
8
 71
3
 72
8
 73
4
 74
0
 40
0
 40
0
 40
0
 40
0
 40
1
 40
1
 40
1
 40
1
 10
237.646216
 20
-137.109926
 30
0.0
 10
238.432710
 20
-137.896419
 30
0.0
 10
239.615532
 20
-138.131697
 30
0.0
 10
240.643136
 20
-137.706050
 30
0.0
  0
SPLINE
  5
125
100
AcDbEntity
  8
0
 62
7
100
AcDbSpline
 70
8
 71
3
 72
8
 73
4
 74
0
 40
0
 40
0
 40
0
 40
0
 40
1
 40
1
 40
1
 40
1
 10
240.643136
 20
-137.706050
 30
0.0
 10
241.670739
 20
-137.280403
 30
0.0
 10
242.340754
 20
-136.277654
 30
0.0
 10
242.340754
 20
-135.165384
 30
0.0
  0
SPLINE
  5
126
100
AcDbEntity
  8
0
 62
7
100
AcDbSpline
 70
8
 71
3
 72
8
 73
4
 74
0
 40
0
 40
0
 40
0
 40
0
 40
1
 40
1
 40
1
 40
1
 10
242.340754
 20
-135.165384
 30
0.0
 10
242.340754
 20
-134.436040
 30
0.0
 10
242.051023
 20
-133.736567
 30
0.0
 10
241.535299
 20
-133.220843
 30
0.0
  0
SPLINE
  5
127
100
AcDbEntity
  8
0
 62
7
100
AcDbSpline
 70
8
 71
3
 72
8
 73
4
 74
0
 40
0
 40
0
 40
0
 40
0
 40
1
 40
1
 40
1
 40
1
 10
241.535299
 20
-133.220843
 30
0.0
 10
241.019574
 20
-132.705118
 30
0.0
 10
240.320102
 20
-132.415387
 30
0.0
 10
239.590757
 20
-132.415387
 30
0.0
  0
LWPOLYLINE
  5
128
100
AcDbEntity
  8
0
 62
7
100
AcDbPolyline
 90
1
 70
1
 10
213.987657
 20
-174.756924
 30
0.0
  0
SPLINE
  5
129
100
AcDbEntity
  8
0
 62
7
100
AcDbSpline
 70
8
 71
3
 72
8
 73
4
 74
0
 40
0
 40
0
 40
0
 40
0
 40
1
 40
1
 40
1
 40
1
 10
162.400458
 20
-139.755858
 30
0.0
 10
161.288188
 20
-139.755858
 30
0.0
 10
160.285439
 20
-140.425873
 30
0.0
 10
159.859792
 20
-141.453476
 30
0.0
  0
SPLINE
  5
12a
100
AcDbEntity
  8
0
 62
7
100
AcDbSpline
 70
8
 71
3
 72
8
 73
4
 74
0
 40
0
 40
0
 40
0
 40
0
 40
1
 40
1
 40
1
 40
1
 10
159.859792
 20
-141.453476
 30
0.0
 10
159.434145
 20
-142.481080
 30
0.0
 10
159.669423
 20
-143.663902
 30
0.0
 10
160.455917
 20
-144.450396
 30
0.0
  0
SPLINE
  5
12b
100
AcDbEntity
  8
0
 62
7
100
AcDbSpline
 70
8
 71
3
 72
8
 73
4
 74
0
 40
0
 40
0
 40
0
 40
0
 40
1
 40
1
 40
1
 40
1
 10
160.455917
 20
-144.450396
 30
0.0
 10
161.242410
 20
-145.236889
 30
0.0
 10
162.425233
 20
-145.472167
 30
0.0
 10
163.452836
 20
-145.046520
 30
0.0
  0
SPLINE
  5
12c
100
AcDbEntity
  8
0
 62
7
100
AcDbSpline
 70
8
 71
3
 72
8
 73
4
 74
0
 40
0
 40
0
 40
0
 40
0
 40
1
 40
1
 40
1
 40
1
 10
163.452836
 20
-145.046520
 30
0.0
 10
164.480439
 20
-144.620873
 30
0.0
 10
165.150455
 20
-143.618124
 30
0.0
 10
165.150455
 20
-142.505855
 30
0.0
  0
SPLINE
  5
12d
100
AcDbEntity
  8
0
 62
7
100
AcDbSpline
 70
8
 71
3
 72
8
 73
4
 74
0
 40
0
 40
0
 40
0
 40
0
 40
1
 40
1
 40
1
 40
1
 10
165.150455
 20
-142.505855
 30
0.0
 10
165.150455
 20
-141.776510
 30
0.0
 10
164.860724
 20
-141.077038
 30
0.0
 10
164.344999
 20
-140.561313
 30
0.0
  0
SPLINE
  5
12e
100
AcDbEntity
  8
0
 62
7
100
AcDbSpline
 70
8
 71
3
 72
8
 73
4
 74
0
 40
0
 40
0
 40
0
 40
0
 40
1
 40
1
 40
1
 40
1
 10
164.344999
 20
-140.561313
 30
0.0
 10
163.829275
 20
-140.045589
 30
0.0
 10
163.129802
 20
-139.755858
 30
0.0
 10
162.400458
 20
-139.755858
 30
0.0
  0
LWPOLYLINE
  5
12f
100
AcDbEntity
  8
0
 62
7
100
AcDbPolyline
 90
1
 70
1
 10
239.590757
 20
-132.415387
 30
0.0
  0
LWPOLYLINE
  5
130
100
AcDbEntity
  8
0
 62
7
100
AcDbPolyline
 90
1
 70
1
 10
162.400458
 20
-139.755858
 30
0.0
  0
LWPOLYLINE
  5
131
100
AcDbEntity
  8
0
 62
7
100
AcDbPolyline
 90
4
 70
1
 10
123.419745
 20
-166.412749
 30
0.0
 10
123.419745
 20
-183.910741
 30
0.0
 10
138.819705
 20
-183.910741
 30
0.0
 10
138.819705
 20
-166.412749
 30
0.0
  0
LWPOLYLINE
  5
132
100
AcDbEntity
  8
0
 62
7
100
AcDbPolyline
 90
4
 70
1
 10
77.087786
 20
-180.014397
 30
0.0
 10
74.898314
 20
-193.842103
 30
0.0
 10
88.723480
 20
-196.031574
 30
0.0
 10
90.915492
 20
-182.203868
 30
0.0
  0
LWPOLYLINE
  5
133
100
AcDbEntity
  8
0
 62
7
100
AcDbPolyline
 90
4
 70
1
 10
98.883441
 20
-164.177558
 30
0.0
 10
112.711147
 20
-166.369570
 30
0.0
 10
110.519135
 20
-180.197276
 30
0.0
 10
96.691429
 20
-178.005264
 30
0.0
  0
LWPOLYLINE
  5
134
100
AcDbEntity
  8
0
 62
7
100
AcDbPolyline
 90
4
 70
1
 10
59.015756
 20
-172.330926
 30
0.0
 10
56.826284
 20
-186.158633
 30
0.0
 10
70.653991
 20
-188.348104
 30
0.0
 10
72.843462
 20
-174.520398
 30
0.0
  0
LWPOLYLINE
  5
135
100
AcDbEntity
  8
0
 62
7
100
AcDbPolyline
 90
4
 70
1
 10
80.067194
 20
-161.198150
 30
0.0
 10
93.894900
 20
-163.387621
 30
0.0
 10
91.705429
 20
-177.215327
 30
0.0
 10
77.877722
 20
-175.025856
 30
0.0
  0
LWPOLYLINE
  5
136
100
AcDbEntity
  8
0
 62
7
100
AcDbPolyline
 90
4
 70
1
 10
61.997704
 20
-153.514680
 30
0.0
 10
75.825410
 20
-155.704151
 30
0.0
 10
73.633399
 20
-169.531857
 30
0.0
 10
59.805693
 20
-167.342386
 30
0.0
  0
LWPOLYLINE
  5
137
100
AcDbEntity
  8
0
 62
7
100
AcDbPolyline
 90
4
 70
1
 10
42.437240
 20
-155.239333
 30
0.0
 10
56.264947
 20
-157.428804
 30
0.0
 10
54.072935
 20
-171.256511
 30
0.0
 10
40.245229
 20
-169.067039
 30
0.0
  0
LWPOLYLINE
  5
138
100
AcDbEntity
  8
0
 62
7
100
AcDbPolyline
 90
4
 70
1
 10
22.876777
 20
-156.961446
 30
0.0
 10
36.704483
 20
-159.150918
 30
0.0
 10
34.512471
 20
-172.978624
 30
0.0
 10
20.684765
 20
-170.789152
 30
0.0
  0
LWPOLYLINE
  5
139
100
AcDbEntity
  8
0
 62
7
100
AcDbPolyline
 90
4
 70
1
 10
101.862849
 20
-145.363851
 30
0.0
 10
115.690555
 20
-147.553323
 30
0.0
 10
113.501084
 20
-161.381029
 30
0.0
 10
99.673378
 20
-159.191558
 30
0.0
  0
LWPOLYLINE
  5
13a
100
AcDbEntity
  8
0
 62
7
100
AcDbPolyline
 90
4
 70
1
 10
83.046602
 20
-142.381903
 30
0.0
 10
96.874309
 20
-144.573914
 30
0.0
 10
94.684837
 20
-158.401621
 30
0.0
 10
80.857131
 20
-156.209609
 30
0.0
  0
LWPOLYLINE
  5
13b
100
AcDbEntity
  8
0
 62
7
100
AcDbPolyline
 90
4
 70
1
 10
64.977113
 20
-134.698433
 30
0.0
 10
78.804819
 20
-136.887904
 30
0.0
 10
76.615347
 20
-150.715611
 30
0.0
 10
62.787641
 20
-148.526139
 30
0.0
  0
LWPOLYLINE
  5
13c
100
AcDbEntity
  8
0
 62
7
100
AcDbPolyline
 90
4
 70
1
 10
45.416649
 20
-136.423086
 30
0.0
 10
59.244355
 20
-138.612558
 30
0.0
 10
57.054884
 20
-152.440264
 30
0.0
 10
43.227177
 20
-150.250792
 30
0.0
  0
LWPOLYLINE
  5
13d
100
AcDbEntity
  8
0
 62
7
100
AcDbPolyline
 90
4
 70
1
 10
25.856185
 20
-138.147739
 30
0.0
 10
39.683891
 20
-140.337211
 30
0.0
 10
37.494420
 20
-154.164917
 30
0.0
 10
23.666713
 20
-151.975446
 30
0.0
  0
LWPOLYLINE
  5
13e
100
AcDbEntity
  8
0
 62
7
100
AcDbPolyline
 90
4
 70
1
 10
1.708499
 20
-153.608659
 30
0.0
 10
15.536205
 20
-155.800671
 30
0.0
 10
13.346734
 20
-169.628377
 30
0.0
 10
-0.480973
 20
-167.436365
 30
0.0
  0
LWPOLYLINE
  5
13f
100
AcDbEntity
  8
0
 62
7
100
AcDbPolyline
 90
4
 70
1
 10
4.687907
 20
-134.794953
 30
0.0
 10
18.515614
 20
-136.984424
 30
0.0
 10
16.326142
 20
-150.812130
 30
0.0
 10
2.498436
 20
-148.622659
 30
0.0
  0
LWPOLYLINE
  5
140
100
AcDbEntity
  8
0
 62
7
100
AcDbPolyline
 90
4
 70
1
 10
104.842258
 20
-126.547605
 30
0.0
 10
118.669964
 20
-128.737076
 30
0.0
 10
116.480492
 20
-142.564782
 30
0.0
 10
102.652786
 20
-140.375311
 30
0.0
  0
LWPOLYLINE
  5
141
100
AcDbEntity
  8
0
 62
7
100
AcDbPolyline
 90
4
 70
1
 10
86.028551
 20
-123.568196
 30
0.0
 10
99.856257
 20
-125.757668
 30
0.0
 10
97.664245
 20
-139.585374
 30
0.0
 10
83.836539
 20
-137.395902
 30
0.0
  0
LWPOLYLINE
  5
142
100
AcDbEntity
  8
0
 62
7
100
AcDbPolyline
 90
4
 70
1
 10
67.956521
 20
-115.884726
 30
0.0
 10
81.784227
 20
-118.074198
 30
0.0
 10
79.594756
 20
-131.901904
 30
0.0
 10
65.767050
 20
-129.712432
 30
0.0
  0
LWPOLYLINE
  5
143
100
AcDbEntity
  8
0
 62
7
100
AcDbPolyline
 90
4
 70
1
 10
48.396057
 20
-117.606839
 30
0.0
 10
62.223763
 20
-119.796311
 30
0.0
 10
60.034292
 20
-133.624017
 30
0.0
 10
46.206586
 20
-131.434546
 30
0.0
  0
LWPOLYLINE
  5
144
100
AcDbEntity
  8
0
 62
7
100
AcDbPolyline
 90
4
 70
1
 10
28.835593
 20
-119.331493
 30
0.0
 10
42.663300
 20
-121.520964
 30
0.0
 10
40.473828
 20
-135.348670
 30
0.0
 10
26.646122
 20
-133.159199
 30
0.0
  0
LWPOLYLINE
  5
145
100
AcDbEntity
  8
0
 62
7
100
AcDbPolyline
 90
4
 70
1
 10
7.669856
 20
-115.978706
 30
0.0
 10
21.495022
 20
-118.168177
 30
0.0
 10
19.305550
 20
-131.995883
 30
0.0
 10
5.477844
 20
-129.806412
 30
0.0
  0
LWPOLYLINE
  5
146
100
AcDbEntity
  8
0
 62
7
100
AcDbPolyline
 90
4
 70
1
 10
97.628686
 20
-198.109286
 30
0.0
 10
108.954502
 20
-189.882258
 30
0.0
 10
117.184069
 20
-201.208074
 30
0.0
 10
105.858254
 20
-209.435102
 30
0.0
  0
LWPOLYLINE
  5
147
100
AcDbEntity
  8
0
 62
7
100
AcDbPolyline
 90
4
 70
1
 10
153.485608
 20
-189.902578
 30
0.0
 10
164.811424
 20
-198.132146
 30
0.0
 10
156.581856
 20
-209.457962
 30
0.0
 10
145.256040
 20
-201.228394
 30
0.0
  0
LWPOLYLINE
  5
148
100
AcDbEntity
  8
0
 62
7
100
AcDbPolyline
 90
4
 70
1
 10
171.400158
 20
-182.186088
 30
0.0
 10
185.227865
 20
-179.996617
 30
0.0
 10
187.417336
 20
-193.824323
 30
0.0
 10
173.589630
 20
-196.013794
 30
0.0
  0
LWPOLYLINE
  5
149
100
AcDbEntity
  8
0
 62
7
100
AcDbPolyline
 90
4
 70
1
 10
163.432209
 20
-164.162318
 30
0.0
 10
165.621681
 20
-177.987484
 30
0.0
 10
151.793975
 20
-180.179496
 30
0.0
 10
149.604503
 20
-166.351790
 30
0.0
  0
LWPOLYLINE
  5
14a
100
AcDbEntity
  8
0
 62
7
100
AcDbPolyline
 90
4
 70
1
 10
168.420750
 20
-163.369841
 30
0.0
 10
182.248456
 20
-161.180370
 30
0.0
 10
184.437928
 20
-175.008076
 30
0.0
 10
170.610222
 20
-177.197548
 30
0.0
  0
LWPOLYLINE
  5
14b
100
AcDbEntity
  8
0
 62
7
100
AcDbPolyline
 90
4
 70
1
 10
146.625095
 20
-147.535543
 30
0.0
 10
160.452801
 20
-145.346071
 30
0.0
 10
162.642273
 20
-159.173778
 30
0.0
 10
148.814566
 20
-161.363249
 30
0.0
  0
LWPOLYLINE
  5
14c
100
AcDbEntity
  8
0
 62
7
100
AcDbPolyline
 90
4
 70
1
 10
165.441342
 20
-144.556135
 30
0.0
 10
179.266508
 20
-142.366663
 30
0.0
 10
181.458519
 20
-156.191829
 30
0.0
 10
167.630813
 20
-158.383841
 30
0.0
  0
LWPOLYLINE
  5
14d
100
AcDbEntity
  8
0
 62
7
100
AcDbPolyline
 90
4
 70
1
 10
189.469648
 20
-174.502618
 30
0.0
 10
203.297354
 20
-172.313147
 30
0.0
 10
205.489366
 20
-186.140853
 30
0.0
 10
191.661660
 20
-188.330324
 30
0.0
  0
LWPOLYLINE
  5
14e
100
AcDbEntity
  8
0
 62
7
100
AcDbPolyline
 90
4
 70
1
 10
186.490240
 20
-155.686371
 30
0.0
 10
200.317946
 20
-153.496900
 30
0.0
 10
202.507417
 20
-167.324606
 30
0.0
 10
188.679711
 20
-169.514077
 30
0.0
  0
LWPOLYLINE
  5
14f
100
AcDbEntity
  8
0
 62
7
100
AcDbPolyline
 90
4
 70
1
 10
183.510831
 20
-136.872664
 30
0.0
 10
197.338538
 20
-134.680653
 30
0.0
 10
199.528009
 20
-148.508359
 30
0.0
 10
185.700303
 20
-150.700371
 30
0.0
  0
LWPOLYLINE
  5
150
100
AcDbEntity
  8
0
 62
7
100
AcDbPolyline
 90
4
 70
1
 10
206.050704
 20
-157.411025
 30
0.0
 10
219.878410
 20
-155.221553
 30
0.0
 10
222.067881
 20
-169.049259
 30
0.0
 10
208.240175
 20
-171.238731
 30
0.0
  0
LWPOLYLINE
  5
151
100
AcDbEntity
  8
0
 62
7
100
AcDbPolyline
 90
4
 70
1
 10
203.071295
 20
-138.594778
 30
0.0
 10
216.899001
 20
-136.405306
 30
0.0
 10
219.088473
 20
-150.233012
 30
0.0
 10
205.260767
 20
-152.422484
 30
0.0
  0
LWPOLYLINE
  5
152
100
AcDbEntity
  8
0
 62
7
100
AcDbPolyline
 90
4
 70
1
 10
225.611167
 20
-159.135678
 30
0.0
 10
239.438874
 20
-156.943666
 30
0.0
 10
241.628345
 20
-170.771373
 30
0.0
 10
227.800639
 20
-172.963384
 30
0.0
  0
LWPOLYLINE
  5
153
100
AcDbEntity
  8
0
 62
7
100
AcDbPolyline
 90
4
 70
1
 10
222.631759
 20
-140.319431
 30
0.0
 10
236.459465
 20
-138.129960
 30
0.0
 10
238.648937
 20
-151.957666
 30
0.0
 10
224.821231
 20
-154.147137
 30
0.0
  0
LWPOLYLINE
  5
154
100
AcDbEntity
  8
0
 62
7
100
AcDbPolyline
 90
4
 70
1
 10
246.779445
 20
-155.782891
 30
0.0
 10
260.607151
 20
-153.590879
 30
0.0
 10
262.796623
 20
-167.418586
 30
0.0
 10
248.968917
 20
-169.610597
 30
0.0
  0
LWPOLYLINE
  5
155
100
AcDbEntity
  8
0
 62
7
100
AcDbPolyline
 90
4
 70
1
 10
243.800037
 20
-136.966644
 30
0.0
 10
257.627743
 20
-134.777173
 30
0.0
 10
259.817214
 20
-148.604879
 30
0.0
 10
245.989508
 20
-150.794350
 30
0.0
  0
LWPOLYLINE
  5
156
100
AcDbEntity
  8
0
 62
7
100
AcDbPolyline
 90
4
 70
1
 10
240.818088
 20
-118.150397
 30
0.0
 10
254.645794
 20
-115.960926
 30
0.0
 10
256.835266
 20
-129.788632
 30
0.0
 10
243.010100
 20
-131.978104
 30
0.0
  0
LWPOLYLINE
  5
157
100
AcDbEntity
  8
0
 62
7
100
AcDbPolyline
 90
4
 70
1
 10
219.652351
 20
-121.503184
 30
0.0
 10
233.480057
 20
-119.313713
 30
0.0
 10
235.669528
 20
-133.141419
 30
0.0
 10
221.841822
 20
-135.330890
 30
0.0
  0
LWPOLYLINE
  5
158
100
AcDbEntity
  8
0
 62
7
100
AcDbPolyline
 90
4
 70
1
 10
200.091887
 20
-119.781071
 30
0.0
 10
213.919593
 20
-117.589060
 30
0.0
 10
216.109064
 20
-131.416766
 30
0.0
 10
202.281358
 20
-133.608777
 30
0.0
  0
LWPOLYLINE
  5
159
100
AcDbEntity
  8
0
 62
7
100
AcDbPolyline
 90
4
 70
1
 10
180.531423
 20
-118.056418
 30
0.0
 10
194.359129
 20
-115.866946
 30
0.0
 10
196.548601
 20
-129.694652
 30
0.0
 10
182.720894
 20
-131.884124
 30
0.0
  0
LWPOLYLINE
  5
15a
100
AcDbEntity
  8
0
 62
7
100
AcDbPolyline
 90
4
 70
1
 10
162.459393
 20
-125.739888
 30
0.0
 10
176.287099
 20
-123.550416
 30
0.0
 10
178.476571
 20
-137.378122
 30
0.0
 10
164.648865
 20
-139.567594
 30
0.0
  0
LWPOLYLINE
  5
15b
100
AcDbEntity
  8
0
 62
7
100
AcDbPolyline
 90
4
 70
1
 10
143.645686
 20
-128.719296
 30
0.0
 10
157.473393
 20
-126.529825
 30
0.0
 10
159.662864
 20
-140.357531
 30
0.0
 10
145.835158
 20
-142.547002
 30
0.0
  0
LWPOLYLINE
  5
15c
100
AcDbEntity
  8
0
 62
7
100
AcDbPolyline
 90
2
 70
0
 10
140.750098
 20
-161.104170
 30
0.0
 10
140.750098
 20
-126.575545
 30
0.0
  0
LWPOLYLINE
  5
15d
100
AcDbEntity
  8
0
 62
7
100
AcDbPolyline
 90
2
 70
0
 10
121.700172
 20
-161.104170
 30
0.0
 10
140.750098
 20
-161.104170
 30
0.0
  0
SPLINE
  5
15e
100
AcDbEntity
  8
0
 62
7
100
AcDbSpline
 70
8
 71
3
 72
8
 73
4
 74
0
 40
0
 40
0
 40
0
 40
0
 40
1
 40
1
 40
1
 40
1
 10
-5.619772
 20
-168.312154
 30
0.0
 10
-5.619772
 20
-168.581613
 30
0.0
 10
-5.512729
 20
-168.840036
 30
0.0
 10
-5.322193
 20
-169.030572
 30
0.0
  0
SPLINE
  5
15f
100
AcDbEntity
  8
0
 62
7
100
AcDbSpline
 70
8
 71
3
 72
8
 73
4
 74
0
 40
0
 40
0
 40
0
 40
0
 40
1
 40
1
 40
1
 40
1
 10
-5.322193
 20
-169.030572
 30
0.0
 10
-5.131657
 20
-169.221108
 30
0.0
 10
-4.873234
 20
-169.328150
 30
0.0
 10
-4.603775
 20
-169.328150
 30
0.0
  0
SPLINE
  5
160
100
AcDbEntity
  8
0
 62
7
100
AcDbSpline
 70
8
 71
3
 72
8
 73
4
 74
0
 40
0
 40
0
 40
0
 40
0
 40
1
 40
1
 40
1
 40
1
 10
266.921567
 20
-169.328150
 30
0.0
 10
267.191026
 20
-169.328150
 30
0.0
 10
267.449448
 20
-169.221108
 30
0.0
 10
267.639984
 20
-169.030572
 30
0.0
  0
SPLINE
  5
161
100
AcDbEntity
  8
0
 62
7
100
AcDbSpline
 70
8
 71
3
 72
8
 73
4
 74
0
 40
0
 40
0
 40
0
 40
0
 40
1
 40
1
 40
1
 40
1
 10
267.639984
 20
-169.030572
 30
0.0
 10
267.830521
 20
-168.840036
 30
0.0
 10
267.937563
 20
-168.581613
 30
0.0
 10
267.937563
 20
-168.312154
 30
0.0
  0
SPLINE
  5
162
100
AcDbEntity
  8
0
 62
7
100
AcDbSpline
 70
8
 71
3
 72
8
 73
4
 74
0
 40
0
 40
0
 40
0
 40
0
 40
1
 40
1
 40
1
 40
1
 10
100.928133
 20
-215.098518
 30
0.0
 10
101.321929
 20
-215.492379
 30
0.0
 10
101.959412
 20
-215.495778
 30
0.0
 10
102.357385
 20
-215.106138
 30
0.0
  0
SPLINE
  5
163
100
AcDbEntity
  8
0
 62
7
100
AcDbSpline
 70
8
 71
3
 72
8
 73
4
 74
0
 40
0
 40
0
 40
0
 40
0
 40
1
 40
1
 40
1
 40
1
 10
160.073835
 20
-215.111472
 30
0.0
 10
160.264372
 20
-215.302019
 30
0.0
 10
160.522803
 20
-215.409069
 30
0.0
 10
160.792271
 20
-215.409069
 30
0.0
  0
SPLINE
  5
164
100
AcDbEntity
  8
0
 62
7
100
AcDbSpline
 70
8
 71
3
 72
8
 73
4
 74
0
 40
0
 40
0
 40
0
 40
0
 40
1
 40
1
 40
1
 40
1
 10
160.792271
 20
-215.409069
 30
0.0
 10
161.061739
 20
-215.409069
 30
0.0
 10
161.320169
 20
-215.302019
 30
0.0
 10
161.510707
 20
-215.111472
 30
0.0
  0
LWPOLYLINE
  5
165
100
AcDbEntity
  8
0
 62
7
100
AcDbPolyline
 90
2
 70
0
 10
121.700172
 20
-126.575545
 30
0.0
 10
121.700172
 20
-161.104170
 30
0.0
  0
LWPOLYLINE
  5
166
100
AcDbEntity
  8
0
 62
7
100
AcDbPolyline
 90
2
 70
0
 10
216.119224
 20
-114.589331
 30
0.0
 10
258.537059
 20
-112.684339
 30
0.0
  0
SPLINE
  5
167
100
AcDbEntity
  8
0
 62
7
100
AcDbSpline
 70
8
 71
3
 72
8
 73
4
 74
0
 40
0
 40
0
 40
0
 40
0
 40
1
 40
1
 40
1
 40
1
 10
259.301596
 20
-113.448477
 30
0.0
 10
259.301596
 20
-113.246383
 30
0.0
 10
259.221315
 20
-113.052566
 30
0.0
 10
259.078413
 20
-112.909663
 30
0.0
  0
SPLINE
  5
168
100
AcDbEntity
  8
0
 62
7
100
AcDbSpline
 70
8
 71
3
 72
8
 73
4
 74
0
 40
0
 40
0
 40
0
 40
0
 40
1
 40
1
 40
1
 40
1
 10
259.078413
 20
-112.909663
 30
0.0
 10
258.935510
 20
-112.766761
 30
0.0
 10
258.741694
 20
-112.686480
 30
0.0
 10
258.539599
 20
-112.686480
 30
0.0
  0
LWPOLYLINE
  5
169
100
AcDbEntity
  8
0
 62
7
100
AcDbPolyline
 90
2
 70
0
 10
90.135715
 20
-200.313998
 30
0.0
 10
100.925593
 20
-215.096740
 30
0.0
  0
LWPOLYLINE
  5
16a
100
AcDbEntity
  8
0
 62
7
100
AcDbPolyline
 90
2
 70
0
 10
3.014054
 20
-113.446336
 30
0.0
 10
-5.621913
 20
-168.310122
 30
0.0
  0
LWPOLYLINE
  5
16b
100
AcDbEntity
  8
0
 62
7
100
AcDbPolyline
 90
2
 70
0
 10
65.751810
 20
-112.811338
 30
0.0
 10
84.801736
 20
-115.859326
 30
0.0
  0
LWPOLYLINE
  5
16c
100
AcDbEntity
  8
0
 62
7
100
AcDbPolyline
 90
2
 70
0
 10
90.135715
 20
-200.313998
 30
0.0
 10
88.865720
 20
-198.790003
 30
0.0
  0
LWPOLYLINE
  5
16d
100
AcDbEntity
  8
0
 62
7
100
AcDbPolyline
 90
2
 70
0
 10
190.465324
 20
-195.996014
 30
0.0
 10
208.499254
 20
-188.249044
 30
0.0
  0
LWPOLYLINE
  5
16e
100
AcDbEntity
  8
0
 62
7
100
AcDbPolyline
 90
2
 70
0
 10
36.668923
 20
-176.057092
 30
0.0
 10
53.813856
 20
-188.376044
 30
0.0
  0
SPLINE
  5
16f
100
AcDbEntity
  8
0
 62
7
100
AcDbSpline
 70
8
 71
3
 72
8
 73
4
 74
0
 40
0
 40
0
 40
0
 40
0
 40
1
 40
1
 40
1
 40
1
 10
3.778184
 20
-112.686480
 30
0.0
 10
3.576090
 20
-112.686480
 30
0.0
 10
3.382273
 20
-112.766761
 30
0.0
 10
3.239371
 20
-112.909663
 30
0.0
  0
SPLINE
  5
170
100
AcDbEntity
  8
0
 62
7
100
AcDbSpline
 70
8
 71
3
 72
8
 73
4
 74
0
 40
0
 40
0
 40
0
 40
0
 40
1
 40
1
 40
1
 40
1
 10
3.239371
 20
-112.909663
 30
0.0
 10
3.096469
 20
-113.052566
 30
0.0
 10
3.016187
 20
-113.246383
 30
0.0
 10
3.016187
 20
-113.448477
 30
0.0
  0
LWPOLYLINE
  5
171
100
AcDbEntity
  8
0
 62
7
100
AcDbPolyline
 90
2
 70
0
 10
-4.605916
 20
-169.326118
 30
0.0
 10
36.668923
 20
-176.057092
 30
0.0
  0
LWPOLYLINE
  5
172
100
AcDbEntity
  8
0
 62
7
100
AcDbPolyline
 90
2
 70
0
 10
102.353067
 20
-215.104360
 30
0.0
 10
124.679580
 20
-199.044002
 30
0.0
  0
LWPOLYLINE
  5
173
100
AcDbEntity
  8
0
 62
7
100
AcDbPolyline
 90
2
 70
0
 10
266.919027
 20
-169.326118
 30
0.0
 10
225.644187
 20
-175.930092
 30
0.0
  0
LWPOLYLINE
  5
174
100
AcDbEntity
  8
0
 62
7
100
AcDbPolyline
 90
2
 70
0
 10
161.506897
 20
-215.109440
 30
0.0
 10
172.304395
 20
-200.440997
 30
0.0
  0
LWPOLYLINE
  5
175
100
AcDbEntity
  8
0
 62
7
100
AcDbPolyline
 90
2
 70
0
 10
124.679580
 20
-199.044002
 30
0.0
 10
137.633530
 20
-199.044002
 30
0.0
  0
LWPOLYLINE
  5
176
100
AcDbEntity
  8
0
 62
7
100
AcDbPolyline
 90
2
 70
0
 10
225.644187
 20
-175.930092
 30
0.0
 10
208.499254
 20
-188.249044
 30
0.0
  0
LWPOLYLINE
  5
177
100
AcDbEntity
  8
0
 62
7
100
AcDbPolyline
 90
2
 70
0
 10
137.633530
 20
-199.044002
 30
0.0
 10
160.071803
 20
-215.109440
 30
0.0
  0
LWPOLYLINE
  5
178
100
AcDbEntity
  8
0
 62
7
100
AcDbPolyline
 90
2
 70
0
 10
259.299056
 20
-113.446336
 30
0.0
 10
267.935023
 20
-168.310122
 30
0.0
  0
LWPOLYLINE
  5
179
100
AcDbEntity
  8
0
 62
7
100
AcDbPolyline
 90
2
 70
0
 10
190.465324
 20
-195.996014
 30
0.0
 10
173.193391
 20
-198.790003
 30
0.0
  0
LWPOLYLINE
  5
17a
100
AcDbEntity
  8
0
 62
7
100
AcDbPolyline
 90
2
 70
0
 10
121.700172
 20
-126.573005
 30
0.0
 10
84.801736
 20
-115.859326
 30
0.0
  0
LWPOLYLINE
  5
17b
100
AcDbEntity
  8
0
 62
7
100
AcDbPolyline
 90
2
 70
0
 10
140.750098
 20
-126.575545
 30
0.0
 10
177.511375
 20
-115.859326
 30
0.0
  0
LWPOLYLINE
  5
17c
100
AcDbEntity
  8
0
 62
7
100
AcDbPolyline
 90
2
 70
0
 10
71.847786
 20
-195.996014
 30
0.0
 10
53.813856
 20
-188.376044
 30
0.0
  0
LWPOLYLINE
  5
17d
100
AcDbEntity
  8
0
 62
7
100
AcDbPolyline
 90
2
 70
0
 10
177.511375
 20
-115.859326
 30
0.0
 10
196.561301
 20
-112.811338
 30
0.0
  0
LWPOLYLINE
  5
17e
100
AcDbEntity
  8
0
 62
7
100
AcDbPolyline
 90
2
 70
0
 10
172.304395
 20
-200.440997
 30
0.0
 10
173.193391
 20
-198.790003
 30
0.0
  0
LWPOLYLINE
  5
17f
100
AcDbEntity
  8
0
 62
7
100
AcDbPolyline
 90
2
 70
0
 10
196.561301
 20
-112.811338
 30
0.0
 10
216.119224
 20
-114.589331
 30
0.0
  0
LWPOLYLINE
  5
180
100
AcDbEntity
  8
0
 62
7
100
AcDbPolyline
 90
2
 70
0
 10
46.193886
 20
-114.589331
 30
0.0
 10
3.776051
 20
-112.684339
 30
0.0
  0
LWPOLYLINE
  5
181
100
AcDbEntity
  8
0
 62
7
100
AcDbPolyline
 90
2
 70
0
 10
71.847786
 20
-195.996014
 30
0.0
 10
88.865720
 20
-198.790003
 30
0.0
  0
LWPOLYLINE
  5
182
100
AcDbEntity
  8
0
 62
7
100
AcDbPolyline
 90
2
 70
0
 10
65.751810
 20
-112.811338
 30
0.0
 10
46.193886
 20
-114.589331
 30
0.0
  0
ENDSEC
  0
SECTION
  2
OBJECTS
  0
DICTIONARY
  5
C
330
0
100
AcDbDictionary
  3
ACAD_GROUP
350
D
  3
ACAD_MLINESTYLE
350
17
  0
DICTIONARY
  5
D
330
C
100
AcDbDictionary
  0
DICTIONARY
  5
1A
330
C
100
AcDbDictionary
  0
DICTIONARY
  5
17
330
C
100
AcDbDictionary
  3
STANDARD
350
18
  0
DICTIONARY
  5
19
330
C
100
AcDbDictionary
  0
ENDSEC
  0
EOF
