<?xml version="1.0" standalone="no"?>
 <!DOCTYPE svg PUBLIC "-//W3C//DTD SVG 1.1//EN" 
 "http://www.w3.org/Graphics/SVG/1.1/DTD/svg11.dtd"> 
<svg xmlns="http://www.w3.org/2000/svg" version="1.1" 
    width="27.3583cm" height="10.2768cm" viewBox="0 0 107710 40460 ">
<title>SVG Picture created as Sleepy Fox fr4 plates-brd.svg date 2021/03/25 10:08:14 </title>
  <desc>Picture generated by PCBNEW </desc>
<g style="fill:#000000; fill-opacity:1;stroke:#000000; stroke-opacity:1;
stroke-linecap:round; stroke-linejoin:round; "
 transform="translate(0 0) scale(1 1)">
</g>
<g style="fill:#000000; fill-opacity:0.0; 
stroke:#000000; stroke-width:-0.000393701; stroke-opacity:1; 
stroke-linecap:round; stroke-linejoin:round;">
</g>
<g style="fill:#000000; fill-opacity:1.0; 
stroke:#000000; stroke-width:0; stroke-opacity:1; 
stroke-linecap:round; stroke-linejoin:round;">
<path style="fill:#000000; fill-opacity:1.0; 
stroke:#000000; stroke-width:0; stroke-opacity:1; 
stroke-linecap:round; stroke-linejoin:round;fill-rule:evenodd;"
d="M 54168,30358
54277,30380
54481,30465
54665,30587
54821,30744
54944,30928
55029,31132
55072,31349
55072,31570
55029,31787
54944,31991
54821,32175
54665,32331
54481,32454
54277,32539
54168,32560
54060,32582
53839,32582
53622,32539
53418,32454
53234,32331
53077,32175
52955,31991
52870,31787
52827,31570
52827,31349
52870,31132
52955,30928
53077,30744
53234,30587
53418,30465
53622,30380
53730,30358
53839,30337
54060,30337
54168,30358
Z" /> 
<path style="fill:#000000; fill-opacity:1.0; 
stroke:#000000; stroke-width:0; stroke-opacity:1; 
stroke-linecap:round; stroke-linejoin:round;fill-rule:evenodd;"
d="M 86797,24450
87001,24535
87185,24657
87341,24814
87464,24998
87549,25202
87592,25419
87592,25640
87549,25857
87464,26061
87341,26245
87185,26401
87001,26524
86797,26609
86580,26652
86359,26652
86142,26609
85938,26524
85754,26401
85597,26245
85475,26061
85390,25857
85347,25640
85347,25419
85390,25202
85475,24998
85597,24814
85754,24657
85938,24535
86142,24450
86250,24428
86359,24407
86580,24407
86797,24450
Z" /> 
<path style="fill:#000000; fill-opacity:1.0; 
stroke:#000000; stroke-width:0; stroke-opacity:1; 
stroke-linecap:round; stroke-linejoin:round;fill-rule:evenodd;"
d="M 21268,24348
21377,24370
21581,24455
21765,24577
21921,24734
22044,24918
22129,25122
22172,25339
22172,25560
22129,25777
22044,25981
21921,26165
21765,26321
21581,26444
21377,26529
21268,26550
21160,26572
20939,26572
20830,26550
20722,26529
20518,26444
20334,26321
20177,26165
20055,25981
19970,25777
19927,25560
19927,25339
19970,25122
20055,24918
20177,24734
20334,24577
20518,24455
20722,24370
20830,24348
20939,24327
21160,24327
21268,24348
Z" /> 
<path style="fill:#000000; fill-opacity:1.0; 
stroke:#000000; stroke-width:0; stroke-opacity:1; 
stroke-linecap:round; stroke-linejoin:round;fill-rule:evenodd;"
d="M 66378,10648
66487,10670
66691,10755
66875,10877
67031,11034
67154,11218
67239,11422
67282,11639
67282,11860
67239,12077
67154,12281
67031,12465
66875,12621
66691,12744
66487,12829
66378,12850
66270,12872
66049,12872
65940,12850
65832,12829
65628,12744
65444,12621
65287,12465
65165,12281
65080,12077
65037,11860
65037,11639
65080,11422
65165,11218
65287,11034
65444,10877
65628,10755
65832,10670
65940,10648
66049,10627
66270,10627
66378,10648
Z" /> 
<path style="fill:#000000; fill-opacity:1.0; 
stroke:#000000; stroke-width:0; stroke-opacity:1; 
stroke-linecap:round; stroke-linejoin:round;fill-rule:evenodd;"
d="M 41720,10627
41837,10650
42041,10735
42225,10857
42381,11014
42504,11198
42589,11402
42632,11619
42632,11840
42589,12057
42504,12261
42381,12445
42225,12601
42041,12724
41837,12809
41736,12829
41620,12852
41399,12852
41282,12829
41182,12809
40978,12724
40794,12601
40637,12445
40515,12261
40430,12057
40387,11840
40387,11619
40430,11402
40515,11198
40637,11014
40794,10857
40978,10735
41182,10650
41298,10627
41399,10607
41620,10607
41720,10627
Z" /> 
<path style="fill:#000000; fill-opacity:1.0; 
stroke:#000000; stroke-width:0; stroke-opacity:1; 
stroke-linecap:round; stroke-linejoin:round;fill-rule:evenodd;"
d="M 11376,7780
11527,7810
11731,7895
11915,8017
12071,8174
12194,8358
12279,8562
12322,8779
12322,9000
12279,9217
12194,9421
12071,9605
11915,9761
11731,9884
11527,9969
11461,9982
11310,10012
11089,10012
10938,9982
10872,9969
10668,9884
10484,9761
10327,9605
10205,9421
10120,9217
10077,9000
10077,8779
10120,8562
10205,8358
10327,8174
10484,8017
10668,7895
10872,7810
11023,7780
11089,7767
11310,7767
11376,7780
Z" /> 
<path style="fill:#000000; fill-opacity:1.0; 
stroke:#000000; stroke-width:0; stroke-opacity:1; 
stroke-linecap:round; stroke-linejoin:round;fill-rule:evenodd;"
d="M 96768,7758
96877,7780
97081,7865
97265,7987
97421,8144
97544,8328
97629,8532
97672,8749
97672,8970
97629,9187
97544,9391
97421,9575
97265,9731
97081,9854
96877,9939
96768,9960
96660,9982
96439,9982
96330,9960
96222,9939
96018,9854
95834,9731
95677,9575
95555,9391
95470,9187
95427,8970
95427,8749
95470,8532
95555,8328
95677,8144
95834,7987
96018,7865
96222,7780
96330,7758
96439,7737
96660,7737
96768,7758
Z" /> 
</g>
<g style="fill:#000000; fill-opacity:1.0; 
stroke:#000000; stroke-width:19.685; stroke-opacity:1; 
stroke-linecap:round; stroke-linejoin:round;">
</g>
<g style="fill:#000000; fill-opacity:0.0; 
stroke:#000000; stroke-width:19.685; stroke-opacity:1; 
stroke-linecap:round; stroke-linejoin:round;">
<path d="M50137 5477
L57635 5478
" />
<path d="M28109 59
L20409 759
" />
<path d="M79609 59
L87309 759
" />
<path d="M30509 32809
L37209 33909
" />
<path d="M20409 759
L3709 9
" />
<path d="M104309 309
L107709 21909
" />
<path d="M56409 34009
L65243 40334
" />
<path d="M65808 40334
L70059 34559
" />
<path d="M409 22309
L16659 24959
" />
<path d="M77209 32809
L84309 29759
" />
<path d="M28109 59
L35609 1259
" />
<path d="M16659 24959
L23409 29809
" />
<path d="M107309 22309
L91059 24909
" />
<path d="M37709 34509
L37209 33909
" />
<path d="M87309 759
L104009 9
" />
<path d="M42519 40332
L51309 34009
" />
<path d="M50136 5477
L35609 1259
" />
<path d="M70059 34559
L70409 33909
" />
<path d="M72109 1259
L79609 59
" />
<path d="M91059 24909
L84309 29759
" />
<path d="M30509 32809
L23409 29809
" />
<path d="M57636 5478
L72109 1259
" />
<path d="M77209 32809
L70409 33909
" />
<path d="M3409 309
L9 21909
" />
<path d="M51309 34009
L56409 34009
" />
<path d="M37709 34509
L41957 40329
" />
<path d="M65243.8 40334.8 A400 400 0.0 0 0 65809.5 40334.8 " />
<path d="M41958 40329.7 A400 400 0.0 0 0 42520.7 40332.7 " />
<path d="M107310 22309.8 A400 400 0.0 0 0 107710 21909.8 " />
<path d="M9.84291 21909.8 A400 400 0.0 0 0 409.843 22309.8 " />
<g >
</g>
<g >
</g>
<g >
</g>
<g >
</g>
<g >
</g>
<g >
</g>
<g >
</g>
<g >
</g>
</g> 
</svg>
