<?xml version="1.0" standalone="no"?>
 <!DOCTYPE svg PUBLIC "-//W3C//DTD SVG 1.1//EN" 
 "http://www.w3.org/Graphics/SVG/1.1/DTD/svg11.dtd"> 
<svg xmlns="http://www.w3.org/2000/svg" version="1.1" 
    width="27.3583cm" height="10.2768cm" viewBox="0 0 107710 40460 ">
<title>SVG Picture created as Sleepy Fox fr4 plates-brd.svg date 2021/03/25 10:04:48 </title>
  <desc>Picture generated by PCBNEW </desc>
<g style="fill:#000000; fill-opacity:1;stroke:#000000; stroke-opacity:1;
stroke-linecap:round; stroke-linejoin:round; "
 transform="translate(0 0) scale(1 1)">
</g>
<g style="fill:#000000; fill-opacity:0.0; 
stroke:#000000; stroke-width:-0.000393701; stroke-opacity:1; 
stroke-linecap:round; stroke-linejoin:round;">
</g>
<g style="fill:#000000; fill-opacity:0.0; 
stroke:#000000; stroke-width:47.2441; stroke-opacity:1; 
stroke-linecap:round; stroke-linejoin:round;">
<circle cx="41509.8" cy="11729.8" r="1082.68" /> 
<circle cx="11199.8" cy="8889.84" r="1082.68" /> 
<circle cx="21049.8" cy="25449.8" r="1082.68" /> 
<circle cx="53949.8" cy="31459.8" r="1082.68" /> 
<circle cx="86469.8" cy="25529.8" r="1082.68" /> 
<circle cx="96549.8" cy="8859.84" r="1082.68" /> 
<circle cx="66159.8" cy="11749.8" r="1082.68" /> 
<path d="M50813 21162
L50813 28051
" />
<path d="M50813 28051
L56876 28051
" />
<path d="M56876 28051
L56876 21162
" />
<path d="M56876 21162
L50813 21162
" />
<path d="M32572 26517
L31710 31961
" />
<path d="M31710 31961
L37153 32823
" />
<path d="M37153 32823
L38016 27379
" />
<path d="M38016 27379
L32572 26517
" />
<path d="M41153 20282
L46597 21145
" />
<path d="M46597 21145
L45734 26589
" />
<path d="M45734 26589
L40290 25726
" />
<path d="M40290 25726
L41153 20282
" />
<path d="M25457 23492
L24595 28936
" />
<path d="M24595 28936
L30039 29798
" />
<path d="M30039 29798
L30901 24354
" />
<path d="M30901 24354
L25457 23492
" />
<path d="M33745 19109
L39189 19971
" />
<path d="M39189 19971
L38327 25415
" />
<path d="M38327 25415
L32883 24553
" />
<path d="M32883 24553
L33745 19109
" />
<path d="M26631 16084
L32075 16946
" />
<path d="M32075 16946
L31212 22390
" />
<path d="M31212 22390
L25768 21528
" />
<path d="M25768 21528
L26631 16084
" />
<path d="M18930 16763
L24374 17625
" />
<path d="M24374 17625
L23511 23069
" />
<path d="M23511 23069
L18067 22207
" />
<path d="M18067 22207
L18930 16763
" />
<path d="M11229 17441
L16673 18303
" />
<path d="M16673 18303
L15810 23747
" />
<path d="M15810 23747
L10366 22885
" />
<path d="M10366 22885
L11229 17441
" />
<path d="M42326 12875
L47770 13737
" />
<path d="M47770 13737
L46908 19181
" />
<path d="M46908 19181
L41464 18319
" />
<path d="M41464 18319
L42326 12875
" />
<path d="M34918 11701
L40362 12564
" />
<path d="M40362 12564
L39500 18008
" />
<path d="M39500 18008
L34056 17145
" />
<path d="M34056 17145
L34918 11701
" />
<path d="M27804 8676
L33248 9538
" />
<path d="M33248 9538
L32386 14982
" />
<path d="M32386 14982
L26942 14120
" />
<path d="M26942 14120
L27804 8676
" />
<path d="M20103 9355
L25547 10217
" />
<path d="M25547 10217
L24685 15661
" />
<path d="M24685 15661
L19241 14799
" />
<path d="M19241 14799
L20103 9355
" />
<path d="M12402 10034
L17846 10896
" />
<path d="M17846 10896
L16984 16340
" />
<path d="M16984 16340
L11540 15478
" />
<path d="M11540 15478
L12402 10034
" />
<path d="M2895 16121
L8339 16984
" />
<path d="M8339 16984
L7477 22428
" />
<path d="M7477 22428
L2033 21565
" />
<path d="M2033 21565
L2895 16121
" />
<path d="M4068 8714
L9512 9576
" />
<path d="M9512 9576
L8650 15020
" />
<path d="M8650 15020
L3206 14158
" />
<path d="M3206 14158
L4068 8714
" />
<path d="M43499 5467
L48943 6329
" />
<path d="M48943 6329
L48081 11773
" />
<path d="M48081 11773
L42637 10911
" />
<path d="M42637 10911
L43499 5467
" />
<path d="M36092 4294
L41536 5156
" />
<path d="M41536 5156
L40673 10600
" />
<path d="M40673 10600
L35229 9738
" />
<path d="M35229 9738
L36092 4294
" />
<path d="M28977 1269
L34421 2131
" />
<path d="M34421 2131
L33559 7575
" />
<path d="M33559 7575
L28115 6713
" />
<path d="M28115 6713
L28977 1269
" />
<path d="M21276 1947
L26720 2809
" />
<path d="M26720 2809
L25858 8253
" />
<path d="M25858 8253
L20414 7391
" />
<path d="M20414 7391
L21276 1947
" />
<path d="M13575 2626
L19019 3488
" />
<path d="M19019 3488
L18157 8932
" />
<path d="M18157 8932
L12713 8070
" />
<path d="M12713 8070
L13575 2626
" />
<path d="M5242 1306
L10685 2168
" />
<path d="M10685 2168
L9823 7612
" />
<path d="M9823 7612
L4379 6750
" />
<path d="M4379 6750
L5242 1306
" />
<path d="M40659 33641
L45118 30402
" />
<path d="M45118 30402
L48358 34861
" />
<path d="M48358 34861
L43899 38100
" />
<path d="M43899 38100
L40659 33641
" />
<path d="M62650 30410
L67109 33650
" />
<path d="M67109 33650
L63869 38109
" />
<path d="M63869 38109
L59410 34869
" />
<path d="M59410 34869
L62650 30410
" />
<path d="M69703 27372
L75147 26510
" />
<path d="M75147 26510
L76009 31954
" />
<path d="M76009 31954
L70565 32816
" />
<path d="M70565 32816
L69703 27372
" />
<path d="M66566 20276
L67428 25719
" />
<path d="M67428 25719
L61984 26582
" />
<path d="M61984 26582
L61122 21138
" />
<path d="M61122 21138
L66566 20276
" />
<path d="M68530 19964
L73974 19102
" />
<path d="M73974 19102
L74836 24546
" />
<path d="M74836 24546
L69392 25408
" />
<path d="M69392 25408
L68530 19964
" />
<path d="M59949 13730
L65393 12868
" />
<path d="M65393 12868
L66255 18312
" />
<path d="M66255 18312
L60811 19174
" />
<path d="M60811 19174
L59949 13730
" />
<path d="M67357 12557
L72800 11695
" />
<path d="M72800 11695
L73663 17138
" />
<path d="M73663 17138
L68219 18001
" />
<path d="M68219 18001
L67357 12557
" />
<path d="M76817 24347
L82261 23485
" />
<path d="M82261 23485
L83124 28929
" />
<path d="M83124 28929
L77680 29791
" />
<path d="M77680 29791
L76817 24347
" />
<path d="M75644 16939
L81088 16077
" />
<path d="M81088 16077
L81950 21521
" />
<path d="M81950 21521
L76506 22383
" />
<path d="M76506 22383
L75644 16939
" />
<path d="M74471 9532
L79915 8669
" />
<path d="M79915 8669
L80777 14113
" />
<path d="M80777 14113
L75333 14976
" />
<path d="M75333 14976
L74471 9532
" />
<path d="M83345 17618
L88789 16756
" />
<path d="M88789 16756
L89651 22200
" />
<path d="M89651 22200
L84207 23062
" />
<path d="M84207 23062
L83345 17618
" />
<path d="M82172 10210
L87616 9348
" />
<path d="M87616 9348
L88478 14792
" />
<path d="M88478 14792
L83034 15654
" />
<path d="M83034 15654
L82172 10210
" />
<path d="M91046 18297
L96490 17434
" />
<path d="M96490 17434
L97352 22878
" />
<path d="M97352 22878
L91908 23741
" />
<path d="M91908 23741
L91046 18297
" />
<path d="M89873 10889
L95317 10027
" />
<path d="M95317 10027
L96179 15471
" />
<path d="M96179 15471
L90735 16333
" />
<path d="M90735 16333
L89873 10889
" />
<path d="M99380 16977
L104824 16114
" />
<path d="M104824 16114
L105686 21558
" />
<path d="M105686 21558
L100242 22421
" />
<path d="M100242 22421
L99380 16977
" />
<path d="M98207 9569
L103651 8707
" />
<path d="M103651 8707
L104513 14151
" />
<path d="M104513 14151
L99069 15013
" />
<path d="M99069 15013
L98207 9569
" />
<path d="M97033 2161
L102477 1299
" />
<path d="M102477 1299
L103339 6743
" />
<path d="M103339 6743
L97896 7605
" />
<path d="M97896 7605
L97033 2161
" />
<path d="M88700 3481
L94144 2619
" />
<path d="M94144 2619
L95006 8063
" />
<path d="M95006 8063
L89562 8925
" />
<path d="M89562 8925
L88700 3481
" />
<path d="M80999 2803
L86443 1940
" />
<path d="M86443 1940
L87305 7384
" />
<path d="M87305 7384
L81861 8247
" />
<path d="M81861 8247
L80999 2803
" />
<path d="M73298 2124
L78742 1262
" />
<path d="M78742 1262
L79604 6706
" />
<path d="M79604 6706
L74160 7568
" />
<path d="M74160 7568
L73298 2124
" />
<path d="M66183 5149
L71627 4287
" />
<path d="M71627 4287
L72489 9731
" />
<path d="M72489 9731
L67045 10593
" />
<path d="M67045 10593
L66183 5149
" />
<path d="M58776 6322
L64220 5460
" />
<path d="M64220 5460
L65082 10904
" />
<path d="M65082 10904
L59638 11766
" />
<path d="M59638 11766
L58776 6322
" />
<g >
</g>
<g >
</g>
<g >
</g>
<g >
</g>
<g >
</g>
<g >
</g>
<g >
</g>
<g >
</g>
<g >
</g>
<g >
</g>
<g >
</g>
<g >
</g>
<g >
</g>
<g >
</g>
<g >
</g>
<g >
</g>
<g >
</g>
<g >
</g>
<g >
</g>
<g >
</g>
<g >
</g>
<g >
</g>
<g >
</g>
<g >
</g>
<g >
</g>
<g >
</g>
<g >
</g>
<g >
</g>
<g >
</g>
<g >
</g>
<g >
</g>
<g >
</g>
<g >
</g>
<g >
</g>
<g >
</g>
<g >
</g>
<g >
</g>
<g >
</g>
<g >
</g>
<g >
</g>
<g >
</g>
<g >
</g>
<g >
</g>
<g >
</g>
<g >
</g>
<g >
</g>
<g >
</g>
<g >
</g>
<g >
</g>
<g >
</g>
<g >
</g>
</g>
<g style="fill:#000000; fill-opacity:0.0; 
stroke:#000000; stroke-width:47.2441; stroke-opacity:1; 
stroke-linecap:round; stroke-linejoin:round;">
</g>
<g style="fill:#000000; fill-opacity:0.0; 
stroke:#000000; stroke-width:19.685; stroke-opacity:1; 
stroke-linecap:round; stroke-linejoin:round;">
<path d="M57636 19072
L57636 5478
" />
<path d="M50136 19072
L57636 19072
" />
<path d="M50136 5478
L50136 19072
" />
<path d="M9.84291 21909.8 A400 400 0.0 0 0 409.843 22309.8 " />
<path d="M107310 22309.8 A400 400 0.0 0 0 107710 21909.8 " />
<path d="M41958 40329.7 A400 400 0.0 0 0 42520.7 40332.7 " />
<path d="M65243.8 40334.8 A400 400 0.0 0 0 65809.5 40334.8 " />
<path d="M87309 759
L104009 9
" />
<path d="M37709 34509
L41957 40329
" />
<path d="M104310 309.843 A300 300 0.0 0 0 104010 9.84291 " />
<path d="M3409 309
L9 21909
" />
<path d="M28109 59
L35609 1259
" />
<path d="M37709 34509
L37209 33909
" />
<path d="M77209 32809
L84309 29759
" />
<path d="M16659 24959
L23409 29809
" />
<path d="M409 22309
L16659 24959
" />
<path d="M3709.84 9.84291 A300 300 0.0 0 0 3409.84 309.843 " />
<path d="M42519 40332
L51309 34009
" />
<path d="M107309 22309
L91059 24909
" />
<path d="M65808 40334
L70059 34559
" />
<path d="M51309 34009
L56409 34009
" />
<path d="M91059 24909
L84309 29759
" />
<path d="M56409 34009
L65243 40334
" />
<path d="M104309 309
L107709 21909
" />
<path d="M77209 32809
L70409 33909
" />
<path d="M50136 5477
L35609 1259
" />
<path d="M57636 5478
L72109 1259
" />
<path d="M30509 32809
L23409 29809
" />
<path d="M72109 1259
L79609 59
" />
<path d="M70059 34559
L70409 33909
" />
<path d="M79609 59
L87309 759
" />
<path d="M20409 759
L3709 9
" />
<path d="M30509 32809
L37209 33909
" />
<path d="M28109 59
L20409 759
" />
<g >
</g>
<g >
</g>
<g >
</g>
<g >
</g>
<g >
</g>
<g >
</g>
<g >
</g>
<g >
</g>
<g >
</g>
<g >
</g>
<g >
</g>
<g >
</g>
<g >
</g>
<g >
</g>
<g >
</g>
<g >
</g>
<g >
</g>
<g >
</g>
<g >
</g>
<g >
</g>
<g >
</g>
<g >
</g>
<g >
</g>
<g >
</g>
<g >
</g>
<g >
</g>
<g >
</g>
<g >
</g>
<g >
</g>
<g >
</g>
<g >
</g>
<g >
</g>
<g >
</g>
<g >
</g>
<g >
</g>
<g >
</g>
<g >
</g>
<g >
</g>
<g >
</g>
<g >
</g>
<g >
</g>
<g >
</g>
<g >
</g>
<g >
</g>
<g >
</g>
<g >
</g>
<g >
</g>
<g >
</g>
<g >
</g>
<g >
</g>
<g >
</g>
</g> 
</svg>
